MFB Oldstyle-Italic.ufo
<glyph name="exclam" format="2">
  <advance width="296"/>
  <unicode hex="0021"/>
  <outline>
    <contour>
      <point x="163" y="199" type="line"/>
      <point x="215" y="387" type="line" smooth="yes"/>
      <point x="250" y="513"/>
      <point x="319" y="595"/>
      <point x="319" y="667" type="curve" smooth="yes"/>
      <point x="319" y="706"/>
      <point x="299" y="735"/>
      <point x="258" y="735" type="curve" smooth="yes"/>
      <point x="215" y="735"/>
      <point x="183" y="703"/>
      <point x="183" y="552" type="curve" smooth="yes"/>
      <point x="183" y="416"/>
      <point x="150" y="323"/>
      <point x="124" y="209" type="curve"/>
    </contour>
    <contour>
      <point x="106" y="-14" type="curve" smooth="yes"/>
      <point x="141" y="-14"/>
      <point x="170" y="13"/>
      <point x="170" y="51" type="curve" smooth="yes"/>
      <point x="170" y="89"/>
      <point x="141" y="115"/>
      <point x="106" y="115" type="curve" smooth="yes"/>
      <point x="71" y="115"/>
      <point x="41" y="89"/>
      <point x="41" y="51" type="curve" smooth="yes"/>
      <point x="41" y="13"/>
      <point x="71" y="-14"/>
    </contour>
  </outline>
</glyph>
<glyph name="numbersign" format="2">
  <advance width="601"/>
  <unicode hex="0023"/>
  <outline>
    <contour>
      <point x="38" y="0" type="line"/>
      <point x="105" y="0" type="line"/>
      <point x="184" y="236" type="line"/>
      <point x="323" y="236" type="line"/>
      <point x="244" y="0" type="line"/>
      <point x="311" y="0" type="line"/>
      <point x="390" y="236" type="line"/>
      <point x="510" y="236" type="line"/>
      <point x="522" y="294" type="line"/>
      <point x="410" y="294" type="line"/>
      <point x="463" y="452" type="line"/>
      <point x="585" y="452" type="line"/>
      <point x="597" y="510" type="line"/>
      <point x="482" y="510" type="line"/>
      <point x="561" y="746" type="line"/>
      <point x="495" y="746" type="line"/>
      <point x="416" y="510" type="line"/>
      <point x="276" y="510" type="line"/>
      <point x="355" y="746" type="line"/>
      <point x="289" y="746" type="line"/>
      <point x="210" y="510" type="line"/>
      <point x="86" y="510" type="line"/>
      <point x="75" y="452" type="line"/>
      <point x="190" y="452" type="line"/>
      <point x="137" y="294" type="line"/>
      <point x="16" y="294" type="line"/>
      <point x="4" y="236" type="line"/>
      <point x="117" y="236" type="line"/>
    </contour>
    <contour>
      <point x="203" y="294" type="line"/>
      <point x="256" y="452" type="line"/>
      <point x="397" y="452" type="line"/>
      <point x="344" y="294" type="line"/>
    </contour>
  </outline>
</glyph>
<glyph name="dollar" format="2">
  <advance width="514"/>
  <unicode hex="0024"/>
  <outline>
    <contour>
      <point x="139" y="-89" type="line"/>
      <point x="199" y="-89" type="line"/>
      <point x="217" y="-14" type="line"/>
      <point x="227" y="-16"/>
      <point x="242" y="-17"/>
      <point x="254" y="-17" type="curve" smooth="yes"/>
      <point x="374" y="-17"/>
      <point x="480" y="90"/>
      <point x="480" y="212" type="curve" smooth="yes"/>
      <point x="480" y="325"/>
      <point x="388" y="371"/>
      <point x="322" y="405" type="curve"/>
      <point x="384" y="652" type="line"/>
      <point x="424" y="646"/>
      <point x="455" y="621"/>
      <point x="455" y="597" type="curve" smooth="yes"/>
      <point x="455" y="576"/>
      <point x="431" y="564"/>
      <point x="431" y="529" type="curve" smooth="yes"/>
      <point x="431" y="496"/>
      <point x="453" y="482"/>
      <point x="478" y="482" type="curve" smooth="yes"/>
      <point x="514" y="482"/>
      <point x="545" y="513"/>
      <point x="545" y="556" type="curve" smooth="yes"/>
      <point x="545" y="603"/>
      <point x="509" y="677"/>
      <point x="395" y="697" type="curve"/>
      <point x="423" y="810" type="line"/>
      <point x="363" y="810" type="line"/>
      <point x="337" y="707" type="line"/>
      <point x="333" y="707" type="line" smooth="yes"/>
      <point x="206" y="707"/>
      <point x="117" y="619"/>
      <point x="117" y="503" type="curve" smooth="yes"/>
      <point x="117" y="406"/>
      <point x="180" y="363"/>
      <point x="243" y="330" type="curve"/>
      <point x="173" y="40" type="line"/>
      <point x="125" y="50"/>
      <point x="96" y="81"/>
      <point x="96" y="105" type="curve" smooth="yes"/>
      <point x="96" y="130"/>
      <point x="128" y="139"/>
      <point x="128" y="173" type="curve" smooth="yes"/>
      <point x="128" y="202"/>
      <point x="104" y="215"/>
      <point x="81" y="215" type="curve" smooth="yes"/>
      <point x="38" y="215"/>
      <point x="12" y="169"/>
      <point x="12" y="136" type="curve" smooth="yes"/>
      <point x="12" y="86"/>
      <point x="69" y="15"/>
      <point x="161" y="-3" type="curve"/>
    </contour>
    <contour>
      <point x="257" y="28" type="curve" smooth="yes"/>
      <point x="248" y="28"/>
      <point x="238" y="29"/>
      <point x="228" y="30" type="curve"/>
      <point x="296" y="303" type="line"/>
      <point x="347" y="277"/>
      <point x="399" y="239"/>
      <point x="399" y="172" type="curve" smooth="yes"/>
      <point x="399" y="95"/>
      <point x="332" y="28"/>
    </contour>
    <contour>
      <point x="269" y="434" type="line"/>
      <point x="227" y="459"/>
      <point x="196" y="493"/>
      <point x="196" y="544" type="curve" smooth="yes"/>
      <point x="196" y="613"/>
      <point x="251" y="657"/>
      <point x="326" y="662" type="curve"/>
    </contour>
  </outline>
</glyph>
<glyph name="percent" format="2">
  <advance width="676"/>
  <unicode hex="0025"/>
  <outline>
    <contour>
      <point x="65" y="0" type="line"/>
      <point x="116" y="0" type="line"/>
      <point x="678" y="721" type="line"/>
      <point x="628" y="721" type="line"/>
    </contour>
    <contour>
      <point x="433" y="-14" type="curve" smooth="yes"/>
      <point x="526" y="-14"/>
      <point x="630" y="141"/>
      <point x="630" y="279" type="curve" smooth="yes"/>
      <point x="630" y="368"/>
      <point x="586" y="409"/>
      <point x="542" y="409" type="curve" smooth="yes"/>
      <point x="506" y="409"/>
      <point x="467" y="382"/>
      <point x="434" y="345" type="curve" smooth="yes"/>
      <point x="393" y="299"/>
      <point x="345" y="219"/>
      <point x="345" y="122" type="curve" smooth="yes"/>
      <point x="345" y="47"/>
      <point x="374" y="-14"/>
    </contour>
    <contour>
      <point x="440" y="16" type="curve" smooth="yes"/>
      <point x="412" y="16"/>
      <point x="401" y="37"/>
      <point x="401" y="78" type="curve" smooth="yes"/>
      <point x="401" y="158"/>
      <point x="444" y="284"/>
      <point x="476" y="335" type="curve" smooth="yes"/>
      <point x="496" y="367"/>
      <point x="516" y="378"/>
      <point x="536" y="378" type="curve" smooth="yes"/>
      <point x="562" y="378"/>
      <point x="574" y="359"/>
      <point x="574" y="321" type="curve" smooth="yes"/>
      <point x="574" y="261"/>
      <point x="545" y="149"/>
      <point x="512" y="82" type="curve" smooth="yes"/>
      <point x="487" y="32"/>
      <point x="464" y="16"/>
    </contour>
    <contour>
      <point x="197" y="312" type="curve" smooth="yes"/>
      <point x="290" y="312"/>
      <point x="395" y="467"/>
      <point x="395" y="604" type="curve" smooth="yes"/>
      <point x="395" y="692"/>
      <point x="352" y="735"/>
      <point x="307" y="735" type="curve" smooth="yes"/>
      <point x="272" y="735"/>
      <point x="233" y="710"/>
      <point x="201" y="675" type="curve" smooth="yes"/>
      <point x="157" y="627"/>
      <point x="109" y="543"/>
      <point x="109" y="448" type="curve" smooth="yes"/>
      <point x="109" y="374"/>
      <point x="138" y="312"/>
    </contour>
    <contour>
      <point x="203" y="343" type="curve" smooth="yes"/>
      <point x="176" y="343"/>
      <point x="165" y="363"/>
      <point x="165" y="403" type="curve" smooth="yes"/>
      <point x="165" y="484"/>
      <point x="209" y="611"/>
      <point x="240" y="662" type="curve" smooth="yes"/>
      <point x="259" y="693"/>
      <point x="280" y="705"/>
      <point x="300" y="705" type="curve" smooth="yes"/>
      <point x="326" y="705"/>
      <point x="338" y="686"/>
      <point x="338" y="648" type="curve" smooth="yes"/>
      <point x="338" y="589"/>
      <point x="310" y="475"/>
      <point x="277" y="409" type="curve" smooth="yes"/>
      <point x="252" y="359"/>
      <point x="228" y="343"/>
    </contour>
  </outline>
</glyph>
<glyph name="ampersand" format="2">
  <advance width="743"/>
  <unicode hex="0026"/>
  <outline>
    <contour>
      <point x="212" y="-18" type="curve" smooth="yes"/>
      <point x="297" y="-18"/>
      <point x="363" y="24"/>
      <point x="394" y="50" type="curve"/>
      <point x="419" y="23"/>
      <point x="451" y="-14"/>
      <point x="508" y="-14" type="curve" smooth="yes"/>
      <point x="582" y="-14"/>
      <point x="653" y="48"/>
      <point x="690" y="95" type="curve"/>
      <point x="661" y="123" type="line"/>
      <point x="646" y="109"/>
      <point x="601" y="58"/>
      <point x="547" y="58" type="curve" smooth="yes"/>
      <point x="509" y="58"/>
      <point x="484" y="84"/>
      <point x="466" y="110" type="curve"/>
      <point x="530" y="169"/>
      <point x="560" y="218"/>
      <point x="592" y="264" type="curve" smooth="yes"/>
      <point x="624" y="309"/>
      <point x="644" y="337"/>
      <point x="719" y="345" type="curve"/>
      <point x="730" y="386" type="line"/>
      <point x="477" y="386" type="line"/>
      <point x="466" y="344" type="line"/>
      <point x="528" y="339"/>
      <point x="552" y="332"/>
      <point x="552" y="310" type="curve" smooth="yes"/>
      <point x="552" y="283"/>
      <point x="514" y="218"/>
      <point x="441" y="148" type="curve"/>
      <point x="400" y="221"/>
      <point x="374" y="291"/>
      <point x="357" y="405" type="curve"/>
      <point x="452" y="445"/>
      <point x="584" y="499"/>
      <point x="584" y="617" type="curve" smooth="yes"/>
      <point x="584" y="693"/>
      <point x="529" y="739"/>
      <point x="457" y="739" type="curve" smooth="yes"/>
      <point x="351" y="739"/>
      <point x="252" y="637"/>
      <point x="252" y="481" type="curve" smooth="yes"/>
      <point x="252" y="450"/>
      <point x="256" y="428"/>
      <point x="259" y="405" type="curve"/>
      <point x="171" y="369"/>
      <point x="22" y="291"/>
      <point x="22" y="155" type="curve" smooth="yes"/>
      <point x="22" y="58"/>
      <point x="97" y="-18"/>
    </contour>
    <contour>
      <point x="250" y="48" type="curve" smooth="yes"/>
      <point x="177" y="48"/>
      <point x="126" y="110"/>
      <point x="126" y="190" type="curve" smooth="yes"/>
      <point x="126" y="266"/>
      <point x="173" y="324"/>
      <point x="267" y="363" type="curve"/>
      <point x="286" y="269"/>
      <point x="305" y="187"/>
      <point x="366" y="88" type="curve"/>
      <point x="343" y="75"/>
      <point x="299" y="48"/>
    </contour>
    <contour>
      <point x="349" y="449" type="curve"/>
      <point x="347" y="466"/>
      <point x="343" y="497"/>
      <point x="343" y="523" type="curve" smooth="yes"/>
      <point x="343" y="625"/>
      <point x="402" y="696"/>
      <point x="460" y="696" type="curve" smooth="yes"/>
      <point x="495" y="696"/>
      <point x="512" y="670"/>
      <point x="512" y="631" type="curve" smooth="yes"/>
      <point x="512" y="547"/>
      <point x="434" y="486"/>
    </contour>
  </outline>
</glyph>
<glyph name="quotesingle" format="2">
  <advance width="200"/>
  <unicode hex="0027"/>
  <outline>
    <contour>
      <point x="146" y="468" type="curve"/>
      <point x="179" y="468" type="line"/>
      <point x="198" y="532"/>
      <point x="268" y="633"/>
      <point x="276" y="674" type="curve" smooth="yes"/>
      <point x="277" y="679"/>
      <point x="278" y="690"/>
      <point x="278" y="696" type="curve" smooth="yes"/>
      <point x="278" y="725"/>
      <point x="256" y="735"/>
      <point x="232" y="735" type="curve" smooth="yes"/>
      <point x="199" y="735"/>
      <point x="171" y="715"/>
      <point x="162" y="674" type="curve" smooth="yes"/>
      <point x="152" y="630"/>
      <point x="157" y="531"/>
    </contour>
  </outline>
</glyph>
<glyph name="parenleft" format="2">
  <advance width="329"/>
  <unicode hex="0028"/>
  <outline>
    <contour>
      <point x="155" y="-205" type="curve"/>
      <point x="181" y="-185" type="line"/>
      <point x="152" y="-102"/>
      <point x="128" y="-43"/>
      <point x="128" y="76" type="curve" smooth="yes"/>
      <point x="128" y="255"/>
      <point x="182" y="553"/>
      <point x="422" y="714" type="curve"/>
      <point x="402" y="739" type="line"/>
      <point x="271" y="660"/>
      <point x="51" y="476"/>
      <point x="51" y="154" type="curve" smooth="yes"/>
      <point x="51" y="25"/>
      <point x="86" y="-79"/>
    </contour>
  </outline>
</glyph>
<glyph name="parenright" format="2">
  <advance width="329"/>
  <unicode hex="0029"/>
  <outline>
    <contour>
      <point x="-55" y="-205" type="line"/>
      <point x="76" y="-126"/>
      <point x="296" y="58"/>
      <point x="296" y="380" type="curve" smooth="yes"/>
      <point x="296" y="509"/>
      <point x="261" y="613"/>
      <point x="192" y="739" type="curve"/>
      <point x="166" y="719" type="line"/>
      <point x="195" y="636"/>
      <point x="219" y="577"/>
      <point x="219" y="458" type="curve" smooth="yes"/>
      <point x="219" y="279"/>
      <point x="165" y="-19"/>
      <point x="-75" y="-179" type="curve"/>
    </contour>
  </outline>
</glyph>
<glyph name="asterisk" format="2">
  <advance width="506"/>
  <unicode hex="002A"/>
  <outline>
    <contour>
      <point x="386" y="396" type="curve" smooth="yes"/>
      <point x="407" y="396"/>
      <point x="425" y="415"/>
      <point x="425" y="438" type="curve" smooth="yes"/>
      <point x="425" y="443"/>
      <point x="424" y="449"/>
      <point x="422" y="454" type="curve" smooth="yes"/>
      <point x="411" y="484"/>
      <point x="375" y="505"/>
      <point x="357" y="551" type="curve"/>
      <point x="403" y="556"/>
      <point x="440" y="533"/>
      <point x="469" y="533" type="curve" smooth="yes"/>
      <point x="494" y="533"/>
      <point x="514" y="551"/>
      <point x="514" y="573" type="curve" smooth="yes"/>
      <point x="514" y="593"/>
      <point x="497" y="613"/>
      <point x="471" y="613" type="curve" smooth="yes"/>
      <point x="440" y="613"/>
      <point x="406" y="585"/>
      <point x="356" y="582" type="curve"/>
      <point x="366" y="630"/>
      <point x="403" y="658"/>
      <point x="409" y="685" type="curve" smooth="yes"/>
      <point x="410" y="689"/>
      <point x="410" y="693"/>
      <point x="410" y="697" type="curve" smooth="yes"/>
      <point x="410" y="721"/>
      <point x="393" y="739"/>
      <point x="372" y="739" type="curve" smooth="yes"/>
      <point x="349" y="739"/>
      <point x="328" y="719"/>
      <point x="328" y="683" type="curve" smooth="yes"/>
      <point x="328" y="670"/>
      <point x="331" y="651"/>
      <point x="331" y="630" type="curve" smooth="yes"/>
      <point x="331" y="618"/>
      <point x="330" y="604"/>
      <point x="326" y="589" type="curve"/>
      <point x="283" y="614"/>
      <point x="270" y="655"/>
      <point x="244" y="671" type="curve" smooth="yes"/>
      <point x="234" y="677"/>
      <point x="223" y="679"/>
      <point x="216" y="679" type="curve" smooth="yes"/>
      <point x="203" y="679"/>
      <point x="190" y="671"/>
      <point x="185" y="662" type="curve" smooth="yes"/>
      <point x="182" y="656"/>
      <point x="180" y="648"/>
      <point x="180" y="641" type="curve" smooth="yes"/>
      <point x="180" y="628"/>
      <point x="186" y="613"/>
      <point x="202" y="603" type="curve" smooth="yes"/>
      <point x="228" y="587"/>
      <point x="269" y="589"/>
      <point x="310" y="564" type="curve"/>
      <point x="274" y="531"/>
      <point x="227" y="530"/>
      <point x="206" y="511" type="curve" smooth="yes"/>
      <point x="195" y="501"/>
      <point x="190" y="489"/>
      <point x="190" y="477" type="curve" smooth="yes"/>
      <point x="190" y="468"/>
      <point x="193" y="459"/>
      <point x="199" y="452" type="curve" smooth="yes"/>
      <point x="206" y="444"/>
      <point x="218" y="439"/>
      <point x="229" y="439" type="curve" smooth="yes"/>
      <point x="238" y="439"/>
      <point x="249" y="442"/>
      <point x="258" y="449" type="curve" smooth="yes"/>
      <point x="281" y="466"/>
      <point x="291" y="508"/>
      <point x="329" y="541" type="curve"/>
      <point x="348" y="495"/>
      <point x="335" y="455"/>
      <point x="347" y="425" type="curve" smooth="yes"/>
      <point x="355" y="406"/>
      <point x="371" y="396"/>
    </contour>
  </outline>
</glyph>
<glyph name="comma" format="2">
  <advance width="258"/>
  <unicode hex="002C"/>
  <outline>
    <contour>
      <point x="-2" y="-142" type="line"/>
      <point x="66" y="-102"/>
      <point x="145" y="-35"/>
      <point x="145" y="42" type="curve" smooth="yes"/>
      <point x="145" y="95"/>
      <point x="108" y="114"/>
      <point x="80" y="114" type="curve" smooth="yes"/>
      <point x="49" y="114"/>
      <point x="21" y="90"/>
      <point x="21" y="54" type="curve" smooth="yes"/>
      <point x="21" y="9"/>
      <point x="63" y="5"/>
      <point x="63" y="-20" type="curve" smooth="yes"/>
      <point x="63" y="-52"/>
      <point x="-6" y="-100"/>
      <point x="-25" y="-111" type="curve"/>
    </contour>
  </outline>
</glyph>
<glyph name="hyphen" format="2">
  <advance width="176"/>
  <unicode hex="002D"/>
  <outline>
    <contour>
      <point x="3" y="246" type="line"/>
      <point x="179" y="246" type="line"/>
      <point x="198" y="315" type="line"/>
      <point x="22" y="315" type="line"/>
    </contour>
  </outline>
</glyph>
<glyph name="period" format="2">
  <advance width="258"/>
  <unicode hex="002E"/>
  <outline>
    <contour>
      <point x="81" y="-14" type="curve" smooth="yes"/>
      <point x="116" y="-14"/>
      <point x="145" y="13"/>
      <point x="145" y="51" type="curve" smooth="yes"/>
      <point x="145" y="89"/>
      <point x="116" y="115"/>
      <point x="81" y="115" type="curve" smooth="yes"/>
      <point x="46" y="115"/>
      <point x="16" y="89"/>
      <point x="16" y="51" type="curve" smooth="yes"/>
      <point x="16" y="13"/>
      <point x="46" y="-14"/>
    </contour>
  </outline>
</glyph>
<glyph name="slash" format="2">
  <advance width="414"/>
  <unicode hex="002F"/>
  <outline>
    <contour>
      <point x="-121" y="-187" type="line"/>
      <point x="-59" y="-187" type="line"/>
      <point x="503" y="721" type="line"/>
      <point x="439" y="721" type="line"/>
    </contour>
  </outline>
</glyph>
<glyph name="zero" format="2">
  <advance width="514"/>
  <unicode hex="0030"/>
  <outline>
    <contour>
      <point x="202" y="-18" type="curve" smooth="yes"/>
      <point x="357" y="-18"/>
      <point x="521" y="266"/>
      <point x="521" y="476" type="curve" smooth="yes"/>
      <point x="521" y="618"/>
      <point x="446" y="703"/>
      <point x="361" y="703" type="curve" smooth="yes"/>
      <point x="303" y="703"/>
      <point x="248" y="664"/>
      <point x="201" y="609" type="curve" smooth="yes"/>
      <point x="126" y="521"/>
      <point x="49" y="366"/>
      <point x="49" y="209" type="curve" smooth="yes"/>
      <point x="49" y="56"/>
      <point x="123" y="-18"/>
    </contour>
    <contour>
      <point x="209" y="23" type="curve" smooth="yes"/>
      <point x="156" y="23"/>
      <point x="124" y="60"/>
      <point x="124" y="121" type="curve" smooth="yes"/>
      <point x="124" y="221"/>
      <point x="208" y="491"/>
      <point x="253" y="577" type="curve" smooth="yes"/>
      <point x="280" y="629"/>
      <point x="317" y="662"/>
      <point x="360" y="662" type="curve" smooth="yes"/>
      <point x="410" y="662"/>
      <point x="444" y="618"/>
      <point x="444" y="560" type="curve" smooth="yes"/>
      <point x="444" y="490"/>
      <point x="396" y="269"/>
      <point x="325" y="129" type="curve" smooth="yes"/>
      <point x="284" y="47"/>
      <point x="251" y="23"/>
    </contour>
  </outline>
</glyph>
<glyph name="one" format="2">
  <advance width="514"/>
  <unicode hex="0031"/>
  <outline>
    <contour>
      <point x="30" y="0" type="line"/>
      <point x="386" y="0" type="line"/>
      <point x="398" y="43" type="line"/>
      <point x="292" y="43"/>
      <point x="268" y="51"/>
      <point x="268" y="84" type="curve" smooth="yes"/>
      <point x="268" y="94"/>
      <point x="270" y="102"/>
      <point x="276" y="124" type="curve" smooth="yes"/>
      <point x="437" y="725" type="line"/>
      <point x="357" y="688"/>
      <point x="307" y="666"/>
      <point x="176" y="653" type="curve"/>
      <point x="165" y="611" type="line"/>
      <point x="270" y="611"/>
      <point x="300" y="610"/>
      <point x="300" y="577" type="curve" smooth="yes"/>
      <point x="300" y="563"/>
      <point x="295" y="544"/>
      <point x="288" y="517" type="curve" smooth="yes"/>
      <point x="184" y="131" type="line" smooth="yes"/>
      <point x="165" y="61"/>
      <point x="162" y="51"/>
      <point x="42" y="43" type="curve"/>
    </contour>
  </outline>
</glyph>
<glyph name="two" format="2">
  <advance width="514"/>
  <unicode hex="0032"/>
  <outline>
    <contour>
      <point x="-27" y="0" type="line"/>
      <point x="389" y="0" type="line"/>
      <point x="457" y="173" type="line"/>
      <point x="425" y="194" type="line"/>
      <point x="360" y="82"/>
      <point x="321" y="82"/>
      <point x="244" y="82" type="curve" smooth="yes"/>
      <point x="57" y="82" type="line"/>
      <point x="114" y="147"/>
      <point x="177" y="193"/>
      <point x="286" y="273" type="curve" smooth="yes"/>
      <point x="398" y="355"/>
      <point x="520" y="418"/>
      <point x="520" y="543" type="curve" smooth="yes"/>
      <point x="520" y="639"/>
      <point x="448" y="703"/>
      <point x="339" y="703" type="curve" smooth="yes"/>
      <point x="205" y="703"/>
      <point x="114" y="606"/>
      <point x="114" y="539" type="curve" smooth="yes"/>
      <point x="114" y="505"/>
      <point x="138" y="479"/>
      <point x="173" y="479" type="curve" smooth="yes"/>
      <point x="214" y="479"/>
      <point x="229" y="516"/>
      <point x="229" y="569" type="curve" smooth="yes"/>
      <point x="229" y="616"/>
      <point x="254" y="658"/>
      <point x="329" y="658" type="curve" smooth="yes"/>
      <point x="384" y="658"/>
      <point x="419" y="635"/>
      <point x="419" y="570" type="curve" smooth="yes"/>
      <point x="419" y="473"/>
      <point x="343" y="402"/>
      <point x="224" y="303" type="curve" smooth="yes"/>
      <point x="136" y="230"/>
      <point x="47" y="156"/>
      <point x="-12" y="59" type="curve"/>
    </contour>
  </outline>
</glyph>
<glyph name="three" format="2">
  <advance width="514"/>
  <unicode hex="0033"/>
  <outline>
    <contour>
      <point x="213" y="-18" type="curve" smooth="yes"/>
      <point x="347" y="-18"/>
      <point x="459" y="80"/>
      <point x="459" y="208" type="curve" smooth="yes"/>
      <point x="459" y="297"/>
      <point x="404" y="335"/>
      <point x="335" y="359" type="curve"/>
      <point x="427" y="360"/>
      <point x="529" y="442"/>
      <point x="529" y="548" type="curve" smooth="yes"/>
      <point x="529" y="638"/>
      <point x="455" y="703"/>
      <point x="350" y="703" type="curve" smooth="yes"/>
      <point x="248" y="703"/>
      <point x="151" y="642"/>
      <point x="151" y="576" type="curve" smooth="yes"/>
      <point x="151" y="546"/>
      <point x="171" y="518"/>
      <point x="207" y="518" type="curve" smooth="yes"/>
      <point x="290" y="518"/>
      <point x="238" y="662"/>
      <point x="355" y="662" type="curve" smooth="yes"/>
      <point x="414" y="662"/>
      <point x="434" y="626"/>
      <point x="434" y="572" type="curve" smooth="yes"/>
      <point x="434" y="471"/>
      <point x="365" y="382"/>
      <point x="291" y="382" type="curve" smooth="yes"/>
      <point x="268" y="382"/>
      <point x="252" y="391"/>
      <point x="231" y="391" type="curve" smooth="yes"/>
      <point x="208" y="391"/>
      <point x="198" y="381"/>
      <point x="198" y="362" type="curve" smooth="yes"/>
      <point x="198" y="339"/>
      <point x="214" y="330"/>
      <point x="239" y="330" type="curve" smooth="yes"/>
      <point x="259" y="330"/>
      <point x="271" y="336"/>
      <point x="291" y="336" type="curve" smooth="yes"/>
      <point x="344" y="336"/>
      <point x="363" y="286"/>
      <point x="363" y="237" type="curve" smooth="yes"/>
      <point x="363" y="151"/>
      <point x="306" y="23"/>
      <point x="200" y="23" type="curve" smooth="yes"/>
      <point x="149" y="23"/>
      <point x="124" y="52"/>
      <point x="124" y="79" type="curve" smooth="yes"/>
      <point x="124" y="98"/>
      <point x="137" y="115"/>
      <point x="137" y="139" type="curve" smooth="yes"/>
      <point x="137" y="172"/>
      <point x="111" y="198"/>
      <point x="79" y="198" type="curve" smooth="yes"/>
      <point x="48" y="198"/>
      <point x="22" y="175"/>
      <point x="22" y="131" type="curve" smooth="yes"/>
      <point x="22" y="59"/>
      <point x="94" y="-18"/>
    </contour>
  </outline>
</glyph>
<glyph name="four" format="2">
  <advance width="514"/>
  <unicode hex="0034"/>
  <outline>
    <contour>
      <point x="149" y="0" type="line"/>
      <point x="409" y="0" type="line"/>
      <point x="419" y="40" type="line"/>
      <point x="348" y="40"/>
      <point x="329" y="51"/>
      <point x="329" y="72" type="curve" smooth="yes"/>
      <point x="329" y="81"/>
      <point x="333" y="99"/>
      <point x="337" y="114" type="curve" smooth="yes"/>
      <point x="352" y="169" type="line"/>
      <point x="475" y="169" type="line"/>
      <point x="488" y="218" type="line"/>
      <point x="365" y="218" type="line"/>
      <point x="495" y="703" type="line"/>
      <point x="426" y="703" type="line"/>
      <point x="15" y="210" type="line"/>
      <point x="4" y="169" type="line"/>
      <point x="258" y="169" type="line"/>
      <point x="243" y="114" type="line" smooth="yes"/>
      <point x="227" y="54"/>
      <point x="229" y="43"/>
      <point x="160" y="40" type="curve"/>
    </contour>
    <contour>
      <point x="79" y="218" type="line"/>
      <point x="363" y="561" type="line"/>
      <point x="271" y="218" type="line"/>
    </contour>
  </outline>
</glyph>
<glyph name="five" format="2">
  <advance width="514"/>
  <unicode hex="0035"/>
  <outline>
    <contour>
      <point x="203" y="-18" type="curve" smooth="yes"/>
      <point x="344" y="-18"/>
      <point x="465" y="101"/>
      <point x="465" y="251" type="curve" smooth="yes"/>
      <point x="465" y="359"/>
      <point x="402" y="445"/>
      <point x="292" y="445" type="curve" smooth="yes"/>
      <point x="240" y="445"/>
      <point x="201" y="426"/>
      <point x="163" y="394" type="curve"/>
      <point x="243" y="605" type="line"/>
      <point x="502" y="605" type="line"/>
      <point x="541" y="684" type="line"/>
      <point x="223" y="684" type="line"/>
      <point x="92" y="330" type="line"/>
      <point x="123" y="314" type="line"/>
      <point x="165" y="355"/>
      <point x="210" y="396"/>
      <point x="273" y="396" type="curve" smooth="yes"/>
      <point x="323" y="396"/>
      <point x="369" y="371"/>
      <point x="369" y="288" type="curve" smooth="yes"/>
      <point x="369" y="197"/>
      <point x="314" y="23"/>
      <point x="193" y="23" type="curve" smooth="yes"/>
      <point x="144" y="23"/>
      <point x="120" y="52"/>
      <point x="120" y="80" type="curve" smooth="yes"/>
      <point x="120" y="100"/>
      <point x="133" y="116"/>
      <point x="133" y="138" type="curve" smooth="yes"/>
      <point x="133" y="166"/>
      <point x="112" y="196"/>
      <point x="73" y="196" type="curve" smooth="yes"/>
      <point x="32" y="196"/>
      <point x="18" y="164"/>
      <point x="18" y="130" type="curve" smooth="yes"/>
      <point x="18" y="50"/>
      <point x="96" y="-18"/>
    </contour>
  </outline>
</glyph>
<glyph name="six" format="2">
  <advance width="514"/>
  <unicode hex="0036"/>
  <outline>
    <contour>
      <point x="215" y="-18" type="curve" smooth="yes"/>
      <point x="350" y="-18"/>
      <point x="479" y="111"/>
      <point x="479" y="257" type="curve" smooth="yes"/>
      <point x="479" y="351"/>
      <point x="426" y="429"/>
      <point x="326" y="429" type="curve" smooth="yes"/>
      <point x="264" y="429"/>
      <point x="220" y="399"/>
      <point x="158" y="328" type="curve"/>
      <point x="219" y="526"/>
      <point x="304" y="658"/>
      <point x="383" y="658" type="curve" smooth="yes"/>
      <point x="450" y="658"/>
      <point x="426" y="562"/>
      <point x="493" y="562" type="curve" smooth="yes"/>
      <point x="525" y="562"/>
      <point x="552" y="584"/>
      <point x="552" y="620" type="curve" smooth="yes"/>
      <point x="552" y="670"/>
      <point x="499" y="703"/>
      <point x="425" y="703" type="curve" smooth="yes"/>
      <point x="323" y="703"/>
      <point x="247" y="641"/>
      <point x="191" y="576" type="curve" smooth="yes"/>
      <point x="110" y="482"/>
      <point x="41" y="349"/>
      <point x="41" y="211" type="curve" smooth="yes"/>
      <point x="41" y="95"/>
      <point x="89" y="-18"/>
    </contour>
    <contour>
      <point x="213" y="23" type="curve" smooth="yes"/>
      <point x="154" y="23"/>
      <point x="128" y="70"/>
      <point x="128" y="147" type="curve" smooth="yes"/>
      <point x="128" y="187"/>
      <point x="135" y="228"/>
      <point x="143" y="258" type="curve"/>
      <point x="206" y="348"/>
      <point x="260" y="379"/>
      <point x="303" y="379" type="curve" smooth="yes"/>
      <point x="344" y="379"/>
      <point x="382" y="352"/>
      <point x="382" y="284" type="curve" smooth="yes"/>
      <point x="382" y="204"/>
      <point x="330" y="23"/>
    </contour>
  </outline>
</glyph>
<glyph name="seven" format="2">
  <advance width="514"/>
  <unicode hex="0037"/>
  <outline>
    <contour>
      <point x="172" y="-18" type="curve" smooth="yes"/>
      <point x="202" y="-18"/>
      <point x="223" y="2"/>
      <point x="234" y="48" type="curve" smooth="yes"/>
      <point x="293" y="293"/>
      <point x="475" y="499"/>
      <point x="584" y="635" type="curve"/>
      <point x="597" y="684" type="line"/>
      <point x="204" y="684" type="line"/>
      <point x="107" y="493" type="line"/>
      <point x="142" y="474" type="line"/>
      <point x="224" y="606"/>
      <point x="242" y="609"/>
      <point x="369" y="609" type="curve" smooth="yes"/>
      <point x="508" y="609" type="line"/>
      <point x="412" y="499"/>
      <point x="305" y="371"/>
      <point x="217" y="240" type="curve" smooth="yes"/>
      <point x="182" y="188"/>
      <point x="124" y="103"/>
      <point x="124" y="39" type="curve" smooth="yes"/>
      <point x="124" y="14"/>
      <point x="133" y="-18"/>
    </contour>
  </outline>
</glyph>
<glyph name="eight" format="2">
  <advance width="514"/>
  <unicode hex="0038"/>
  <outline>
    <contour>
      <point x="221" y="-18" type="curve" smooth="yes"/>
      <point x="363" y="-18"/>
      <point x="461" y="70"/>
      <point x="461" y="183" type="curve" smooth="yes"/>
      <point x="461" y="256"/>
      <point x="421" y="310"/>
      <point x="363" y="355" type="curve"/>
      <point x="472" y="397"/>
      <point x="529" y="461"/>
      <point x="529" y="544" type="curve" smooth="yes"/>
      <point x="529" y="642"/>
      <point x="448" y="703"/>
      <point x="348" y="703" type="curve" smooth="yes"/>
      <point x="227" y="703"/>
      <point x="133" y="613"/>
      <point x="133" y="499" type="curve" smooth="yes"/>
      <point x="133" y="425"/>
      <point x="172" y="394"/>
      <point x="210" y="355" type="curve"/>
      <point x="102" y="321"/>
      <point x="6" y="261"/>
      <point x="6" y="155" type="curve" smooth="yes"/>
      <point x="6" y="54"/>
      <point x="92" y="-18"/>
    </contour>
    <contour>
      <point x="228" y="23" type="curve" smooth="yes"/>
      <point x="158" y="23"/>
      <point x="96" y="56"/>
      <point x="96" y="140" type="curve" smooth="yes"/>
      <point x="96" y="240"/>
      <point x="182" y="304"/>
      <point x="240" y="325" type="curve"/>
      <point x="328" y="261"/>
      <point x="377" y="225"/>
      <point x="377" y="152" type="curve" smooth="yes"/>
      <point x="377" y="65"/>
      <point x="307" y="23"/>
    </contour>
    <contour>
      <point x="333" y="381" type="curve"/>
      <point x="302" y="409"/>
      <point x="268" y="429"/>
      <point x="238" y="462" type="curve"/>
      <point x="229" y="470"/>
      <point x="209" y="498"/>
      <point x="209" y="538" type="curve" smooth="yes"/>
      <point x="209" y="611"/>
      <point x="275" y="662"/>
      <point x="341" y="662" type="curve" smooth="yes"/>
      <point x="392" y="662"/>
      <point x="449" y="632"/>
      <point x="449" y="551" type="curve" smooth="yes"/>
      <point x="449" y="470"/>
      <point x="392" y="401"/>
    </contour>
  </outline>
</glyph>
<glyph name="nine" format="2">
  <advance width="514"/>
  <unicode hex="0039"/>
  <outline>
    <contour>
      <point x="138" y="-18" type="curve" smooth="yes"/>
      <point x="236" y="-18"/>
      <point x="323" y="46"/>
      <point x="382" y="115" type="curve" smooth="yes"/>
      <point x="462" y="208"/>
      <point x="530" y="355"/>
      <point x="530" y="480" type="curve" smooth="yes"/>
      <point x="530" y="587"/>
      <point x="480" y="703"/>
      <point x="353" y="703" type="curve" smooth="yes"/>
      <point x="217" y="703"/>
      <point x="90" y="571"/>
      <point x="90" y="428" type="curve" smooth="yes"/>
      <point x="90" y="335"/>
      <point x="143" y="255"/>
      <point x="241" y="255" type="curve" smooth="yes"/>
      <point x="305" y="255"/>
      <point x="358" y="289"/>
      <point x="404" y="343" type="curve"/>
      <point x="344" y="145"/>
      <point x="259" y="28"/>
      <point x="182" y="28" type="curve" smooth="yes"/>
      <point x="111" y="28"/>
      <point x="136" y="126"/>
      <point x="68" y="126" type="curve" smooth="yes"/>
      <point x="37" y="126"/>
      <point x="9" y="105"/>
      <point x="9" y="69" type="curve" smooth="yes"/>
      <point x="9" y="18"/>
      <point x="64" y="-18"/>
    </contour>
    <contour>
      <point x="267" y="307" type="curve" smooth="yes"/>
      <point x="225" y="307"/>
      <point x="185" y="334"/>
      <point x="185" y="396" type="curve" smooth="yes"/>
      <point x="185" y="465"/>
      <point x="235" y="659"/>
      <point x="354" y="659" type="curve" smooth="yes"/>
      <point x="411" y="659"/>
      <point x="443" y="614"/>
      <point x="443" y="551" type="curve" smooth="yes"/>
      <point x="443" y="512"/>
      <point x="431" y="452"/>
      <point x="424" y="422" type="curve"/>
      <point x="357" y="332"/>
      <point x="307" y="307"/>
    </contour>
  </outline>
</glyph>
<glyph name="question" format="2">
  <advance width="441"/>
  <unicode hex="003F"/>
  <outline>
    <contour>
      <point x="192" y="196" type="line"/>
      <point x="229" y="328" type="line"/>
      <point x="239" y="326"/>
      <point x="251" y="325"/>
      <point x="263" y="325" type="curve" smooth="yes"/>
      <point x="369" y="325"/>
      <point x="452" y="408"/>
      <point x="452" y="529" type="curve" smooth="yes"/>
      <point x="452" y="639"/>
      <point x="383" y="735"/>
      <point x="278" y="735" type="curve" smooth="yes"/>
      <point x="215" y="735"/>
      <point x="164" y="700"/>
      <point x="164" y="657" type="curve" smooth="yes"/>
      <point x="164" y="630"/>
      <point x="184" y="608"/>
      <point x="210" y="608" type="curve" smooth="yes"/>
      <point x="257" y="608"/>
      <point x="264" y="681"/>
      <point x="314" y="681" type="curve" smooth="yes"/>
      <point x="348" y="681"/>
      <point x="383" y="648"/>
      <point x="383" y="574" type="curve" smooth="yes"/>
      <point x="383" y="486"/>
      <point x="333" y="413"/>
      <point x="243" y="413" type="curve" smooth="yes"/>
      <point x="228" y="413"/>
      <point x="213" y="415"/>
      <point x="203" y="417" type="curve"/>
      <point x="147" y="206" type="line"/>
    </contour>
    <contour>
      <point x="137" y="-14" type="curve" smooth="yes"/>
      <point x="172" y="-14"/>
      <point x="201" y="13"/>
      <point x="201" y="51" type="curve" smooth="yes"/>
      <point x="201" y="89"/>
      <point x="172" y="115"/>
      <point x="137" y="115" type="curve" smooth="yes"/>
      <point x="103" y="115"/>
      <point x="72" y="89"/>
      <point x="72" y="51" type="curve" smooth="yes"/>
      <point x="72" y="13"/>
      <point x="103" y="-14"/>
    </contour>
  </outline>
</glyph>
<glyph name="at" format="2">
  <advance width="812"/>
  <unicode hex="0040"/>
  <outline>
    <contour>
      <point x="370" y="-14" type="curve" smooth="yes"/>
      <point x="497" y="-14"/>
      <point x="596" y="52"/>
      <point x="657" y="96" type="curve"/>
      <point x="639" y="125" type="line"/>
      <point x="571" y="79"/>
      <point x="485" y="29"/>
      <point x="386" y="29" type="curve" smooth="yes"/>
      <point x="241" y="29"/>
      <point x="129" y="137"/>
      <point x="129" y="289" type="curve" smooth="yes"/>
      <point x="129" y="491"/>
      <point x="327" y="691"/>
      <point x="545" y="691" type="curve" smooth="yes"/>
      <point x="680" y="691"/>
      <point x="769" y="615"/>
      <point x="769" y="486" type="curve" smooth="yes"/>
      <point x="769" y="317"/>
      <point x="615" y="206"/>
      <point x="562" y="206" type="curve" smooth="yes"/>
      <point x="546" y="206"/>
      <point x="543" y="216"/>
      <point x="543" y="225" type="curve" smooth="yes"/>
      <point x="543" y="268"/>
      <point x="618" y="451"/>
      <point x="662" y="561" type="curve"/>
      <point x="594" y="561" type="line"/>
      <point x="576" y="520" type="line"/>
      <point x="568" y="546"/>
      <point x="550" y="562"/>
      <point x="517" y="562" type="curve" smooth="yes"/>
      <point x="409" y="562"/>
      <point x="270" y="396"/>
      <point x="270" y="268" type="curve" smooth="yes"/>
      <point x="270" y="202"/>
      <point x="308" y="159"/>
      <point x="359" y="159" type="curve" smooth="yes"/>
      <point x="416" y="159"/>
      <point x="459" y="214"/>
      <point x="476" y="238" type="curve"/>
      <point x="476" y="231"/>
      <point x="471" y="226"/>
      <point x="471" y="208" type="curve" smooth="yes"/>
      <point x="471" y="183"/>
      <point x="481" y="159"/>
      <point x="533" y="159" type="curve" smooth="yes"/>
      <point x="665" y="159"/>
      <point x="821" y="316"/>
      <point x="821" y="498" type="curve" smooth="yes"/>
      <point x="821" y="665"/>
      <point x="690" y="736"/>
      <point x="546" y="736" type="curve" smooth="yes"/>
      <point x="296" y="736"/>
      <point x="74" y="523"/>
      <point x="74" y="287" type="curve" smooth="yes"/>
      <point x="74" y="114"/>
      <point x="194" y="-14"/>
    </contour>
    <contour>
      <point x="372" y="199" type="curve" smooth="yes"/>
      <point x="345" y="199"/>
      <point x="342" y="223"/>
      <point x="342" y="244" type="curve" smooth="yes"/>
      <point x="342" y="307"/>
      <point x="370" y="369"/>
      <point x="409" y="435" type="curve" smooth="yes"/>
      <point x="432" y="474"/>
      <point x="467" y="528"/>
      <point x="512" y="528" type="curve" smooth="yes"/>
      <point x="535" y="528"/>
      <point x="547" y="514"/>
      <point x="547" y="487" type="curve" smooth="yes"/>
      <point x="547" y="451"/>
      <point x="525" y="394"/>
      <point x="503" y="348" type="curve" smooth="yes"/>
      <point x="477" y="294"/>
      <point x="425" y="199"/>
    </contour>
  </outline>
</glyph>
<glyph name="A" format="2">
  <advance width="689"/>
  <unicode hex="0041"/>
  <anchor x="304" y="0" name="dotbelow"/>
  <anchor x="546" y="0" name="ogonek"/>
  <anchor x="499" y="741" name="top"/>
  <outline>
    <contour>
      <point x="2" y="0" type="line"/>
      <point x="231" y="0" type="line"/>
      <point x="242" y="40" type="line"/>
      <point x="185" y="42"/>
      <point x="163" y="59"/>
      <point x="163" y="81" type="curve" smooth="yes"/>
      <point x="163" y="94"/>
      <point x="171" y="118"/>
      <point x="178" y="133" type="curve" smooth="yes"/>
      <point x="232" y="250" type="line"/>
      <point x="476" y="250" type="line"/>
      <point x="492" y="155" type="line" smooth="yes"/>
      <point x="496" y="131"/>
      <point x="502" y="103"/>
      <point x="502" y="82" type="curve" smooth="yes"/>
      <point x="502" y="57"/>
      <point x="493" y="44"/>
      <point x="419" y="40" type="curve"/>
      <point x="410" y="0" type="line"/>
      <point x="668" y="0" type="line"/>
      <point x="679" y="40" type="line"/>
      <point x="618" y="40"/>
      <point x="608" y="51"/>
      <point x="597" y="116" type="curve" smooth="yes"/>
      <point x="492" y="739" type="line"/>
      <point x="465" y="729"/>
      <point x="432" y="718"/>
      <point x="402" y="712" type="curve"/>
      <point x="126" y="147" type="line" smooth="yes"/>
      <point x="101" y="95"/>
      <point x="80" y="53"/>
      <point x="13" y="40" type="curve"/>
    </contour>
    <contour>
      <point x="254" y="296" type="line"/>
      <point x="416" y="652" type="line"/>
      <point x="468" y="296" type="line"/>
    </contour>
  </outline>
</glyph>
<glyph name="B" format="2">
  <advance width="675"/>
  <unicode hex="0042"/>
  <anchor x="248" y="0" name="dotbelow"/>
  <anchor x="492" y="741" name="top"/>
  <outline>
    <contour>
      <point x="-16" y="0" type="line"/>
      <point x="265" y="0" type="line" smooth="yes"/>
      <point x="358" y="0"/>
      <point x="434" y="10"/>
      <point x="482" y="27" type="curve" smooth="yes"/>
      <point x="560" y="55"/>
      <point x="625" y="127"/>
      <point x="625" y="215" type="curve" smooth="yes"/>
      <point x="625" y="295"/>
      <point x="571" y="358"/>
      <point x="470" y="383" type="curve"/>
      <point x="574" y="404"/>
      <point x="683" y="454"/>
      <point x="683" y="559" type="curve" smooth="yes"/>
      <point x="683" y="635"/>
      <point x="625" y="721"/>
      <point x="400" y="721" type="curve" smooth="yes"/>
      <point x="162" y="721" type="line"/>
      <point x="151" y="681" type="line"/>
      <point x="227" y="681"/>
      <point x="239" y="668"/>
      <point x="239" y="639" type="curve" smooth="yes"/>
      <point x="239" y="630"/>
      <point x="238" y="626"/>
      <point x="231" y="600" type="curve" smooth="yes"/>
      <point x="101" y="114" type="line" smooth="yes"/>
      <point x="85" y="53"/>
      <point x="64" y="43"/>
      <point x="-5" y="40" type="curve"/>
    </contour>
    <contour>
      <point x="282" y="40" type="curve" smooth="yes"/>
      <point x="212" y="40"/>
      <point x="194" y="53"/>
      <point x="194" y="74" type="curve" smooth="yes"/>
      <point x="194" y="82"/>
      <point x="197" y="99"/>
      <point x="201" y="114" type="curve" smooth="yes"/>
      <point x="268" y="362" type="line"/>
      <point x="359" y="362" type="line" smooth="yes"/>
      <point x="443" y="362"/>
      <point x="523" y="358"/>
      <point x="523" y="254" type="curve" smooth="yes"/>
      <point x="523" y="186"/>
      <point x="487" y="120"/>
      <point x="459" y="92" type="curve" smooth="yes"/>
      <point x="420" y="52"/>
      <point x="350" y="40"/>
    </contour>
    <contour>
      <point x="279" y="403" type="curve"/>
      <point x="328" y="584" type="line" smooth="yes"/>
      <point x="348" y="658"/>
      <point x="354" y="679"/>
      <point x="436" y="679" type="curve" smooth="yes"/>
      <point x="521" y="679"/>
      <point x="578" y="656"/>
      <point x="578" y="579" type="curve" smooth="yes"/>
      <point x="578" y="505"/>
      <point x="526" y="426"/>
      <point x="437" y="410" type="curve" smooth="yes"/>
      <point x="397" y="403"/>
      <point x="333" y="403"/>
    </contour>
  </outline>
</glyph>
<glyph name="C" format="2">
  <advance width="675"/>
  <unicode hex="0043"/>
  <anchor x="302" y="0" name="attachcedilla"/>
  <anchor x="508" y="741" name="top"/>
  <outline>
    <contour>
      <point x="333" y="-18" type="curve" smooth="yes"/>
      <point x="472" y="-18"/>
      <point x="573" y="74"/>
      <point x="644" y="199" type="curve"/>
      <point x="610" y="221" type="line"/>
      <point x="556" y="136"/>
      <point x="481" y="54"/>
      <point x="363" y="54" type="curve" smooth="yes"/>
      <point x="239" y="54"/>
      <point x="175" y="146"/>
      <point x="175" y="276" type="curve" smooth="yes"/>
      <point x="175" y="458"/>
      <point x="302" y="699"/>
      <point x="468" y="699" type="curve" smooth="yes"/>
      <point x="565" y="699"/>
      <point x="619" y="616"/>
      <point x="657" y="517" type="curve"/>
      <point x="699" y="523" type="line"/>
      <point x="671" y="729" type="line"/>
      <point x="649" y="718"/>
      <point x="624" y="703"/>
      <point x="603" y="703" type="curve" smooth="yes"/>
      <point x="571" y="703"/>
      <point x="534" y="739"/>
      <point x="460" y="739" type="curve" smooth="yes"/>
      <point x="263" y="739"/>
      <point x="65" y="488"/>
      <point x="65" y="267" type="curve" smooth="yes"/>
      <point x="65" y="104"/>
      <point x="172" y="-18"/>
    </contour>
  </outline>
</glyph>
<glyph name="D" format="2">
  <advance width="716"/>
  <unicode hex="0044"/>
  <anchor x="262" y="0" name="commaaccentbelow"/>
  <anchor x="268" y="0" name="dotbelow"/>
  <anchor x="506" y="741" name="top"/>
  <outline>
    <contour>
      <point x="-16" y="0" type="line"/>
      <point x="272" y="0" type="line" smooth="yes"/>
      <point x="392" y="0"/>
      <point x="485" y="42"/>
      <point x="551" y="96" type="curve" smooth="yes"/>
      <point x="633" y="163"/>
      <point x="714" y="282"/>
      <point x="714" y="434" type="curve" smooth="yes"/>
      <point x="714" y="553"/>
      <point x="664" y="625"/>
      <point x="604" y="669" type="curve" smooth="yes"/>
      <point x="548" y="710"/>
      <point x="490" y="721"/>
      <point x="410" y="721" type="curve" smooth="yes"/>
      <point x="162" y="721" type="line"/>
      <point x="151" y="681" type="line"/>
      <point x="227" y="681"/>
      <point x="239" y="668"/>
      <point x="239" y="639" type="curve" smooth="yes"/>
      <point x="239" y="630"/>
      <point x="238" y="626"/>
      <point x="231" y="600" type="curve" smooth="yes"/>
      <point x="101" y="114" type="line" smooth="yes"/>
      <point x="85" y="53"/>
      <point x="64" y="43"/>
      <point x="-5" y="40" type="curve"/>
    </contour>
    <contour>
      <point x="262" y="40" type="curve" smooth="yes"/>
      <point x="195" y="40"/>
      <point x="192" y="56"/>
      <point x="192" y="68" type="curve" smooth="yes"/>
      <point x="192" y="78"/>
      <point x="194" y="88"/>
      <point x="201" y="114" type="curve" smooth="yes"/>
      <point x="328" y="584" type="line" smooth="yes"/>
      <point x="347" y="655"/>
      <point x="354" y="680"/>
      <point x="426" y="680" type="curve" smooth="yes"/>
      <point x="533" y="680"/>
      <point x="608" y="626"/>
      <point x="608" y="499" type="curve" smooth="yes"/>
      <point x="608" y="412"/>
      <point x="573" y="235"/>
      <point x="490" y="137" type="curve" smooth="yes"/>
      <point x="428" y="64"/>
      <point x="343" y="40"/>
    </contour>
  </outline>
</glyph>
<glyph name="E" format="2">
  <advance width="689"/>
  <unicode hex="0045"/>
  <anchor x="263" y="0" name="attachcedilla"/>
  <anchor x="268" y="0" name="dotbelow"/>
  <anchor x="431" y="0" name="ogonek"/>
  <anchor x="482" y="741" name="top"/>
  <outline>
    <contour>
      <point x="-16" y="0" type="line"/>
      <point x="550" y="0" type="line"/>
      <point x="635" y="174" type="line"/>
      <point x="604" y="194" type="line"/>
      <point x="508" y="91"/>
      <point x="429" y="43"/>
      <point x="281" y="43" type="curve" smooth="yes"/>
      <point x="213" y="43"/>
      <point x="194" y="53"/>
      <point x="194" y="74" type="curve" smooth="yes"/>
      <point x="194" y="82"/>
      <point x="197" y="99"/>
      <point x="201" y="114" type="curve" smooth="yes"/>
      <point x="266" y="356" type="line"/>
      <point x="321" y="353"/>
      <point x="376" y="355"/>
      <point x="406" y="321" type="curve" smooth="yes"/>
      <point x="420" y="305"/>
      <point x="422" y="289"/>
      <point x="422" y="270" type="curve" smooth="yes"/>
      <point x="422" y="250"/>
      <point x="420" y="232"/>
      <point x="418" y="217" type="curve"/>
      <point x="455" y="217" type="line"/>
      <point x="531" y="502" type="line"/>
      <point x="494" y="502" type="line"/>
      <point x="442" y="401"/>
      <point x="409" y="395"/>
      <point x="277" y="395" type="curve"/>
      <point x="328" y="584" type="line" smooth="yes"/>
      <point x="349" y="661"/>
      <point x="354" y="679"/>
      <point x="431" y="679" type="curve" smooth="yes"/>
      <point x="565" y="679"/>
      <point x="618" y="624"/>
      <point x="659" y="529" type="curve"/>
      <point x="696" y="537" type="line"/>
      <point x="667" y="721" type="line"/>
      <point x="162" y="721" type="line"/>
      <point x="151" y="681" type="line"/>
      <point x="227" y="681"/>
      <point x="239" y="668"/>
      <point x="239" y="639" type="curve" smooth="yes"/>
      <point x="239" y="630"/>
      <point x="238" y="626"/>
      <point x="231" y="600" type="curve" smooth="yes"/>
      <point x="101" y="114" type="line" smooth="yes"/>
      <point x="85" y="53"/>
      <point x="64" y="43"/>
      <point x="-5" y="40" type="curve"/>
    </contour>
  </outline>
</glyph>
<glyph name="F" format="2">
  <advance width="632"/>
  <unicode hex="0046"/>
  <anchor x="482" y="741" name="top"/>
  <outline>
    <contour>
      <point x="-16" y="0" type="line"/>
      <point x="279" y="0" type="line"/>
      <point x="290" y="40" type="line"/>
      <point x="218" y="40"/>
      <point x="194" y="53"/>
      <point x="194" y="74" type="curve" smooth="yes"/>
      <point x="194" y="83"/>
      <point x="198" y="103"/>
      <point x="201" y="114" type="curve" smooth="yes"/>
      <point x="266" y="351" type="line"/>
      <point x="321" y="348"/>
      <point x="381" y="344"/>
      <point x="402" y="321" type="curve" smooth="yes"/>
      <point x="414" y="308"/>
      <point x="416" y="285"/>
      <point x="416" y="260" type="curve" smooth="yes"/>
      <point x="416" y="242"/>
      <point x="415" y="227"/>
      <point x="414" y="214" type="curve"/>
      <point x="455" y="214" type="line"/>
      <point x="531" y="502" type="line"/>
      <point x="494" y="502" type="line"/>
      <point x="442" y="401"/>
      <point x="409" y="395"/>
      <point x="277" y="395" type="curve"/>
      <point x="328" y="584" type="line" smooth="yes"/>
      <point x="348" y="659"/>
      <point x="353" y="676"/>
      <point x="432" y="676" type="curve" smooth="yes"/>
      <point x="565" y="676"/>
      <point x="619" y="627"/>
      <point x="663" y="516" type="curve"/>
      <point x="699" y="526" type="line"/>
      <point x="671" y="721" type="line"/>
      <point x="162" y="721" type="line"/>
      <point x="151" y="681" type="line"/>
      <point x="227" y="681"/>
      <point x="239" y="668"/>
      <point x="239" y="639" type="curve" smooth="yes"/>
      <point x="239" y="630"/>
      <point x="238" y="626"/>
      <point x="231" y="600" type="curve" smooth="yes"/>
      <point x="101" y="114" type="line" smooth="yes"/>
      <point x="85" y="53"/>
      <point x="64" y="43"/>
      <point x="-5" y="40" type="curve"/>
    </contour>
  </outline>
</glyph>
<glyph name="G" format="2">
  <advance width="723"/>
  <unicode hex="0047"/>
  <anchor x="310" y="0" name="commaaccentbelow"/>
  <anchor x="516" y="741" name="top"/>
  <outline>
    <contour>
      <point x="316" y="-18" type="curve" smooth="yes"/>
      <point x="382" y="-18"/>
      <point x="413" y="4"/>
      <point x="466" y="15" type="curve" smooth="yes"/>
      <point x="494" y="21"/>
      <point x="522" y="21"/>
      <point x="550" y="22" type="curve"/>
      <point x="588" y="162" type="line" smooth="yes"/>
      <point x="613" y="254"/>
      <point x="622" y="255"/>
      <point x="690" y="259" type="curve"/>
      <point x="701" y="299" type="line"/>
      <point x="434" y="299" type="line"/>
      <point x="423" y="259" type="line"/>
      <point x="493" y="259"/>
      <point x="509" y="246"/>
      <point x="509" y="223" type="curve" smooth="yes"/>
      <point x="509" y="209"/>
      <point x="503" y="186"/>
      <point x="500" y="174" type="curve" smooth="yes"/>
      <point x="475" y="74"/>
      <point x="413" y="22"/>
      <point x="327" y="22" type="curve" smooth="yes"/>
      <point x="220" y="22"/>
      <point x="174" y="102"/>
      <point x="174" y="226" type="curve" smooth="yes"/>
      <point x="174" y="427"/>
      <point x="294" y="699"/>
      <point x="464" y="699" type="curve" smooth="yes"/>
      <point x="560" y="699"/>
      <point x="609" y="613"/>
      <point x="645" y="517" type="curve"/>
      <point x="686" y="522" type="line"/>
      <point x="662" y="726" type="line"/>
      <point x="641" y="717"/>
      <point x="617" y="704"/>
      <point x="598" y="704" type="curve" smooth="yes"/>
      <point x="566" y="704"/>
      <point x="521" y="739"/>
      <point x="449" y="739" type="curve" smooth="yes"/>
      <point x="255" y="739"/>
      <point x="69" y="486"/>
      <point x="69" y="263" type="curve" smooth="yes"/>
      <point x="69" y="108"/>
      <point x="158" y="-18"/>
    </contour>
  </outline>
</glyph>
<glyph name="H" format="2">
  <advance width="762"/>
  <unicode hex="0048"/>
  <anchor x="105" y="0" name="attachcedilla"/>
  <anchor x="314" y="0" name="dotbelow"/>
  <anchor x="557" y="741" name="top"/>
  <outline>
    <contour>
      <point x="-16" y="0" type="line"/>
      <point x="272" y="0" type="line"/>
      <point x="283" y="40" type="line"/>
      <point x="212" y="40"/>
      <point x="194" y="53"/>
      <point x="194" y="74" type="curve" smooth="yes"/>
      <point x="194" y="82"/>
      <point x="197" y="99"/>
      <point x="201" y="114" type="curve" smooth="yes"/>
      <point x="265" y="350" type="line"/>
      <point x="559" y="350" type="line"/>
      <point x="495" y="114" type="line" smooth="yes"/>
      <point x="479" y="53"/>
      <point x="458" y="43"/>
      <point x="389" y="40" type="curve"/>
      <point x="378" y="0" type="line"/>
      <point x="667" y="0" type="line"/>
      <point x="678" y="40" type="line"/>
      <point x="603" y="40"/>
      <point x="588" y="53"/>
      <point x="588" y="78" type="curve" smooth="yes"/>
      <point x="588" y="84"/>
      <point x="589" y="88"/>
      <point x="596" y="114" type="curve" smooth="yes"/>
      <point x="722" y="584" type="line" smooth="yes"/>
      <point x="745" y="670"/>
      <point x="756" y="677"/>
      <point x="835" y="681" type="curve"/>
      <point x="845" y="721" type="line"/>
      <point x="557" y="721" type="line"/>
      <point x="546" y="681" type="line"/>
      <point x="616" y="681"/>
      <point x="634" y="668"/>
      <point x="634" y="645" type="curve" smooth="yes"/>
      <point x="634" y="632"/>
      <point x="629" y="612"/>
      <point x="626" y="600" type="curve" smooth="yes"/>
      <point x="571" y="397" type="line"/>
      <point x="277" y="397" type="line"/>
      <point x="328" y="584" type="line" smooth="yes"/>
      <point x="351" y="669"/>
      <point x="361" y="677"/>
      <point x="440" y="681" type="curve"/>
      <point x="451" y="721" type="line"/>
      <point x="162" y="721" type="line"/>
      <point x="151" y="681" type="line"/>
      <point x="227" y="681"/>
      <point x="239" y="668"/>
      <point x="239" y="639" type="curve" smooth="yes"/>
      <point x="239" y="630"/>
      <point x="238" y="626"/>
      <point x="231" y="600" type="curve" smooth="yes"/>
      <point x="101" y="114" type="line" smooth="yes"/>
      <point x="85" y="53"/>
      <point x="64" y="43"/>
      <point x="-5" y="40" type="curve"/>
    </contour>
  </outline>
</glyph>
<glyph name="I" format="2">
  <advance width="368"/>
  <unicode hex="0049"/>
  <anchor x="110" y="0" name="dotbelow"/>
  <anchor x="129" y="0" name="ogonek"/>
  <anchor x="363" y="741" name="top"/>
  <outline>
    <contour>
      <point x="-16" y="0" type="line"/>
      <point x="272" y="0" type="line"/>
      <point x="283" y="40" type="line"/>
      <point x="212" y="40"/>
      <point x="194" y="53"/>
      <point x="194" y="74" type="curve" smooth="yes"/>
      <point x="194" y="82"/>
      <point x="197" y="99"/>
      <point x="201" y="114" type="curve" smooth="yes"/>
      <point x="328" y="584" type="line" smooth="yes"/>
      <point x="351" y="670"/>
      <point x="361" y="677"/>
      <point x="440" y="681" type="curve"/>
      <point x="451" y="721" type="line"/>
      <point x="162" y="721" type="line"/>
      <point x="151" y="681" type="line"/>
      <point x="227" y="681"/>
      <point x="239" y="668"/>
      <point x="239" y="639" type="curve" smooth="yes"/>
      <point x="239" y="630"/>
      <point x="238" y="626"/>
      <point x="231" y="600" type="curve" smooth="yes"/>
      <point x="101" y="114" type="line" smooth="yes"/>
      <point x="85" y="53"/>
      <point x="64" y="43"/>
      <point x="-5" y="40" type="curve"/>
    </contour>
  </outline>
</glyph>
<glyph name="J" format="2">
  <advance width="334"/>
  <unicode hex="004A"/>
  <anchor x="352" y="741" name="top"/>
  <outline>
    <contour>
      <point x="-50" y="-185" type="curve" smooth="yes"/>
      <point x="-3" y="-185"/>
      <point x="47" y="-154"/>
      <point x="83" y="-115" type="curve" smooth="yes"/>
      <point x="135" y="-59"/>
      <point x="163" y="15"/>
      <point x="190" y="114" type="curve" smooth="yes"/>
      <point x="317" y="584" type="line" smooth="yes"/>
      <point x="340" y="670"/>
      <point x="350" y="677"/>
      <point x="429" y="681" type="curve"/>
      <point x="440" y="721" type="line"/>
      <point x="151" y="721" type="line"/>
      <point x="141" y="681" type="line"/>
      <point x="211" y="681"/>
      <point x="228" y="669"/>
      <point x="228" y="642" type="curve" smooth="yes"/>
      <point x="228" y="631"/>
      <point x="225" y="615"/>
      <point x="221" y="600" type="curve" smooth="yes"/>
      <point x="90" y="114" type="line" smooth="yes"/>
      <point x="61" y="5"/>
      <point x="35" y="-118"/>
      <point x="2" y="-118" type="curve" smooth="yes"/>
      <point x="-20" y="-118"/>
      <point x="-13" y="-62"/>
      <point x="-65" y="-62" type="curve" smooth="yes"/>
      <point x="-101" y="-62"/>
      <point x="-125" y="-90"/>
      <point x="-125" y="-121" type="curve" smooth="yes"/>
      <point x="-125" y="-155"/>
      <point x="-96" y="-185"/>
    </contour>
  </outline>
</glyph>
<glyph name="K" format="2">
  <advance width="714"/>
  <unicode hex="004B"/>
  <anchor x="317" y="0" name="commaaccentbelow"/>
  <anchor x="297" y="0" name="dotbelow"/>
  <anchor x="517" y="741" name="top"/>
  <outline>
    <contour>
      <point x="-16" y="0" type="line"/>
      <point x="272" y="0" type="line"/>
      <point x="283" y="40" type="line"/>
      <point x="212" y="40"/>
      <point x="194" y="53"/>
      <point x="194" y="74" type="curve" smooth="yes"/>
      <point x="194" y="82"/>
      <point x="197" y="99"/>
      <point x="201" y="114" type="curve" smooth="yes"/>
      <point x="244" y="274" type="line"/>
      <point x="365" y="384" type="line"/>
      <point x="462" y="122" type="line" smooth="yes"/>
      <point x="468" y="106"/>
      <point x="474" y="87"/>
      <point x="474" y="74" type="curve" smooth="yes"/>
      <point x="474" y="50"/>
      <point x="453" y="42"/>
      <point x="383" y="40" type="curve"/>
      <point x="373" y="0" type="line"/>
      <point x="658" y="0" type="line"/>
      <point x="669" y="40" type="line"/>
      <point x="603" y="42"/>
      <point x="582" y="66"/>
      <point x="563" y="117" type="curve" smooth="yes"/>
      <point x="440" y="446" type="line"/>
      <point x="562" y="556" type="line" smooth="yes"/>
      <point x="622" y="610"/>
      <point x="677" y="667"/>
      <point x="768" y="681" type="curve"/>
      <point x="778" y="721" type="line"/>
      <point x="533" y="721" type="line"/>
      <point x="522" y="681" type="line"/>
      <point x="584" y="681"/>
      <point x="591" y="670"/>
      <point x="591" y="659" type="curve" smooth="yes"/>
      <point x="591" y="642"/>
      <point x="573" y="624"/>
      <point x="555" y="608" type="curve" smooth="yes"/>
      <point x="266" y="352" type="line"/>
      <point x="328" y="584" type="line" smooth="yes"/>
      <point x="351" y="670"/>
      <point x="361" y="677"/>
      <point x="440" y="681" type="curve"/>
      <point x="451" y="721" type="line"/>
      <point x="162" y="721" type="line"/>
      <point x="151" y="681" type="line"/>
      <point x="227" y="681"/>
      <point x="239" y="668"/>
      <point x="239" y="639" type="curve" smooth="yes"/>
      <point x="239" y="630"/>
      <point x="238" y="626"/>
      <point x="231" y="600" type="curve" smooth="yes"/>
      <point x="101" y="114" type="line" smooth="yes"/>
      <point x="85" y="53"/>
      <point x="64" y="43"/>
      <point x="-5" y="40" type="curve"/>
    </contour>
  </outline>
</glyph>
<glyph name="L" format="2">
  <advance width="622"/>
  <unicode hex="004C"/>
  <anchor x="251" y="0" name="attachcedilla"/>
  <anchor x="604" y="735" name="caroncombalt"/>
  <anchor x="270" y="0" name="commaaccentbelow"/>
  <anchor x="249" y="0" name="dotbelow"/>
  <anchor x="462" y="320" name="ldot"/>
  <anchor x="362" y="741" name="top"/>
  <outline>
    <contour>
      <point x="-16" y="0" type="line"/>
      <point x="518" y="0" type="line"/>
      <point x="606" y="177" type="line"/>
      <point x="575" y="197" type="line"/>
      <point x="475" y="95"/>
      <point x="413" y="43"/>
      <point x="266" y="43" type="curve" smooth="yes"/>
      <point x="196" y="43"/>
      <point x="194" y="55"/>
      <point x="194" y="68" type="curve" smooth="yes"/>
      <point x="194" y="85"/>
      <point x="197" y="99"/>
      <point x="201" y="114" type="curve" smooth="yes"/>
      <point x="328" y="584" type="line" smooth="yes"/>
      <point x="351" y="670"/>
      <point x="361" y="677"/>
      <point x="440" y="681" type="curve"/>
      <point x="451" y="721" type="line"/>
      <point x="162" y="721" type="line"/>
      <point x="151" y="681" type="line"/>
      <point x="227" y="681"/>
      <point x="239" y="668"/>
      <point x="239" y="639" type="curve" smooth="yes"/>
      <point x="239" y="630"/>
      <point x="238" y="626"/>
      <point x="231" y="600" type="curve" smooth="yes"/>
      <point x="101" y="114" type="line" smooth="yes"/>
      <point x="85" y="53"/>
      <point x="64" y="43"/>
      <point x="-5" y="40" type="curve"/>
    </contour>
  </outline>
</glyph>
<glyph name="M" format="2">
  <advance width="870"/>
  <unicode hex="004D"/>
  <anchor x="333" y="0" name="dotbelow"/>
  <anchor x="597" y="741" name="top"/>
  <outline>
    <contour>
      <point x="-16" y="0" type="line"/>
      <point x="218" y="0" type="line"/>
      <point x="229" y="40" type="line"/>
      <point x="179" y="50"/>
      <point x="167" y="51"/>
      <point x="156" y="65" type="curve" smooth="yes"/>
      <point x="151" y="71"/>
      <point x="148" y="77"/>
      <point x="148" y="93" type="curve" smooth="yes"/>
      <point x="148" y="106"/>
      <point x="150" y="120"/>
      <point x="158" y="150" type="curve" smooth="yes"/>
      <point x="285" y="629" type="line"/>
      <point x="333" y="0" type="line"/>
      <point x="362" y="0" type="line"/>
      <point x="746" y="649" type="line"/>
      <point x="602" y="114" type="line" smooth="yes"/>
      <point x="586" y="53"/>
      <point x="565" y="43"/>
      <point x="496" y="40" type="curve"/>
      <point x="485" y="0" type="line"/>
      <point x="774" y="0" type="line"/>
      <point x="785" y="40" type="line"/>
      <point x="715" y="40"/>
      <point x="695" y="51"/>
      <point x="695" y="78" type="curve" smooth="yes"/>
      <point x="695" y="84"/>
      <point x="696" y="88"/>
      <point x="703" y="114" type="curve" smooth="yes"/>
      <point x="830" y="584" type="line" smooth="yes"/>
      <point x="853" y="670"/>
      <point x="864" y="677"/>
      <point x="943" y="681" type="curve"/>
      <point x="954" y="721" type="line"/>
      <point x="738" y="721" type="line"/>
      <point x="414" y="175" type="line"/>
      <point x="374" y="721" type="line"/>
      <point x="162" y="721" type="line"/>
      <point x="151" y="681" type="line"/>
      <point x="227" y="681"/>
      <point x="239" y="668"/>
      <point x="239" y="639" type="curve" smooth="yes"/>
      <point x="239" y="630"/>
      <point x="238" y="626"/>
      <point x="231" y="600" type="curve" smooth="yes"/>
      <point x="110" y="150" type="line" smooth="yes"/>
      <point x="94" y="90"/>
      <point x="79" y="57"/>
      <point x="-5" y="40" type="curve"/>
    </contour>
  </outline>
</glyph>
<glyph name="N" format="2">
  <advance width="734"/>
  <unicode hex="004E"/>
  <anchor x="311" y="0" name="attachcedilla"/>
  <anchor x="323" y="0" name="commaaccentbelow"/>
  <anchor x="305" y="0" name="dotbelow"/>
  <anchor x="531" y="741" name="top"/>
  <outline>
    <contour>
      <point x="523" y="-18" type="line"/>
      <point x="555" y="-18" type="line"/>
      <point x="712" y="571" type="line" smooth="yes"/>
      <point x="736" y="662"/>
      <point x="764" y="677"/>
      <point x="829" y="681" type="curve"/>
      <point x="839" y="721" type="line"/>
      <point x="605" y="721" type="line"/>
      <point x="595" y="681" type="line"/>
      <point x="647" y="675"/>
      <point x="660" y="664"/>
      <point x="668" y="654" type="curve" smooth="yes"/>
      <point x="673" y="648"/>
      <point x="675" y="643"/>
      <point x="675" y="631" type="curve" smooth="yes"/>
      <point x="675" y="616"/>
      <point x="672" y="598"/>
      <point x="665" y="571" type="curve" smooth="yes"/>
      <point x="556" y="159" type="line"/>
      <point x="330" y="721" type="line"/>
      <point x="162" y="721" type="line"/>
      <point x="151" y="681" type="line"/>
      <point x="222" y="680"/>
      <point x="235" y="662"/>
      <point x="243" y="645" type="curve"/>
      <point x="110" y="150" type="line" smooth="yes"/>
      <point x="94" y="90"/>
      <point x="79" y="57"/>
      <point x="-5" y="40" type="curve"/>
      <point x="-16" y="0" type="line"/>
      <point x="231" y="0" type="line"/>
      <point x="242" y="40" type="line"/>
      <point x="192" y="42"/>
      <point x="172" y="52"/>
      <point x="161" y="65" type="curve" smooth="yes"/>
      <point x="155" y="72"/>
      <point x="151" y="81"/>
      <point x="151" y="100" type="curve" smooth="yes"/>
      <point x="151" y="113"/>
      <point x="153" y="131"/>
      <point x="158" y="150" type="curve" smooth="yes"/>
      <point x="278" y="599" type="line"/>
    </contour>
  </outline>
</glyph>
<glyph name="O" format="2">
  <advance width="706"/>
  <unicode hex="004F"/>
  <anchor x="662" y="592" name="attachhorn"/>
  <anchor x="292" y="0" name="dotbelow"/>
  <anchor x="379" y="0" name="ogonek"/>
  <anchor x="492" y="741" name="top"/>
  <outline>
    <contour>
      <point x="319" y="-18" type="curve" smooth="yes"/>
      <point x="530" y="-18"/>
      <point x="707" y="238"/>
      <point x="707" y="439" type="curve" smooth="yes"/>
      <point x="707" y="587"/>
      <point x="612" y="739"/>
      <point x="455" y="739" type="curve" smooth="yes"/>
      <point x="258" y="739"/>
      <point x="66" y="501"/>
      <point x="66" y="276" type="curve" smooth="yes"/>
      <point x="66" y="109"/>
      <point x="171" y="-18"/>
    </contour>
    <contour>
      <point x="314" y="22" type="curve" smooth="yes"/>
      <point x="213" y="22"/>
      <point x="166" y="104"/>
      <point x="166" y="217" type="curve" smooth="yes"/>
      <point x="166" y="356"/>
      <point x="238" y="560"/>
      <point x="315" y="640" type="curve" smooth="yes"/>
      <point x="355" y="682"/>
      <point x="407" y="699"/>
      <point x="454" y="699" type="curve" smooth="yes"/>
      <point x="549" y="699"/>
      <point x="603" y="631"/>
      <point x="603" y="490" type="curve" smooth="yes"/>
      <point x="603" y="292"/>
      <point x="496" y="22"/>
    </contour>
  </outline>
</glyph>
<glyph name="P" format="2">
  <advance width="613"/>
  <unicode hex="0050"/>
  <anchor x="451" y="741" name="top"/>
  <outline>
    <contour>
      <point x="-16" y="0" type="line"/>
      <point x="279" y="0" type="line"/>
      <point x="290" y="40" type="line"/>
      <point x="211" y="40"/>
      <point x="195" y="51"/>
      <point x="195" y="72" type="curve" smooth="yes"/>
      <point x="195" y="83"/>
      <point x="199" y="107"/>
      <point x="201" y="114" type="curve" smooth="yes"/>
      <point x="261" y="333" type="line"/>
      <point x="269" y="332"/>
      <point x="290" y="332"/>
      <point x="302" y="332" type="curve" smooth="yes"/>
      <point x="375" y="332"/>
      <point x="449" y="334"/>
      <point x="506" y="354" type="curve" smooth="yes"/>
      <point x="586" y="382"/>
      <point x="663" y="456"/>
      <point x="663" y="554" type="curve" smooth="yes"/>
      <point x="663" y="648"/>
      <point x="591" y="721"/>
      <point x="430" y="721" type="curve" smooth="yes"/>
      <point x="162" y="721" type="line"/>
      <point x="151" y="681" type="line"/>
      <point x="227" y="681"/>
      <point x="239" y="668"/>
      <point x="239" y="639" type="curve" smooth="yes"/>
      <point x="239" y="630"/>
      <point x="238" y="626"/>
      <point x="231" y="600" type="curve" smooth="yes"/>
      <point x="101" y="114" type="line" smooth="yes"/>
      <point x="85" y="53"/>
      <point x="64" y="43"/>
      <point x="-5" y="40" type="curve"/>
    </contour>
    <contour>
      <point x="271" y="375" type="curve"/>
      <point x="328" y="584" type="line" smooth="yes"/>
      <point x="351" y="668"/>
      <point x="355" y="681"/>
      <point x="419" y="681" type="curve" smooth="yes"/>
      <point x="530" y="681"/>
      <point x="556" y="642"/>
      <point x="556" y="582" type="curve" smooth="yes"/>
      <point x="556" y="509"/>
      <point x="518" y="433"/>
      <point x="476" y="403" type="curve" smooth="yes"/>
      <point x="441" y="378"/>
      <point x="386" y="375"/>
    </contour>
  </outline>
</glyph>
<glyph name="Q" format="2">
  <advance width="699"/>
  <unicode hex="0051"/>
  <anchor x="492" y="741" name="top"/>
  <outline>
    <contour>
      <point x="455" y="-126" type="curve" smooth="yes"/>
      <point x="514" y="-126"/>
      <point x="565" y="-86"/>
      <point x="595" y="-15" type="curve"/>
      <point x="563" y="0" type="line"/>
      <point x="548" y="-27"/>
      <point x="523" y="-61"/>
      <point x="497" y="-61" type="curve" smooth="yes"/>
      <point x="469" y="-61"/>
      <point x="452" y="-13"/>
      <point x="443" y="13" type="curve"/>
      <point x="589" y="91"/>
      <point x="703" y="281"/>
      <point x="703" y="440" type="curve" smooth="yes"/>
      <point x="703" y="582"/>
      <point x="611" y="739"/>
      <point x="449" y="739" type="curve" smooth="yes"/>
      <point x="252" y="739"/>
      <point x="63" y="505"/>
      <point x="63" y="283" type="curve" smooth="yes"/>
      <point x="63" y="114"/>
      <point x="172" y="-18"/>
      <point x="303" y="-18" type="curve" smooth="yes"/>
      <point x="314" y="-18"/>
      <point x="326" y="-17"/>
      <point x="346" y="-15" type="curve"/>
      <point x="354" y="-84"/>
      <point x="395" y="-126"/>
    </contour>
    <contour>
      <point x="315" y="19" type="curve" smooth="yes"/>
      <point x="238" y="19"/>
      <point x="202" y="67"/>
      <point x="202" y="113" type="curve" smooth="yes"/>
      <point x="202" y="160"/>
      <point x="240" y="198"/>
      <point x="282" y="198" type="curve" smooth="yes"/>
      <point x="320" y="198"/>
      <point x="355" y="168"/>
      <point x="355" y="102" type="curve" smooth="yes"/>
      <point x="355" y="75"/>
      <point x="349" y="42"/>
      <point x="346" y="21" type="curve"/>
      <point x="334" y="19"/>
      <point x="328" y="19"/>
    </contour>
    <contour>
      <point x="431" y="54" type="curve"/>
      <point x="411" y="201"/>
      <point x="346" y="238"/>
      <point x="284" y="238" type="curve" smooth="yes"/>
      <point x="230" y="238"/>
      <point x="195" y="209"/>
      <point x="173" y="151" type="curve"/>
      <point x="169" y="170"/>
      <point x="164" y="187"/>
      <point x="164" y="227" type="curve" smooth="yes"/>
      <point x="164" y="378"/>
      <point x="237" y="566"/>
      <point x="309" y="640" type="curve" smooth="yes"/>
      <point x="349" y="682"/>
      <point x="402" y="699"/>
      <point x="449" y="699" type="curve" smooth="yes"/>
      <point x="542" y="699"/>
      <point x="598" y="631"/>
      <point x="598" y="494" type="curve" smooth="yes"/>
      <point x="598" y="341"/>
      <point x="528" y="150"/>
    </contour>
  </outline>
</glyph>
<glyph name="R" format="2">
  <advance width="661"/>
  <unicode hex="0052"/>
  <anchor x="296" y="0" name="commaaccentbelow"/>
  <anchor x="284" y="0" name="dotbelow"/>
  <anchor x="481" y="741" name="top"/>
  <outline>
    <contour>
      <point x="-16" y="0" type="line"/>
      <point x="265" y="0" type="line"/>
      <point x="276" y="40" type="line"/>
      <point x="204" y="40"/>
      <point x="195" y="55"/>
      <point x="195" y="75" type="curve" smooth="yes"/>
      <point x="195" y="87"/>
      <point x="198" y="103"/>
      <point x="201" y="114" type="curve" smooth="yes"/>
      <point x="265" y="349" type="line"/>
      <point x="339" y="349" type="line"/>
      <point x="437" y="0" type="line"/>
      <point x="610" y="0" type="line"/>
      <point x="621" y="39" type="line"/>
      <point x="537" y="42"/>
      <point x="524" y="52"/>
      <point x="510" y="102" type="curve" smooth="yes"/>
      <point x="437" y="355" type="line"/>
      <point x="549" y="356"/>
      <point x="677" y="432"/>
      <point x="677" y="557" type="curve" smooth="yes"/>
      <point x="677" y="657"/>
      <point x="592" y="721"/>
      <point x="430" y="721" type="curve" smooth="yes"/>
      <point x="162" y="721" type="line"/>
      <point x="151" y="681" type="line"/>
      <point x="227" y="681"/>
      <point x="239" y="668"/>
      <point x="239" y="639" type="curve" smooth="yes"/>
      <point x="239" y="630"/>
      <point x="238" y="626"/>
      <point x="231" y="600" type="curve" smooth="yes"/>
      <point x="101" y="114" type="line" smooth="yes"/>
      <point x="85" y="53"/>
      <point x="64" y="43"/>
      <point x="-5" y="40" type="curve"/>
    </contour>
    <contour>
      <point x="275" y="388" type="curve"/>
      <point x="328" y="584" type="line" smooth="yes"/>
      <point x="349" y="661"/>
      <point x="355" y="681"/>
      <point x="434" y="681" type="curve" smooth="yes"/>
      <point x="541" y="681"/>
      <point x="570" y="644"/>
      <point x="570" y="583" type="curve" smooth="yes"/>
      <point x="570" y="507"/>
      <point x="524" y="441"/>
      <point x="484" y="415" type="curve" smooth="yes"/>
      <point x="449" y="392"/>
      <point x="399" y="388"/>
    </contour>
  </outline>
</glyph>
<glyph name="S" format="2">
  <advance width="557"/>
  <unicode hex="0053"/>
  <anchor x="239" y="0" name="attachcedilla"/>
  <anchor x="238" y="0" name="commaaccentbelow"/>
  <anchor x="235" y="0" name="dotbelow"/>
  <anchor x="429" y="741" name="top"/>
  <outline>
    <contour>
      <point x="282" y="-18" type="curve" smooth="yes"/>
      <point x="418" y="-18"/>
      <point x="517" y="96"/>
      <point x="517" y="221" type="curve" smooth="yes"/>
      <point x="517" y="437"/>
      <point x="218" y="410"/>
      <point x="218" y="569" type="curve" smooth="yes"/>
      <point x="218" y="640"/>
      <point x="277" y="692"/>
      <point x="356" y="692" type="curve" smooth="yes"/>
      <point x="448" y="692"/>
      <point x="499" y="622"/>
      <point x="533" y="522" type="curve"/>
      <point x="575" y="528" type="line"/>
      <point x="561" y="726" type="line"/>
      <point x="528" y="715"/>
      <point x="505" y="706"/>
      <point x="492" y="706" type="curve" smooth="yes"/>
      <point x="466" y="706"/>
      <point x="425" y="739"/>
      <point x="353" y="739" type="curve" smooth="yes"/>
      <point x="231" y="739"/>
      <point x="136" y="646"/>
      <point x="136" y="528" type="curve" smooth="yes"/>
      <point x="136" y="321"/>
      <point x="431" y="355"/>
      <point x="431" y="178" type="curve" smooth="yes"/>
      <point x="431" y="91"/>
      <point x="359" y="29"/>
      <point x="276" y="29" type="curve" smooth="yes"/>
      <point x="185" y="29"/>
      <point x="121" y="103"/>
      <point x="69" y="216" type="curve"/>
      <point x="28" y="205" type="line"/>
      <point x="48" y="-3" type="line"/>
      <point x="77" y="12"/>
      <point x="112" y="29"/>
      <point x="126" y="29" type="curve" smooth="yes"/>
      <point x="150" y="29"/>
      <point x="194" y="-18"/>
    </contour>
  </outline>
</glyph>
<glyph name="T" format="2">
  <advance width="643"/>
  <unicode hex="0054"/>
  <anchor x="246" y="0" name="attachcedilla"/>
  <anchor x="252" y="0" name="commaaccentbelow"/>
  <anchor x="253" y="0" name="dotbelow"/>
  <anchor x="505" y="741" name="top"/>
  <outline>
    <contour>
      <point x="116" y="0" type="line"/>
      <point x="419" y="0" type="line"/>
      <point x="429" y="40" type="line"/>
      <point x="348" y="40"/>
      <point x="334" y="53"/>
      <point x="334" y="76" type="curve" smooth="yes"/>
      <point x="334" y="87"/>
      <point x="337" y="99"/>
      <point x="341" y="114" type="curve" smooth="yes"/>
      <point x="476" y="615" type="line" smooth="yes"/>
      <point x="491" y="671"/>
      <point x="508" y="680"/>
      <point x="538" y="680" type="curve" smooth="yes"/>
      <point x="622" y="680"/>
      <point x="667" y="607"/>
      <point x="695" y="528" type="curve"/>
      <point x="732" y="535" type="line"/>
      <point x="709" y="721" type="line"/>
      <point x="172" y="721" type="line"/>
      <point x="78" y="551" type="line"/>
      <point x="104" y="528" type="line"/>
      <point x="186" y="602"/>
      <point x="285" y="680"/>
      <point x="347" y="680" type="curve" smooth="yes"/>
      <point x="373" y="680"/>
      <point x="381" y="666"/>
      <point x="381" y="650" type="curve" smooth="yes"/>
      <point x="381" y="645"/>
      <point x="380" y="637"/>
      <point x="374" y="615" type="curve" smooth="yes"/>
      <point x="240" y="114" type="line" smooth="yes"/>
      <point x="224" y="53"/>
      <point x="209" y="42"/>
      <point x="126" y="40" type="curve"/>
    </contour>
  </outline>
</glyph>
<glyph name="U" format="2">
  <advance width="725"/>
  <unicode hex="0055"/>
  <anchor x="825" y="592" name="attachhorn"/>
  <anchor x="319" y="0" name="dotbelow"/>
  <anchor x="418" y="0" name="ogonek"/>
  <anchor x="557" y="741" name="top"/>
  <outline>
    <contour>
      <point x="339" y="-18" type="curve" smooth="yes"/>
      <point x="516" y="-18"/>
      <point x="578" y="102"/>
      <point x="614" y="235" type="curve" smooth="yes"/>
      <point x="708" y="585" type="line" smooth="yes"/>
      <point x="731" y="671"/>
      <point x="771" y="674"/>
      <point x="813" y="681" type="curve"/>
      <point x="824" y="721" type="line"/>
      <point x="597" y="721" type="line"/>
      <point x="586" y="681" type="line"/>
      <point x="661" y="668"/>
      <point x="668" y="643"/>
      <point x="668" y="624" type="curve" smooth="yes"/>
      <point x="668" y="611"/>
      <point x="665" y="597"/>
      <point x="661" y="582" type="curve" smooth="yes"/>
      <point x="571" y="250" type="line" smooth="yes"/>
      <point x="552" y="180"/>
      <point x="521" y="108"/>
      <point x="472" y="66" type="curve" smooth="yes"/>
      <point x="443" y="41"/>
      <point x="406" y="26"/>
      <point x="357" y="26" type="curve" smooth="yes"/>
      <point x="253" y="26"/>
      <point x="217" y="93"/>
      <point x="217" y="160" type="curve" smooth="yes"/>
      <point x="217" y="202"/>
      <point x="231" y="249"/>
      <point x="242" y="290" type="curve" smooth="yes"/>
      <point x="321" y="584" type="line" smooth="yes"/>
      <point x="344" y="670"/>
      <point x="352" y="678"/>
      <point x="434" y="681" type="curve"/>
      <point x="444" y="721" type="line"/>
      <point x="163" y="721" type="line"/>
      <point x="152" y="681" type="line"/>
      <point x="223" y="681"/>
      <point x="232" y="664"/>
      <point x="232" y="645" type="curve" smooth="yes"/>
      <point x="232" y="630"/>
      <point x="228" y="615"/>
      <point x="224" y="600" type="curve" smooth="yes"/>
      <point x="143" y="297" type="line" smooth="yes"/>
      <point x="132" y="256"/>
      <point x="121" y="218"/>
      <point x="121" y="174" type="curve" smooth="yes"/>
      <point x="121" y="62"/>
      <point x="194" y="-18"/>
    </contour>
  </outline>
</glyph>
<glyph name="V" format="2">
  <advance width="611"/>
  <unicode hex="0056"/>
  <anchor x="263" y="0" name="dotbelow"/>
  <anchor x="457" y="741" name="top"/>
  <outline>
    <contour>
      <point x="252" y="-18" type="line"/>
      <point x="289" y="-18" type="line"/>
      <point x="599" y="585" type="line" smooth="yes"/>
      <point x="640" y="664"/>
      <point x="663" y="664"/>
      <point x="695" y="681" type="curve"/>
      <point x="705" y="721" type="line"/>
      <point x="499" y="721" type="line"/>
      <point x="489" y="681" type="line"/>
      <point x="558" y="674"/>
      <point x="566" y="658"/>
      <point x="566" y="646" type="curve" smooth="yes"/>
      <point x="566" y="628"/>
      <point x="550" y="596"/>
      <point x="543" y="582" type="curve" smooth="yes"/>
      <point x="318" y="141" type="line"/>
      <point x="245" y="589" type="line" smooth="yes"/>
      <point x="244" y="595"/>
      <point x="241" y="621"/>
      <point x="241" y="635" type="curve" smooth="yes"/>
      <point x="241" y="656"/>
      <point x="247" y="677"/>
      <point x="333" y="681" type="curve"/>
      <point x="343" y="721" type="line"/>
      <point x="80" y="721" type="line"/>
      <point x="69" y="681" type="line"/>
      <point x="123" y="672"/>
      <point x="131" y="672"/>
      <point x="141" y="618" type="curve" smooth="yes"/>
    </contour>
  </outline>
</glyph>
<glyph name="W" format="2">
  <advance width="857"/>
  <unicode hex="0057"/>
  <anchor x="386" y="0" name="dotbelow"/>
  <anchor x="584" y="741" name="top"/>
  <outline>
    <contour>
      <point x="206" y="-18" type="line"/>
      <point x="240" y="-18" type="line"/>
      <point x="480" y="502" type="line"/>
      <point x="535" y="-18" type="line"/>
      <point x="568" y="-18" type="line"/>
      <point x="850" y="585" type="line" smooth="yes"/>
      <point x="887" y="664"/>
      <point x="902" y="665"/>
      <point x="956" y="681" type="curve"/>
      <point x="965" y="721" type="line"/>
      <point x="747" y="721" type="line"/>
      <point x="736" y="681" type="line"/>
      <point x="805" y="674"/>
      <point x="816" y="659"/>
      <point x="816" y="645" type="curve" smooth="yes"/>
      <point x="816" y="629"/>
      <point x="803" y="593"/>
      <point x="798" y="582" type="curve" smooth="yes"/>
      <point x="608" y="174" type="line"/>
      <point x="571" y="589" type="line" smooth="yes"/>
      <point x="569" y="611"/>
      <point x="566" y="621"/>
      <point x="566" y="636" type="curve" smooth="yes"/>
      <point x="566" y="657"/>
      <point x="572" y="678"/>
      <point x="653" y="681" type="curve"/>
      <point x="663" y="721" type="line"/>
      <point x="386" y="721" type="line"/>
      <point x="375" y="681" type="line"/>
      <point x="455" y="678"/>
      <point x="459" y="677"/>
      <point x="466" y="618" type="curve" smooth="yes"/>
      <point x="470" y="584" type="line"/>
      <point x="279" y="174" type="line"/>
      <point x="241" y="589" type="line"/>
      <point x="239" y="628" type="line" smooth="yes"/>
      <point x="239" y="661"/>
      <point x="249" y="678"/>
      <point x="321" y="681" type="curve"/>
      <point x="331" y="721" type="line"/>
      <point x="94" y="721" type="line"/>
      <point x="83" y="681" type="line"/>
      <point x="135" y="676"/>
      <point x="137" y="672"/>
      <point x="142" y="618" type="curve" smooth="yes"/>
      <point x="145" y="584" type="line"/>
    </contour>
  </outline>
</glyph>
<glyph name="X" format="2">
  <advance width="651"/>
  <unicode hex="0058"/>
  <anchor x="496" y="741" name="top"/>
  <outline>
    <contour>
      <point x="-58" y="0" type="line"/>
      <point x="191" y="0" type="line"/>
      <point x="202" y="40" type="line"/>
      <point x="149" y="40"/>
      <point x="131" y="56"/>
      <point x="131" y="74" type="curve" smooth="yes"/>
      <point x="131" y="96"/>
      <point x="160" y="125"/>
      <point x="170" y="136" type="curve" smooth="yes"/>
      <point x="334" y="317" type="line"/>
      <point x="403" y="117" type="line" smooth="yes"/>
      <point x="412" y="91"/>
      <point x="414" y="85"/>
      <point x="414" y="74" type="curve" smooth="yes"/>
      <point x="414" y="50"/>
      <point x="404" y="40"/>
      <point x="325" y="40" type="curve"/>
      <point x="316" y="0" type="line"/>
      <point x="606" y="0" type="line"/>
      <point x="617" y="40" type="line"/>
      <point x="539" y="40"/>
      <point x="529" y="42"/>
      <point x="507" y="104" type="curve" smooth="yes"/>
      <point x="405" y="392" type="line"/>
      <point x="585" y="585" type="line" smooth="yes"/>
      <point x="645" y="650"/>
      <point x="672" y="674"/>
      <point x="729" y="681" type="curve"/>
      <point x="738" y="721" type="line"/>
      <point x="519" y="721" type="line"/>
      <point x="508" y="681" type="line"/>
      <point x="562" y="682"/>
      <point x="572" y="672"/>
      <point x="572" y="660" type="curve" smooth="yes"/>
      <point x="572" y="636"/>
      <point x="534" y="599"/>
      <point x="519" y="582" type="curve" smooth="yes"/>
      <point x="392" y="437" type="line"/>
      <point x="334" y="605" type="line" smooth="yes"/>
      <point x="324" y="634"/>
      <point x="321" y="645"/>
      <point x="321" y="653" type="curve" smooth="yes"/>
      <point x="321" y="668"/>
      <point x="330" y="681"/>
      <point x="404" y="681" type="curve"/>
      <point x="414" y="721" type="line"/>
      <point x="146" y="721" type="line"/>
      <point x="135" y="681" type="line"/>
      <point x="183" y="681"/>
      <point x="210" y="674"/>
      <point x="230" y="618" type="curve" smooth="yes"/>
      <point x="319" y="368" type="line"/>
      <point x="109" y="136" type="line" smooth="yes"/>
      <point x="49" y="70"/>
      <point x="18" y="48"/>
      <point x="-49" y="40" type="curve"/>
    </contour>
  </outline>
</glyph>
<glyph name="Y" format="2">
  <advance width="626"/>
  <unicode hex="0059"/>
  <anchor x="217" y="0" name="dotbelow"/>
  <anchor x="476" y="741" name="top"/>
  <outline>
    <contour>
      <point x="83" y="0" type="line"/>
      <point x="387" y="0" type="line"/>
      <point x="397" y="40" type="line"/>
      <point x="318" y="40"/>
      <point x="302" y="53"/>
      <point x="302" y="75" type="curve" smooth="yes"/>
      <point x="302" y="86"/>
      <point x="306" y="106"/>
      <point x="308" y="114" type="curve" smooth="yes"/>
      <point x="359" y="303" type="line"/>
      <point x="596" y="585" type="line" smooth="yes"/>
      <point x="667" y="670"/>
      <point x="681" y="674"/>
      <point x="731" y="681" type="curve"/>
      <point x="741" y="721" type="line"/>
      <point x="509" y="721" type="line"/>
      <point x="498" y="681" type="line"/>
      <point x="564" y="681"/>
      <point x="573" y="666"/>
      <point x="573" y="651" type="curve" smooth="yes"/>
      <point x="573" y="626"/>
      <point x="542" y="594"/>
      <point x="532" y="582" type="curve" smooth="yes"/>
      <point x="337" y="346" type="line"/>
      <point x="277" y="599" type="line" smooth="yes"/>
      <point x="275" y="608"/>
      <point x="267" y="630"/>
      <point x="267" y="647" type="curve" smooth="yes"/>
      <point x="267" y="666"/>
      <point x="277" y="681"/>
      <point x="350" y="681" type="curve"/>
      <point x="360" y="721" type="line"/>
      <point x="94" y="721" type="line"/>
      <point x="83" y="681" type="line"/>
      <point x="130" y="681"/>
      <point x="159" y="671"/>
      <point x="172" y="618" type="curve" smooth="yes"/>
      <point x="254" y="285" type="line"/>
      <point x="208" y="114" type="line" smooth="yes"/>
      <point x="191" y="53"/>
      <point x="176" y="42"/>
      <point x="94" y="40" type="curve"/>
    </contour>
  </outline>
</glyph>
<glyph name="Z" format="2">
  <advance width="599"/>
  <unicode hex="005A"/>
  <anchor x="213" y="0" name="dotbelow"/>
  <anchor x="468" y="741" name="top"/>
  <outline>
    <contour>
      <point x="-8" y="0" type="line"/>
      <point x="467" y="0" type="line"/>
      <point x="559" y="178" type="line"/>
      <point x="523" y="198" type="line"/>
      <point x="431" y="84"/>
      <point x="341" y="46"/>
      <point x="199" y="46" type="curve" smooth="yes"/>
      <point x="131" y="46" type="line"/>
      <point x="662" y="706" type="line"/>
      <point x="653" y="721" type="line"/>
      <point x="202" y="721" type="line"/>
      <point x="118" y="550" type="line"/>
      <point x="151" y="533" type="line"/>
      <point x="240" y="629"/>
      <point x="317" y="678"/>
      <point x="458" y="678" type="curve" smooth="yes"/>
      <point x="519" y="678" type="line"/>
      <point x="-16" y="17" type="line"/>
    </contour>
  </outline>
</glyph>
<glyph name="bracketleft" format="2">
  <advance width="329"/>
  <unicode hex="005B"/>
  <outline>
    <contour>
      <point x="-19" y="-187" type="line"/>
      <point x="179" y="-187" type="line"/>
      <point x="190" y="-147" type="line"/>
      <point x="72" y="-147" type="line"/>
      <point x="295" y="681" type="line"/>
      <point x="398" y="681" type="line"/>
      <point x="409" y="721" type="line"/>
      <point x="224" y="721" type="line"/>
    </contour>
  </outline>
</glyph>
<glyph name="backslash" format="2">
  <advance width="414"/>
  <unicode hex="005C"/>
  <outline>
    <contour>
      <point x="256" y="-187" type="line"/>
      <point x="308" y="-187" type="line"/>
      <point x="236" y="721" type="line"/>
      <point x="181" y="721" type="line"/>
    </contour>
  </outline>
</glyph>
<glyph name="bracketright" format="2">
  <advance width="329"/>
  <unicode hex="005D"/>
  <outline>
    <contour>
      <point x="-63" y="-187" type="line"/>
      <point x="122" y="-187" type="line"/>
      <point x="365" y="721" type="line"/>
      <point x="166" y="721" type="line"/>
      <point x="156" y="681" type="line"/>
      <point x="274" y="681" type="line"/>
      <point x="51" y="-147" type="line"/>
      <point x="-52" y="-147" type="line"/>
    </contour>
  </outline>
</glyph>
<glyph name="underscore" format="2">
  <advance width="541"/>
  <unicode hex="005F"/>
  <outline>
    <contour>
      <point x="23" y="-145" type="line"/>
      <point x="517" y="-145" type="line"/>
      <point x="517" y="-95" type="line"/>
      <point x="23" y="-95" type="line"/>
    </contour>
  </outline>
</glyph>
<glyph name="a" format="2">
  <advance width="511"/>
  <unicode hex="0061"/>
  <anchor x="122" y="0" name="dotbelow"/>
  <anchor x="282" y="0" name="ogonek"/>
  <anchor x="383" y="494" name="top"/>
  <outline>
    <contour>
      <point x="120" y="-14" type="curve" smooth="yes"/>
      <point x="199" y="-14"/>
      <point x="253" y="69"/>
      <point x="274" y="98" type="curve"/>
      <point x="273" y="94"/>
      <point x="264" y="65"/>
      <point x="264" y="44" type="curve" smooth="yes"/>
      <point x="264" y="11"/>
      <point x="286" y="-14"/>
      <point x="319" y="-14" type="curve" smooth="yes"/>
      <point x="381" y="-14"/>
      <point x="441" y="76"/>
      <point x="477" y="129" type="curve"/>
      <point x="449" y="149" type="line"/>
      <point x="424" y="116"/>
      <point x="373" y="49"/>
      <point x="353" y="49" type="curve" smooth="yes"/>
      <point x="347" y="49"/>
      <point x="345" y="55"/>
      <point x="345" y="63" type="curve" smooth="yes"/>
      <point x="345" y="115"/>
      <point x="442" y="352"/>
      <point x="491" y="481" type="curve"/>
      <point x="414" y="481" type="line"/>
      <point x="389" y="423" type="line"/>
      <point x="381" y="456"/>
      <point x="360" y="482"/>
      <point x="312" y="482" type="curve" smooth="yes"/>
      <point x="177" y="482"/>
      <point x="13" y="275"/>
      <point x="13" y="119" type="curve" smooth="yes"/>
      <point x="13" y="37"/>
      <point x="58" y="-14"/>
    </contour>
    <contour>
      <point x="134" y="29" type="curve" smooth="yes"/>
      <point x="102" y="29"/>
      <point x="95" y="58"/>
      <point x="95" y="90" type="curve" smooth="yes"/>
      <point x="95" y="165"/>
      <point x="134" y="251"/>
      <point x="176" y="323" type="curve" smooth="yes"/>
      <point x="204" y="371"/>
      <point x="253" y="446"/>
      <point x="307" y="446" type="curve" smooth="yes"/>
      <point x="338" y="446"/>
      <point x="358" y="422"/>
      <point x="358" y="388" type="curve" smooth="yes"/>
      <point x="358" y="345"/>
      <point x="327" y="268"/>
      <point x="303" y="218" type="curve" smooth="yes"/>
      <point x="270" y="150"/>
      <point x="199" y="29"/>
    </contour>
  </outline>
</glyph>
<glyph name="b" format="2">
  <advance width="455"/>
  <unicode hex="0062"/>
  <anchor x="143" y="0" name="dotbelow"/>
  <anchor x="384" y="742" name="top"/>
  <outline>
    <contour>
      <point x="160" y="-14" type="curve" smooth="yes"/>
      <point x="294" y="-14"/>
      <point x="435" y="181"/>
      <point x="435" y="336" type="curve" smooth="yes"/>
      <point x="435" y="438"/>
      <point x="373" y="483"/>
      <point x="314" y="483" type="curve" smooth="yes"/>
      <point x="273" y="483"/>
      <point x="237" y="462"/>
      <point x="201" y="422" type="curve"/>
      <point x="283" y="729" type="line"/>
      <point x="123" y="692" type="line"/>
      <point x="116" y="664" type="line"/>
      <point x="151" y="661"/>
      <point x="175" y="651"/>
      <point x="175" y="629" type="curve" smooth="yes"/>
      <point x="175" y="617"/>
      <point x="167" y="585"/>
      <point x="160" y="559" type="curve" smooth="yes"/>
      <point x="56" y="173" type="line" smooth="yes"/>
      <point x="49" y="147"/>
      <point x="42" y="117"/>
      <point x="42" y="95" type="curve" smooth="yes"/>
      <point x="42" y="34"/>
      <point x="94" y="-14"/>
    </contour>
    <contour>
      <point x="181" y="30" type="curve" smooth="yes"/>
      <point x="146" y="30"/>
      <point x="123" y="53"/>
      <point x="123" y="91" type="curve" smooth="yes"/>
      <point x="123" y="139"/>
      <point x="160" y="276"/>
      <point x="195" y="348" type="curve" smooth="yes"/>
      <point x="225" y="410"/>
      <point x="258" y="432"/>
      <point x="290" y="432" type="curve" smooth="yes"/>
      <point x="324" y="432"/>
      <point x="342" y="407"/>
      <point x="342" y="352" type="curve" smooth="yes"/>
      <point x="342" y="284"/>
      <point x="314" y="190"/>
      <point x="297" y="146" type="curve" smooth="yes"/>
      <point x="269" y="73"/>
      <point x="228" y="30"/>
    </contour>
  </outline>
</glyph>
<glyph name="c" format="2">
  <advance width="390"/>
  <unicode hex="0063"/>
  <anchor x="134" y="0" name="attachcedilla"/>
  <anchor x="335" y="494" name="top"/>
  <outline>
    <contour>
      <point x="153" y="-14" type="curve" smooth="yes"/>
      <point x="235" y="-14"/>
      <point x="304" y="69"/>
      <point x="346" y="121" type="curve"/>
      <point x="319" y="143" type="line"/>
      <point x="279" y="101"/>
      <point x="224" y="34"/>
      <point x="169" y="34" type="curve" smooth="yes"/>
      <point x="130" y="34"/>
      <point x="112" y="67"/>
      <point x="112" y="112" type="curve" smooth="yes"/>
      <point x="112" y="159"/>
      <point x="131" y="240"/>
      <point x="160" y="312" type="curve" smooth="yes"/>
      <point x="188" y="381"/>
      <point x="224" y="442"/>
      <point x="275" y="442" type="curve" smooth="yes"/>
      <point x="286" y="442"/>
      <point x="294" y="439"/>
      <point x="294" y="425" type="curve" smooth="yes"/>
      <point x="294" y="417"/>
      <point x="291" y="409"/>
      <point x="291" y="398" type="curve" smooth="yes"/>
      <point x="291" y="375"/>
      <point x="305" y="348"/>
      <point x="338" y="348" type="curve" smooth="yes"/>
      <point x="364" y="348"/>
      <point x="386" y="369"/>
      <point x="386" y="400" type="curve" smooth="yes"/>
      <point x="386" y="439"/>
      <point x="352" y="482"/>
      <point x="287" y="482" type="curve" smooth="yes"/>
      <point x="223" y="482"/>
      <point x="170" y="440"/>
      <point x="128" y="392" type="curve" smooth="yes"/>
      <point x="67" y="322"/>
      <point x="24" y="232"/>
      <point x="24" y="149" type="curve" smooth="yes"/>
      <point x="24" y="55"/>
      <point x="79" y="-14"/>
    </contour>
  </outline>
</glyph>
<glyph name="d" format="2">
  <advance width="517"/>
  <unicode hex="0064"/>
  <anchor x="628" y="735" name="caroncombalt"/>
  <anchor x="136" y="0" name="commaaccentbelow"/>
  <anchor x="135" y="0" name="dotbelow"/>
  <anchor x="408" y="741" name="top"/>
  <outline>
    <contour>
      <point x="136" y="-14" type="curve" smooth="yes"/>
      <point x="204" y="-14"/>
      <point x="252" y="41"/>
      <point x="284" y="94" type="curve"/>
      <point x="283" y="83"/>
      <point x="281" y="65"/>
      <point x="281" y="55" type="curve" smooth="yes"/>
      <point x="281" y="22"/>
      <point x="304" y="-8"/>
      <point x="337" y="-8" type="curve" smooth="yes"/>
      <point x="398" y="-8"/>
      <point x="459" y="94"/>
      <point x="490" y="142" type="curve"/>
      <point x="459" y="163" type="line"/>
      <point x="435" y="129"/>
      <point x="384" y="58"/>
      <point x="367" y="58" type="curve" smooth="yes"/>
      <point x="362" y="58"/>
      <point x="360" y="63"/>
      <point x="360" y="70" type="curve" smooth="yes"/>
      <point x="360" y="79"/>
      <point x="364" y="95"/>
      <point x="371" y="121" type="curve" smooth="yes"/>
      <point x="534" y="729" type="line"/>
      <point x="358" y="692" type="line"/>
      <point x="350" y="664" type="line"/>
      <point x="410" y="657"/>
      <point x="416" y="649"/>
      <point x="416" y="623" type="curve" smooth="yes"/>
      <point x="416" y="613"/>
      <point x="415" y="609"/>
      <point x="401" y="556" type="curve" smooth="yes"/>
      <point x="373" y="452" type="line"/>
      <point x="356" y="466"/>
      <point x="334" y="482"/>
      <point x="297" y="482" type="curve" smooth="yes"/>
      <point x="163" y="482"/>
      <point x="21" y="277"/>
      <point x="21" y="128" type="curve" smooth="yes"/>
      <point x="21" y="44"/>
      <point x="66" y="-14"/>
    </contour>
    <contour>
      <point x="159" y="37" type="curve" smooth="yes"/>
      <point x="120" y="37"/>
      <point x="114" y="77"/>
      <point x="114" y="106" type="curve" smooth="yes"/>
      <point x="114" y="174"/>
      <point x="146" y="273"/>
      <point x="175" y="331" type="curve" smooth="yes"/>
      <point x="193" y="367"/>
      <point x="237" y="441"/>
      <point x="298" y="441" type="curve" smooth="yes"/>
      <point x="329" y="441"/>
      <point x="345" y="422"/>
      <point x="345" y="380" type="curve" smooth="yes"/>
      <point x="345" y="340"/>
      <point x="330" y="275"/>
      <point x="304" y="218" type="curve" smooth="yes"/>
      <point x="271" y="146"/>
      <point x="224" y="37"/>
    </contour>
  </outline>
</glyph>
<glyph name="e" format="2">
  <advance width="386"/>
  <unicode hex="0065"/>
  <anchor x="122" y="0" name="attachcedilla"/>
  <anchor x="125" y="0" name="dotbelow"/>
  <anchor x="200" y="0" name="ogonek"/>
  <anchor x="335" y="494" name="top"/>
  <outline>
    <contour>
      <point x="145" y="-14" type="curve" smooth="yes"/>
      <point x="240" y="-14"/>
      <point x="321" y="85"/>
      <point x="359" y="132" type="curve"/>
      <point x="332" y="157" type="line"/>
      <point x="287" y="107"/>
      <point x="221" y="35"/>
      <point x="167" y="35" type="curve" smooth="yes"/>
      <point x="138" y="35"/>
      <point x="115" y="55"/>
      <point x="115" y="119" type="curve" smooth="yes"/>
      <point x="115" y="129"/>
      <point x="115" y="134"/>
      <point x="116" y="147" type="curve"/>
      <point x="183" y="184"/>
      <point x="261" y="226"/>
      <point x="314" y="281" type="curve" smooth="yes"/>
      <point x="341" y="309"/>
      <point x="377" y="357"/>
      <point x="377" y="405" type="curve" smooth="yes"/>
      <point x="377" y="455"/>
      <point x="339" y="482"/>
      <point x="291" y="482" type="curve" smooth="yes"/>
      <point x="170" y="482"/>
      <point x="25" y="306"/>
      <point x="25" y="146" type="curve" smooth="yes"/>
      <point x="25" y="70"/>
      <point x="58" y="-14"/>
    </contour>
    <contour>
      <point x="121" y="186" type="curve"/>
      <point x="135" y="301"/>
      <point x="209" y="446"/>
      <point x="280" y="446" type="curve" smooth="yes"/>
      <point x="303" y="446"/>
      <point x="310" y="431"/>
      <point x="310" y="408" type="curve" smooth="yes"/>
      <point x="310" y="346"/>
      <point x="262" y="286"/>
      <point x="210" y="245" type="curve" smooth="yes"/>
      <point x="181" y="222"/>
      <point x="150" y="205"/>
    </contour>
  </outline>
</glyph>
<glyph name="f" format="2">
  <advance width="278"/>
  <unicode hex="0066"/>
  <anchor x="349" y="741" name="top"/>
  <outline>
    <contour>
      <point x="-82" y="-188" type="curve" smooth="yes"/>
      <point x="-11" y="-188"/>
      <point x="49" y="-105"/>
      <point x="85" y="-36" type="curve" smooth="yes"/>
      <point x="156" y="100"/>
      <point x="196" y="301"/>
      <point x="227" y="425" type="curve"/>
      <point x="320" y="425" type="line"/>
      <point x="332" y="468" type="line"/>
      <point x="237" y="468" type="line"/>
      <point x="265" y="574"/>
      <point x="292" y="659"/>
      <point x="330" y="659" type="curve" smooth="yes"/>
      <point x="352" y="659"/>
      <point x="370" y="632"/>
      <point x="400" y="632" type="curve" smooth="yes"/>
      <point x="427" y="632"/>
      <point x="445" y="654"/>
      <point x="445" y="677" type="curve" smooth="yes"/>
      <point x="445" y="701"/>
      <point x="426" y="724"/>
      <point x="388" y="724" type="curve" smooth="yes"/>
      <point x="317" y="724"/>
      <point x="213" y="646"/>
      <point x="160" y="468" type="curve"/>
      <point x="78" y="468" type="line"/>
      <point x="66" y="425" type="line"/>
      <point x="147" y="425" type="line"/>
      <point x="110" y="305"/>
      <point x="75" y="121"/>
      <point x="38" y="-31" type="curve" smooth="yes"/>
      <point x="30" y="-64"/>
      <point x="9" y="-99"/>
      <point x="-31" y="-97" type="curve" smooth="yes"/>
      <point x="-70" y="-95" type="line" smooth="yes"/>
      <point x="-89" y="-94"/>
      <point x="-126" y="-106"/>
      <point x="-126" y="-148" type="curve" smooth="yes"/>
      <point x="-126" y="-175"/>
      <point x="-110" y="-188"/>
    </contour>
  </outline>
</glyph>
<glyph name="g" format="2">
  <advance width="482"/>
  <unicode hex="0067"/>
  <anchor x="369" y="494" name="top"/>
  <outline>
    <contour>
      <point x="153" y="-187" type="curve" smooth="yes"/>
      <point x="268" y="-187"/>
      <point x="384" y="-149"/>
      <point x="384" y="-53" type="curve" smooth="yes"/>
      <point x="384" y="16"/>
      <point x="323" y="40"/>
      <point x="278" y="55" type="curve" smooth="yes"/>
      <point x="235" y="69"/>
      <point x="170" y="87"/>
      <point x="136" y="94" type="curve" smooth="yes"/>
      <point x="127" y="96"/>
      <point x="111" y="99"/>
      <point x="111" y="109" type="curve" smooth="yes"/>
      <point x="111" y="121"/>
      <point x="138" y="137"/>
      <point x="162" y="151" type="curve"/>
      <point x="190" y="143"/>
      <point x="202" y="141"/>
      <point x="218" y="141" type="curve" smooth="yes"/>
      <point x="335" y="141"/>
      <point x="434" y="241"/>
      <point x="434" y="344" type="curve" smooth="yes"/>
      <point x="434" y="382"/>
      <point x="421" y="410"/>
      <point x="403" y="429" type="curve"/>
      <point x="406" y="431"/>
      <point x="417" y="432"/>
      <point x="421" y="432" type="curve" smooth="yes"/>
      <point x="439" y="432"/>
      <point x="455" y="415"/>
      <point x="477" y="415" type="curve" smooth="yes"/>
      <point x="503" y="415"/>
      <point x="518" y="437"/>
      <point x="518" y="460" type="curve" smooth="yes"/>
      <point x="518" y="480"/>
      <point x="507" y="499"/>
      <point x="475" y="499" type="curve" smooth="yes"/>
      <point x="434" y="499"/>
      <point x="400" y="469"/>
      <point x="381" y="452" type="curve"/>
      <point x="362" y="467"/>
      <point x="330" y="482"/>
      <point x="287" y="482" type="curve" smooth="yes"/>
      <point x="174" y="482"/>
      <point x="79" y="376"/>
      <point x="79" y="273" type="curve" smooth="yes"/>
      <point x="79" y="215"/>
      <point x="109" y="186"/>
      <point x="131" y="170" type="curve"/>
      <point x="103" y="155"/>
      <point x="18" y="111"/>
      <point x="18" y="77" type="curve" smooth="yes"/>
      <point x="18" y="51"/>
      <point x="65" y="35"/>
      <point x="92" y="26" type="curve"/>
      <point x="22" y="8"/>
      <point x="-53" y="-24"/>
      <point x="-53" y="-85" type="curve" smooth="yes"/>
      <point x="-53" y="-156"/>
      <point x="49" y="-187"/>
    </contour>
    <contour>
      <point x="162" y="-147" type="curve" smooth="yes"/>
      <point x="78" y="-147"/>
      <point x="32" y="-127"/>
      <point x="32" y="-84" type="curve" smooth="yes"/>
      <point x="32" y="-28"/>
      <point x="110" y="-5"/>
      <point x="157" y="8" type="curve"/>
      <point x="269" y="-16"/>
      <point x="307" y="-37"/>
      <point x="307" y="-77" type="curve" smooth="yes"/>
      <point x="307" y="-128"/>
      <point x="243" y="-147"/>
    </contour>
    <contour>
      <point x="223" y="177" type="curve" smooth="yes"/>
      <point x="176" y="177"/>
      <point x="159" y="205"/>
      <point x="159" y="245" type="curve" smooth="yes"/>
      <point x="159" y="309"/>
      <point x="202" y="446"/>
      <point x="292" y="446" type="curve" smooth="yes"/>
      <point x="326" y="446"/>
      <point x="352" y="426"/>
      <point x="352" y="378" type="curve" smooth="yes"/>
      <point x="352" y="335"/>
      <point x="331" y="267"/>
      <point x="309" y="230" type="curve" smooth="yes"/>
      <point x="290" y="198"/>
      <point x="263" y="177"/>
    </contour>
  </outline>
</glyph>
<glyph name="h" format="2">
  <advance width="526"/>
  <unicode hex="0068"/>
  <anchor x="55" y="0" name="attachcedilla"/>
  <anchor x="187" y="0" name="dotbelow"/>
  <anchor x="383" y="741" name="top"/>
  <outline>
    <contour>
      <point x="343" y="-14" type="curve" smooth="yes"/>
      <point x="388" y="-14"/>
      <point x="443" y="52"/>
      <point x="498" y="141" type="curve"/>
      <point x="467" y="163" type="line"/>
      <point x="439" y="122"/>
      <point x="396" y="51"/>
      <point x="376" y="51" type="curve" smooth="yes"/>
      <point x="371" y="51"/>
      <point x="369" y="55"/>
      <point x="369" y="60" type="curve" smooth="yes"/>
      <point x="369" y="74"/>
      <point x="385" y="125"/>
      <point x="401" y="174" type="curve" smooth="yes"/>
      <point x="430" y="262"/>
      <point x="465" y="361"/>
      <point x="465" y="407" type="curve" smooth="yes"/>
      <point x="465" y="448"/>
      <point x="436" y="482"/>
      <point x="395" y="482" type="curve" smooth="yes"/>
      <point x="338" y="482"/>
      <point x="286" y="415"/>
      <point x="251" y="360" type="curve" smooth="yes"/>
      <point x="224" y="318"/>
      <point x="194" y="262"/>
      <point x="168" y="213" type="curve"/>
      <point x="305" y="729" type="line"/>
      <point x="137" y="692" type="line"/>
      <point x="130" y="664" type="line"/>
      <point x="161" y="662"/>
      <point x="188" y="655"/>
      <point x="188" y="630" type="curve" smooth="yes"/>
      <point x="188" y="617"/>
      <point x="180" y="585"/>
      <point x="173" y="558" type="curve" smooth="yes"/>
      <point x="24" y="0" type="line"/>
      <point x="110" y="0" type="line"/>
      <point x="164" y="110"/>
      <point x="206" y="207"/>
      <point x="262" y="301" type="curve" smooth="yes"/>
      <point x="289" y="346"/>
      <point x="336" y="419"/>
      <point x="368" y="419" type="curve" smooth="yes"/>
      <point x="378" y="419"/>
      <point x="383" y="411"/>
      <point x="383" y="399" type="curve" smooth="yes"/>
      <point x="383" y="369"/>
      <point x="346" y="269"/>
      <point x="326" y="205" type="curve" smooth="yes"/>
      <point x="296" y="110"/>
      <point x="283" y="69"/>
      <point x="283" y="45" type="curve" smooth="yes"/>
      <point x="283" y="8"/>
      <point x="316" y="-14"/>
    </contour>
  </outline>
</glyph>
<glyph name="k" format="2">
  <advance width="488"/>
  <unicode hex="006B"/>
  <anchor x="184" y="0" name="commaaccentbelow"/>
  <anchor x="177" y="0" name="dotbelow"/>
  <anchor x="408" y="741" name="top"/>
  <outline>
    <contour>
      <point x="321" y="-14" type="curve" smooth="yes"/>
      <point x="378" y="-14"/>
      <point x="422" y="54"/>
      <point x="453" y="139" type="curve"/>
      <point x="415" y="156" type="line"/>
      <point x="406" y="128"/>
      <point x="374" y="61"/>
      <point x="355" y="61" type="curve" smooth="yes"/>
      <point x="330" y="61"/>
      <point x="318" y="169"/>
      <point x="311" y="218" type="curve"/>
      <point x="399" y="256"/>
      <point x="476" y="320"/>
      <point x="476" y="391" type="curve" smooth="yes"/>
      <point x="476" y="441"/>
      <point x="439" y="482"/>
      <point x="376" y="482" type="curve" smooth="yes"/>
      <point x="303" y="482"/>
      <point x="243" y="426"/>
      <point x="199" y="373" type="curve"/>
      <point x="294" y="729" type="line"/>
      <point x="126" y="692" type="line"/>
      <point x="119" y="664" type="line"/>
      <point x="157" y="661"/>
      <point x="177" y="654"/>
      <point x="177" y="627" type="curve" smooth="yes"/>
      <point x="177" y="615"/>
      <point x="173" y="599"/>
      <point x="162" y="558" type="curve" smooth="yes"/>
      <point x="13" y="0" type="line"/>
      <point x="99" y="0" type="line"/>
      <point x="147" y="178" type="line"/>
      <point x="229" y="195" type="line"/>
      <point x="256" y="21"/>
      <point x="279" y="-14"/>
    </contour>
    <contour>
      <point x="158" y="218" type="curve"/>
      <point x="211" y="379"/>
      <point x="308" y="425"/>
      <point x="346" y="425" type="curve" smooth="yes"/>
      <point x="372" y="425"/>
      <point x="389" y="403"/>
      <point x="389" y="376" type="curve" smooth="yes"/>
      <point x="389" y="301"/>
      <point x="264" y="235"/>
    </contour>
  </outline>
</glyph>
<glyph name="l" format="2">
  <advance width="286"/>
  <unicode hex="006C"/>
  <anchor x="392" y="735" name="caroncombalt"/>
  <anchor x="83" y="0" name="commaaccentbelow"/>
  <anchor x="83" y="0" name="dotbelow"/>
  <anchor x="306" y="320" name="ldot"/>
  <anchor x="281" y="741" name="top"/>
  <outline>
    <contour>
      <point x="95" y="-14" type="curve" smooth="yes"/>
      <point x="149" y="-14"/>
      <point x="196" y="49"/>
      <point x="259" y="149" type="curve"/>
      <point x="229" y="169" type="line"/>
      <point x="199" y="126"/>
      <point x="159" y="57"/>
      <point x="137" y="57" type="curve" smooth="yes"/>
      <point x="130" y="57"/>
      <point x="125" y="63"/>
      <point x="125" y="69" type="curve" smooth="yes"/>
      <point x="125" y="80"/>
      <point x="140" y="140"/>
      <point x="151" y="181" type="curve" smooth="yes"/>
      <point x="298" y="729" type="line"/>
      <point x="132" y="699" type="line"/>
      <point x="124" y="670" type="line"/>
      <point x="162" y="667"/>
      <point x="183" y="661"/>
      <point x="183" y="634" type="curve" smooth="yes"/>
      <point x="183" y="624"/>
      <point x="186" y="635"/>
      <point x="166" y="560" type="curve" smooth="yes"/>
      <point x="72" y="208" type="line" smooth="yes"/>
      <point x="53" y="137"/>
      <point x="36" y="78"/>
      <point x="36" y="47" type="curve" smooth="yes"/>
      <point x="36" y="8"/>
      <point x="63" y="-14"/>
    </contour>
  </outline>
</glyph>
<glyph name="m" format="2">
  <advance width="800"/>
  <unicode hex="006D"/>
  <anchor x="315" y="0" name="dotbelow"/>
  <anchor x="503" y="494" name="top"/>
  <outline>
    <contour>
      <point x="608" y="-14" type="curve" smooth="yes"/>
      <point x="653" y="-14"/>
      <point x="708" y="37"/>
      <point x="768" y="139" type="curve"/>
      <point x="736" y="161" type="line"/>
      <point x="708" y="121"/>
      <point x="658" y="50"/>
      <point x="642" y="50" type="curve" smooth="yes"/>
      <point x="637" y="50"/>
      <point x="635" y="56"/>
      <point x="635" y="61" type="curve" smooth="yes"/>
      <point x="635" y="75"/>
      <point x="652" y="124"/>
      <point x="669" y="175" type="curve" smooth="yes"/>
      <point x="702" y="274"/>
      <point x="737" y="360"/>
      <point x="737" y="412" type="curve" smooth="yes"/>
      <point x="737" y="451"/>
      <point x="717" y="482"/>
      <point x="677" y="482" type="curve" smooth="yes"/>
      <point x="621" y="482"/>
      <point x="568" y="419"/>
      <point x="530" y="361" type="curve" smooth="yes"/>
      <point x="505" y="323"/>
      <point x="460" y="247"/>
      <point x="438" y="199" type="curve"/>
      <point x="456" y="266"/>
      <point x="485" y="347"/>
      <point x="485" y="407" type="curve" smooth="yes"/>
      <point x="485" y="461"/>
      <point x="462" y="482"/>
      <point x="431" y="482" type="curve" smooth="yes"/>
      <point x="374" y="482"/>
      <point x="317" y="409"/>
      <point x="278" y="347" type="curve" smooth="yes"/>
      <point x="252" y="305"/>
      <point x="228" y="262"/>
      <point x="204" y="219" type="curve"/>
      <point x="221" y="276"/>
      <point x="253" y="372"/>
      <point x="253" y="418" type="curve" smooth="yes"/>
      <point x="253" y="457"/>
      <point x="230" y="482"/>
      <point x="202" y="482" type="curve" smooth="yes"/>
      <point x="145" y="482"/>
      <point x="67" y="376"/>
      <point x="29" y="318" type="curve"/>
      <point x="61" y="296" type="line"/>
      <point x="106" y="355"/>
      <point x="149" y="416"/>
      <point x="167" y="416" type="curve" smooth="yes"/>
      <point x="171" y="416"/>
      <point x="175" y="412"/>
      <point x="175" y="403" type="curve" smooth="yes"/>
      <point x="175" y="376"/>
      <point x="137" y="262"/>
      <point x="115" y="196" type="curve" smooth="yes"/>
      <point x="95" y="136"/>
      <point x="69" y="67"/>
      <point x="39" y="0" type="curve"/>
      <point x="131" y="0" type="line"/>
      <point x="179" y="112"/>
      <point x="248" y="243"/>
      <point x="297" y="320" type="curve" smooth="yes"/>
      <point x="328" y="369"/>
      <point x="368" y="423"/>
      <point x="392" y="423" type="curve" smooth="yes"/>
      <point x="402" y="423"/>
      <point x="405" y="413"/>
      <point x="405" y="401" type="curve" smooth="yes"/>
      <point x="405" y="364"/>
      <point x="379" y="268"/>
      <point x="359" y="205" type="curve" smooth="yes"/>
      <point x="294" y="0" type="line"/>
      <point x="374" y="0" type="line"/>
      <point x="424" y="99"/>
      <point x="478" y="210"/>
      <point x="536" y="303" type="curve" smooth="yes"/>
      <point x="561" y="343"/>
      <point x="613" y="422"/>
      <point x="643" y="422" type="curve" smooth="yes"/>
      <point x="652" y="422"/>
      <point x="654" y="414"/>
      <point x="654" y="405" type="curve" smooth="yes"/>
      <point x="654" y="375"/>
      <point x="633" y="316"/>
      <point x="599" y="218" type="curve" smooth="yes"/>
      <point x="567" y="126"/>
      <point x="548" y="71"/>
      <point x="548" y="45" type="curve" smooth="yes"/>
      <point x="548" y="13"/>
      <point x="576" y="-14"/>
    </contour>
  </outline>
</glyph>
<glyph name="n" format="2">
  <advance width="572"/>
  <unicode hex="006E"/>
  <anchor x="225" y="0" name="commaaccentbelow"/>
  <anchor x="222" y="0" name="dotbelow"/>
  <anchor x="413" y="494" name="top"/>
  <outline>
    <contour>
      <point x="377" y="-14" type="curve" smooth="yes"/>
      <point x="425" y="-14"/>
      <point x="486" y="44"/>
      <point x="543" y="141" type="curve"/>
      <point x="511" y="163" type="line"/>
      <point x="488" y="129"/>
      <point x="437" y="49"/>
      <point x="416" y="49" type="curve" smooth="yes"/>
      <point x="410" y="49"/>
      <point x="406" y="55"/>
      <point x="406" y="61" type="curve" smooth="yes"/>
      <point x="406" y="73"/>
      <point x="419" y="108"/>
      <point x="442" y="175" type="curve" smooth="yes"/>
      <point x="490" y="314"/>
      <point x="511" y="375"/>
      <point x="511" y="412" type="curve" smooth="yes"/>
      <point x="511" y="452"/>
      <point x="487" y="482"/>
      <point x="450" y="482" type="curve" smooth="yes"/>
      <point x="394" y="482"/>
      <point x="331" y="411"/>
      <point x="296" y="361" type="curve" smooth="yes"/>
      <point x="268" y="321"/>
      <point x="224" y="259"/>
      <point x="194" y="202" type="curve"/>
      <point x="218" y="267"/>
      <point x="249" y="362"/>
      <point x="249" y="418" type="curve" smooth="yes"/>
      <point x="249" y="462"/>
      <point x="230" y="482"/>
      <point x="201" y="482" type="curve" smooth="yes"/>
      <point x="136" y="482"/>
      <point x="75" y="383"/>
      <point x="25" y="315" type="curve"/>
      <point x="55" y="294" type="line"/>
      <point x="93" y="350"/>
      <point x="142" y="416"/>
      <point x="160" y="416" type="curve" smooth="yes"/>
      <point x="165" y="416"/>
      <point x="170" y="412"/>
      <point x="170" y="401" type="curve" smooth="yes"/>
      <point x="170" y="375"/>
      <point x="140" y="285"/>
      <point x="110" y="194" type="curve" smooth="yes"/>
      <point x="87" y="125"/>
      <point x="68" y="71"/>
      <point x="39" y="0" type="curve"/>
      <point x="125" y="0" type="line"/>
      <point x="178" y="99"/>
      <point x="238" y="213"/>
      <point x="302" y="303" type="curve" smooth="yes"/>
      <point x="327" y="338"/>
      <point x="381" y="417"/>
      <point x="411" y="417" type="curve" smooth="yes"/>
      <point x="420" y="417"/>
      <point x="426" y="410"/>
      <point x="426" y="401" type="curve" smooth="yes"/>
      <point x="426" y="381"/>
      <point x="398" y="296"/>
      <point x="373" y="224" type="curve" smooth="yes"/>
      <point x="346" y="146"/>
      <point x="321" y="80"/>
      <point x="321" y="45" type="curve" smooth="yes"/>
      <point x="321" y="8"/>
      <point x="348" y="-14"/>
    </contour>
  </outline>
</glyph>
<glyph name="o" format="2">
  <advance width="445"/>
  <unicode hex="006F"/>
  <anchor x="450" y="368" name="attachhorn"/>
  <anchor x="145" y="0" name="dotbelow"/>
  <anchor x="192" y="0" name="ogonek"/>
  <anchor x="350" y="494" name="top"/>
  <outline>
    <contour>
      <point x="166" y="-14" type="curve" smooth="yes"/>
      <point x="238" y="-14"/>
      <point x="298" y="39"/>
      <point x="340" y="94" type="curve" smooth="yes"/>
      <point x="395" y="166"/>
      <point x="421" y="244"/>
      <point x="421" y="310" type="curve" smooth="yes"/>
      <point x="421" y="409"/>
      <point x="362" y="482"/>
      <point x="279" y="482" type="curve" smooth="yes"/>
      <point x="236" y="482"/>
      <point x="194" y="462"/>
      <point x="154" y="426" type="curve" smooth="yes"/>
      <point x="84" y="363"/>
      <point x="24" y="253"/>
      <point x="24" y="154" type="curve" smooth="yes"/>
      <point x="24" y="54"/>
      <point x="84" y="-14"/>
    </contour>
    <contour>
      <point x="171" y="22" type="curve" smooth="yes"/>
      <point x="117" y="22"/>
      <point x="109" y="74"/>
      <point x="109" y="110" type="curve" smooth="yes"/>
      <point x="109" y="184"/>
      <point x="142" y="295"/>
      <point x="177" y="362" type="curve" smooth="yes"/>
      <point x="207" y="419"/>
      <point x="239" y="446"/>
      <point x="274" y="446" type="curve" smooth="yes"/>
      <point x="312" y="446"/>
      <point x="336" y="415"/>
      <point x="336" y="359" type="curve" smooth="yes"/>
      <point x="336" y="291"/>
      <point x="300" y="175"/>
      <point x="276" y="120" type="curve" smooth="yes"/>
      <point x="246" y="52"/>
      <point x="212" y="22"/>
    </contour>
  </outline>
</glyph>
<glyph name="q" format="2">
  <advance width="479"/>
  <unicode hex="0071"/>
  <anchor x="357" y="494" name="top"/>
  <outline>
    <contour>
      <point x="131" y="-187" type="line"/>
      <point x="361" y="-187" type="line"/>
      <point x="372" y="-149" type="line"/>
      <point x="322" y="-143"/>
      <point x="303" y="-142"/>
      <point x="303" y="-117" type="curve" smooth="yes"/>
      <point x="303" y="-111"/>
      <point x="304" y="-107"/>
      <point x="314" y="-70" type="curve" smooth="yes"/>
      <point x="461" y="477" type="line"/>
      <point x="428" y="485" type="line"/>
      <point x="381" y="438" type="line"/>
      <point x="370" y="454"/>
      <point x="348" y="482"/>
      <point x="302" y="482" type="curve" smooth="yes"/>
      <point x="182" y="482"/>
      <point x="23" y="286"/>
      <point x="23" y="127" type="curve" smooth="yes"/>
      <point x="23" y="52"/>
      <point x="59" y="-14"/>
      <point x="134" y="-14" type="curve" smooth="yes"/>
      <point x="186" y="-14"/>
      <point x="223" y="17"/>
      <point x="269" y="86" type="curve"/>
      <point x="222" y="-91" type="line" smooth="yes"/>
      <point x="209" y="-141"/>
      <point x="204" y="-144"/>
      <point x="141" y="-149" type="curve"/>
    </contour>
    <contour>
      <point x="150" y="35" type="curve" smooth="yes"/>
      <point x="115" y="35"/>
      <point x="109" y="74"/>
      <point x="109" y="102" type="curve" smooth="yes"/>
      <point x="109" y="173"/>
      <point x="149" y="269"/>
      <point x="179" y="330" type="curve" smooth="yes"/>
      <point x="195" y="363"/>
      <point x="237" y="446"/>
      <point x="298" y="446" type="curve" smooth="yes"/>
      <point x="329" y="446"/>
      <point x="341" y="424"/>
      <point x="341" y="383" type="curve" smooth="yes"/>
      <point x="341" y="331"/>
      <point x="321" y="279"/>
      <point x="298" y="218" type="curve" smooth="yes"/>
      <point x="269" y="141"/>
      <point x="209" y="35"/>
    </contour>
  </outline>
</glyph>
<glyph name="r" format="2">
  <advance width="402"/>
  <unicode hex="0072"/>
  <anchor x="76" y="0" name="commaaccentbelow"/>
  <anchor x="76" y="0" name="dotbelow"/>
  <anchor x="337" y="494" name="top"/>
  <outline>
    <contour>
      <point x="42" y="0" type="curve"/>
      <point x="128" y="0" type="line"/>
      <point x="174" y="92"/>
      <point x="221" y="192"/>
      <point x="274" y="277" type="curve" smooth="yes"/>
      <point x="300" y="319"/>
      <point x="323" y="367"/>
      <point x="373" y="379" type="curve" smooth="yes"/>
      <point x="405" y="387"/>
      <point x="450" y="398"/>
      <point x="450" y="440" type="curve" smooth="yes"/>
      <point x="450" y="468"/>
      <point x="430" y="489"/>
      <point x="403" y="489" type="curve" smooth="yes"/>
      <point x="374" y="489"/>
      <point x="354" y="465"/>
      <point x="338" y="445" type="curve" smooth="yes"/>
      <point x="283" y="377"/>
      <point x="253" y="311"/>
      <point x="209" y="236" type="curve"/>
      <point x="228" y="304"/>
      <point x="251" y="382"/>
      <point x="251" y="424" type="curve" smooth="yes"/>
      <point x="251" y="465"/>
      <point x="229" y="482"/>
      <point x="204" y="482" type="curve" smooth="yes"/>
      <point x="152" y="482"/>
      <point x="98" y="412"/>
      <point x="34" y="320" type="curve"/>
      <point x="63" y="298" type="line"/>
      <point x="94" y="343"/>
      <point x="144" y="417"/>
      <point x="165" y="417" type="curve" smooth="yes"/>
      <point x="170" y="417"/>
      <point x="172" y="414"/>
      <point x="172" y="409" type="curve" smooth="yes"/>
      <point x="172" y="405"/>
      <point x="171" y="400"/>
      <point x="170" y="395" type="curve" smooth="yes"/>
      <point x="142" y="283"/>
      <point x="91" y="132"/>
    </contour>
  </outline>
</glyph>
<glyph name="s" format="2">
  <advance width="377"/>
  <unicode hex="0073"/>
  <anchor x="114" y="0" name="attachcedilla"/>
  <anchor x="128" y="0" name="commaaccentbelow"/>
  <anchor x="128" y="0" name="dotbelow"/>
  <anchor x="302" y="494" name="top"/>
  <outline>
    <contour>
      <point x="137" y="-14" type="curve" smooth="yes"/>
      <point x="239" y="-14"/>
      <point x="320" y="59"/>
      <point x="320" y="142" type="curve" smooth="yes"/>
      <point x="320" y="267"/>
      <point x="135" y="292"/>
      <point x="135" y="377" type="curve" smooth="yes"/>
      <point x="135" y="409"/>
      <point x="161" y="440"/>
      <point x="207" y="440" type="curve" smooth="yes"/>
      <point x="250" y="440"/>
      <point x="254" y="412"/>
      <point x="263" y="390" type="curve" smooth="yes"/>
      <point x="270" y="373"/>
      <point x="284" y="351"/>
      <point x="311" y="351" type="curve" smooth="yes"/>
      <point x="336" y="351"/>
      <point x="356" y="370"/>
      <point x="356" y="397" type="curve" smooth="yes"/>
      <point x="356" y="443"/>
      <point x="300" y="482"/>
      <point x="232" y="482" type="curve" smooth="yes"/>
      <point x="145" y="482"/>
      <point x="67" y="418"/>
      <point x="67" y="340" type="curve" smooth="yes"/>
      <point x="67" y="222"/>
      <point x="249" y="200"/>
      <point x="249" y="106" type="curve" smooth="yes"/>
      <point x="249" y="62"/>
      <point x="208" y="30"/>
      <point x="159" y="30" type="curve" smooth="yes"/>
      <point x="125" y="30"/>
      <point x="110" y="45"/>
      <point x="103" y="63" type="curve" smooth="yes"/>
      <point x="95" y="83"/>
      <point x="86" y="133"/>
      <point x="45" y="133" type="curve" smooth="yes"/>
      <point x="19" y="133"/>
      <point x="-4" y="114"/>
      <point x="-4" y="82" type="curve" smooth="yes"/>
      <point x="-4" y="31"/>
      <point x="57" y="-14"/>
    </contour>
  </outline>
</glyph>
<glyph name="t" format="2">
  <advance width="306"/>
  <unicode hex="0074"/>
  <anchor x="404" y="735" name="caroncombalt"/>
  <anchor x="92" y="0" name="commaaccentbelow"/>
  <anchor x="92" y="0" name="dotbelow"/>
  <anchor x="296" y="676" name="top"/>
  <outline>
    <contour>
      <point x="107" y="-14" type="curve" smooth="yes"/>
      <point x="182" y="-14"/>
      <point x="238" y="80"/>
      <point x="271" y="133" type="curve"/>
      <point x="242" y="154" type="line"/>
      <point x="217" y="114"/>
      <point x="174" y="48"/>
      <point x="148" y="48" type="curve" smooth="yes"/>
      <point x="138" y="48"/>
      <point x="137" y="57"/>
      <point x="137" y="62" type="curve" smooth="yes"/>
      <point x="137" y="74"/>
      <point x="142" y="98"/>
      <point x="147" y="117" type="curve" smooth="yes"/>
      <point x="229" y="425" type="line"/>
      <point x="326" y="425" type="line"/>
      <point x="337" y="468" type="line"/>
      <point x="241" y="468" type="line"/>
      <point x="289" y="648" type="line"/>
      <point x="202" y="648" type="line"/>
      <point x="155" y="468" type="line"/>
      <point x="89" y="468" type="line"/>
      <point x="77" y="425" type="line"/>
      <point x="143" y="425" type="line"/>
      <point x="61" y="117" type="line" smooth="yes"/>
      <point x="55" y="95"/>
      <point x="49" y="72"/>
      <point x="49" y="51" type="curve" smooth="yes"/>
      <point x="49" y="16"/>
      <point x="65" y="-14"/>
    </contour>
  </outline>
</glyph>
<glyph name="u" format="2">
  <advance width="572"/>
  <unicode hex="0075"/>
  <anchor x="551" y="368" name="attachhorn"/>
  <anchor x="185" y="0" name="dotbelow"/>
  <anchor x="354" y="0" name="ogonek"/>
  <anchor x="394" y="494" name="top"/>
  <outline>
    <contour>
      <point x="130" y="-14" type="curve" smooth="yes"/>
      <point x="183" y="-14"/>
      <point x="241" y="55"/>
      <point x="277" y="105" type="curve" smooth="yes"/>
      <point x="305" y="144"/>
      <point x="337" y="195"/>
      <point x="383" y="274" type="curve"/>
      <point x="363" y="200"/>
      <point x="329" y="107"/>
      <point x="329" y="57" type="curve" smooth="yes"/>
      <point x="329" y="11"/>
      <point x="357" y="-12"/>
      <point x="384" y="-12" type="curve" smooth="yes"/>
      <point x="445" y="-12"/>
      <point x="516" y="104"/>
      <point x="551" y="157" type="curve"/>
      <point x="519" y="178" type="line"/>
      <point x="492" y="136"/>
      <point x="432" y="56"/>
      <point x="415" y="56" type="curve" smooth="yes"/>
      <point x="409" y="56"/>
      <point x="409" y="67"/>
      <point x="409" y="75" type="curve" smooth="yes"/>
      <point x="409" y="104"/>
      <point x="437" y="202"/>
      <point x="465" y="279" type="curve" smooth="yes"/>
      <point x="482" y="326"/>
      <point x="516" y="412"/>
      <point x="541" y="483" type="curve"/>
      <point x="453" y="483" type="line"/>
      <point x="399" y="378"/>
      <point x="332" y="250"/>
      <point x="271" y="164" type="curve" smooth="yes"/>
      <point x="249" y="133"/>
      <point x="197" y="54"/>
      <point x="165" y="54" type="curve" smooth="yes"/>
      <point x="155" y="54"/>
      <point x="149" y="62"/>
      <point x="149" y="74" type="curve" smooth="yes"/>
      <point x="149" y="94"/>
      <point x="167" y="142"/>
      <point x="201" y="241" type="curve" smooth="yes"/>
      <point x="233" y="334"/>
      <point x="253" y="391"/>
      <point x="253" y="420" type="curve" smooth="yes"/>
      <point x="253" y="454"/>
      <point x="226" y="483"/>
      <point x="192" y="483" type="curve" smooth="yes"/>
      <point x="148" y="483"/>
      <point x="101" y="434"/>
      <point x="31" y="328" type="curve"/>
      <point x="65" y="306" type="line"/>
      <point x="90" y="343"/>
      <point x="139" y="418"/>
      <point x="160" y="418" type="curve" smooth="yes"/>
      <point x="166" y="418"/>
      <point x="169" y="413"/>
      <point x="169" y="407" type="curve" smooth="yes"/>
      <point x="169" y="396"/>
      <point x="158" y="366"/>
      <point x="133" y="293" type="curve" smooth="yes"/>
      <point x="90" y="168"/>
      <point x="64" y="95"/>
      <point x="64" y="57" type="curve" smooth="yes"/>
      <point x="64" y="16"/>
      <point x="95" y="-14"/>
    </contour>
  </outline>
</glyph>
<glyph name="v" format="2">
  <advance width="442"/>
  <unicode hex="0076"/>
  <anchor x="139" y="0" name="dotbelow"/>
  <anchor x="339" y="494" name="top"/>
  <outline>
    <contour>
      <point x="164" y="-14" type="curve" smooth="yes"/>
      <point x="240" y="-14"/>
      <point x="334" y="67"/>
      <point x="394" y="216" type="curve" smooth="yes"/>
      <point x="414" y="266"/>
      <point x="439" y="346"/>
      <point x="439" y="401" type="curve" smooth="yes"/>
      <point x="439" y="450"/>
      <point x="419" y="482"/>
      <point x="385" y="482" type="curve" smooth="yes"/>
      <point x="360" y="482"/>
      <point x="338" y="464"/>
      <point x="338" y="432" type="curve" smooth="yes"/>
      <point x="338" y="391"/>
      <point x="374" y="366"/>
      <point x="374" y="322" type="curve" smooth="yes"/>
      <point x="374" y="286"/>
      <point x="350" y="217"/>
      <point x="318" y="165" type="curve" smooth="yes"/>
      <point x="288" y="116"/>
      <point x="241" y="39"/>
      <point x="187" y="39" type="curve" smooth="yes"/>
      <point x="157" y="39"/>
      <point x="152" y="64"/>
      <point x="152" y="82" type="curve" smooth="yes"/>
      <point x="152" y="124"/>
      <point x="178" y="175"/>
      <point x="201" y="242" type="curve" smooth="yes"/>
      <point x="236" y="345"/>
      <point x="252" y="390"/>
      <point x="252" y="424" type="curve" smooth="yes"/>
      <point x="252" y="461"/>
      <point x="232" y="479"/>
      <point x="202" y="479" type="curve" smooth="yes"/>
      <point x="156" y="479"/>
      <point x="103" y="435"/>
      <point x="38" y="332" type="curve"/>
      <point x="68" y="314" type="line"/>
      <point x="93" y="348"/>
      <point x="139" y="417"/>
      <point x="160" y="417" type="curve" smooth="yes"/>
      <point x="165" y="417"/>
      <point x="168" y="413"/>
      <point x="168" y="407" type="curve" smooth="yes"/>
      <point x="168" y="394"/>
      <point x="150" y="342"/>
      <point x="133" y="295" type="curve" smooth="yes"/>
      <point x="107" y="223"/>
      <point x="69" y="125"/>
      <point x="69" y="77" type="curve" smooth="yes"/>
      <point x="69" y="26"/>
      <point x="111" y="-14"/>
    </contour>
  </outline>
</glyph>
<glyph name="w" format="2">
  <advance width="658"/>
  <unicode hex="0077"/>
  <anchor x="266" y="0" name="dotbelow"/>
  <anchor x="463" y="494" name="top"/>
  <outline>
    <contour>
      <point x="141" y="-14" type="curve" smooth="yes"/>
      <point x="223" y="-14"/>
      <point x="291" y="112"/>
      <point x="343" y="228" type="curve"/>
      <point x="337" y="188"/>
      <point x="329" y="142"/>
      <point x="329" y="108" type="curve" smooth="yes"/>
      <point x="329" y="46"/>
      <point x="356" y="-14"/>
      <point x="414" y="-14" type="curve" smooth="yes"/>
      <point x="495" y="-14"/>
      <point x="565" y="102"/>
      <point x="609" y="216" type="curve" smooth="yes"/>
      <point x="631" y="273"/>
      <point x="654" y="350"/>
      <point x="654" y="399" type="curve" smooth="yes"/>
      <point x="654" y="450"/>
      <point x="630" y="482"/>
      <point x="594" y="482" type="curve" smooth="yes"/>
      <point x="566" y="482"/>
      <point x="554" y="462"/>
      <point x="554" y="436" type="curve" smooth="yes"/>
      <point x="554" y="391"/>
      <point x="590" y="375"/>
      <point x="590" y="325" type="curve" smooth="yes"/>
      <point x="590" y="276"/>
      <point x="558" y="210"/>
      <point x="535" y="162" type="curve" smooth="yes"/>
      <point x="506" y="102"/>
      <point x="471" y="45"/>
      <point x="436" y="45" type="curve" smooth="yes"/>
      <point x="411" y="45"/>
      <point x="408" y="76"/>
      <point x="408" y="98" type="curve" smooth="yes"/>
      <point x="408" y="159"/>
      <point x="430" y="276"/>
      <point x="452" y="354" type="curve" smooth="yes"/>
      <point x="484" y="468" type="line"/>
      <point x="405" y="468" type="line"/>
      <point x="365" y="364"/>
      <point x="322" y="254"/>
      <point x="266" y="156" type="curve" smooth="yes"/>
      <point x="238" y="107"/>
      <point x="196" y="43"/>
      <point x="161" y="43" type="curve" smooth="yes"/>
      <point x="150" y="43"/>
      <point x="143" y="50"/>
      <point x="143" y="67" type="curve" smooth="yes"/>
      <point x="143" y="95"/>
      <point x="162" y="147"/>
      <point x="197" y="244" type="curve" smooth="yes"/>
      <point x="218" y="302"/>
      <point x="250" y="374"/>
      <point x="250" y="415" type="curve" smooth="yes"/>
      <point x="250" y="451"/>
      <point x="225" y="476"/>
      <point x="194" y="476" type="curve" smooth="yes"/>
      <point x="147" y="476"/>
      <point x="83" y="417"/>
      <point x="36" y="330" type="curve"/>
      <point x="69" y="307" type="line"/>
      <point x="97" y="358"/>
      <point x="141" y="413"/>
      <point x="160" y="413" type="curve" smooth="yes"/>
      <point x="164" y="413"/>
      <point x="166" y="410"/>
      <point x="166" y="404" type="curve" smooth="yes"/>
      <point x="166" y="392"/>
      <point x="156" y="366"/>
      <point x="132" y="302" type="curve" smooth="yes"/>
      <point x="91" y="193"/>
      <point x="63" y="120"/>
      <point x="63" y="73" type="curve" smooth="yes"/>
      <point x="63" y="23"/>
      <point x="96" y="-14"/>
    </contour>
  </outline>
</glyph>
<glyph name="x" format="2">
  <advance width="421"/>
  <unicode hex="0078"/>
  <anchor x="325" y="494" name="top"/>
  <outline>
    <contour>
      <point x="255" y="-14" type="curve" smooth="yes"/>
      <point x="304" y="-14"/>
      <point x="350" y="37"/>
      <point x="396" y="138" type="curve"/>
      <point x="360" y="156" type="line"/>
      <point x="352" y="131"/>
      <point x="303" y="54"/>
      <point x="284" y="54" type="curve" smooth="yes"/>
      <point x="271" y="54"/>
      <point x="269" y="93"/>
      <point x="267" y="109" type="curve" smooth="yes"/>
      <point x="245" y="268" type="line"/>
      <point x="326" y="396"/>
      <point x="324" y="374"/>
      <point x="385" y="383" type="curve" smooth="yes"/>
      <point x="432" y="390"/>
      <point x="443" y="404"/>
      <point x="443" y="427" type="curve" smooth="yes"/>
      <point x="443" y="459"/>
      <point x="423" y="480"/>
      <point x="390" y="480" type="curve" smooth="yes"/>
      <point x="345" y="480"/>
      <point x="306" y="441"/>
      <point x="237" y="332" type="curve"/>
      <point x="225" y="436"/>
      <point x="218" y="482"/>
      <point x="176" y="482" type="curve" smooth="yes"/>
      <point x="125" y="482"/>
      <point x="72" y="412"/>
      <point x="32" y="319" type="curve"/>
      <point x="68" y="301" type="line"/>
      <point x="81" y="335"/>
      <point x="121" y="405"/>
      <point x="138" y="405" type="curve" smooth="yes"/>
      <point x="145" y="405"/>
      <point x="147" y="391"/>
      <point x="148" y="384" type="curve" smooth="yes"/>
      <point x="172" y="226" type="line"/>
      <point x="159" y="197"/>
      <point x="135" y="170"/>
      <point x="113" y="139" type="curve" smooth="yes"/>
      <point x="86" y="101"/>
      <point x="58" y="83"/>
      <point x="23" y="85" type="curve" smooth="yes"/>
      <point x="-21" y="87"/>
      <point x="-49" y="74"/>
      <point x="-49" y="42" type="curve" smooth="yes"/>
      <point x="-49" y="12"/>
      <point x="-25" y="-12"/>
      <point x="7" y="-12" type="curve" smooth="yes"/>
      <point x="63" y="-12"/>
      <point x="126" y="65"/>
      <point x="181" y="165" type="curve"/>
      <point x="185" y="120"/>
      <point x="193" y="71"/>
      <point x="202" y="36" type="curve" smooth="yes"/>
      <point x="207" y="18"/>
      <point x="217" y="-14"/>
    </contour>
  </outline>
</glyph>
<glyph name="y" format="2">
  <advance width="418"/>
  <unicode hex="0079"/>
  <anchor x="283" y="0" name="dotbelow"/>
  <anchor x="322" y="494" name="top"/>
  <outline>
    <contour>
      <point x="-17" y="-187" type="curve" smooth="yes"/>
      <point x="124" y="-187"/>
      <point x="274" y="61"/>
      <point x="348" y="220" type="curve" smooth="yes"/>
      <point x="381" y="291"/>
      <point x="405" y="357"/>
      <point x="405" y="412" type="curve" smooth="yes"/>
      <point x="405" y="462"/>
      <point x="385" y="482"/>
      <point x="356" y="482" type="curve" smooth="yes"/>
      <point x="326" y="482"/>
      <point x="308" y="460"/>
      <point x="308" y="429" type="curve" smooth="yes"/>
      <point x="308" y="391"/>
      <point x="335" y="361"/>
      <point x="335" y="328" type="curve" smooth="yes"/>
      <point x="335" y="301"/>
      <point x="317" y="259"/>
      <point x="301" y="227" type="curve" smooth="yes"/>
      <point x="241" y="109" type="line"/>
      <point x="206" y="365" type="line" smooth="yes"/>
      <point x="194" y="452"/>
      <point x="176" y="480"/>
      <point x="146" y="480" type="curve" smooth="yes"/>
      <point x="104" y="480"/>
      <point x="65" y="425"/>
      <point x="25" y="323" type="curve"/>
      <point x="62" y="307" type="line"/>
      <point x="70" y="326"/>
      <point x="98" y="397"/>
      <point x="112" y="397" type="curve" smooth="yes"/>
      <point x="117" y="397"/>
      <point x="119" y="389"/>
      <point x="120" y="383" type="curve" smooth="yes"/>
      <point x="177" y="16" type="line"/>
      <point x="141" y="-29"/>
      <point x="90" y="-101"/>
      <point x="43" y="-101" type="curve" smooth="yes"/>
      <point x="24" y="-101"/>
      <point x="1" y="-89"/>
      <point x="-25" y="-89" type="curve" smooth="yes"/>
      <point x="-61" y="-89"/>
      <point x="-81" y="-111"/>
      <point x="-81" y="-136" type="curve" smooth="yes"/>
      <point x="-81" y="-161"/>
      <point x="-62" y="-187"/>
    </contour>
  </outline>
</glyph>
<glyph name="z" format="2">
  <advance width="390"/>
  <unicode hex="007A"/>
  <anchor x="122" y="0" name="dotbelow"/>
  <anchor x="286" y="494" name="top"/>
  <outline>
    <contour>
      <point x="-27" y="-14" type="curve"/>
      <point x="8" y="-14" type="line"/>
      <point x="27" y="29"/>
      <point x="41" y="38"/>
      <point x="62" y="38" type="curve" smooth="yes"/>
      <point x="112" y="38"/>
      <point x="178" y="-14"/>
      <point x="235" y="-14" type="curve" smooth="yes"/>
      <point x="284" y="-14"/>
      <point x="338" y="24"/>
      <point x="338" y="81" type="curve" smooth="yes"/>
      <point x="338" y="116"/>
      <point x="317" y="135"/>
      <point x="291" y="135" type="curve" smooth="yes"/>
      <point x="276" y="135"/>
      <point x="252" y="129"/>
      <point x="252" y="101" type="curve" smooth="yes"/>
      <point x="252" y="72"/>
      <point x="277" y="55"/>
      <point x="277" y="46" type="curve" smooth="yes"/>
      <point x="277" y="44"/>
      <point x="277" y="37"/>
      <point x="266" y="37" type="curve" smooth="yes"/>
      <point x="229" y="37"/>
      <point x="198" y="114"/>
      <point x="130" y="114" type="curve" smooth="yes"/>
      <point x="108" y="114"/>
      <point x="86" y="106"/>
      <point x="68" y="99" type="curve"/>
      <point x="111" y="144"/>
      <point x="159" y="176"/>
      <point x="189" y="196" type="curve" smooth="yes"/>
      <point x="263" y="245"/>
      <point x="374" y="357"/>
      <point x="387" y="475" type="curve"/>
      <point x="355" y="482" type="line"/>
      <point x="344" y="460"/>
      <point x="332" y="443"/>
      <point x="314" y="443" type="curve" smooth="yes"/>
      <point x="287" y="443"/>
      <point x="250" y="478"/>
      <point x="202" y="478" type="curve" smooth="yes"/>
      <point x="145" y="478"/>
      <point x="90" y="428"/>
      <point x="46" y="338" type="curve"/>
      <point x="80" y="320" type="line"/>
      <point x="108" y="372"/>
      <point x="133" y="397"/>
      <point x="159" y="397" type="curve" smooth="yes"/>
      <point x="183" y="397"/>
      <point x="230" y="374"/>
      <point x="264" y="374" type="curve" smooth="yes"/>
      <point x="282" y="374"/>
      <point x="292" y="380"/>
      <point x="311" y="387" type="curve"/>
      <point x="264" y="326"/>
      <point x="210" y="293"/>
      <point x="174" y="267" type="curve" smooth="yes"/>
      <point x="85" y="203"/>
      <point x="-15" y="90"/>
    </contour>
  </outline>
</glyph>
<glyph name="braceleft" format="2">
  <advance width="519"/>
  <unicode hex="007B"/>
  <outline>
    <contour>
      <point x="297" y="-181" type="curve" smooth="yes"/>
      <point x="323" y="-181" type="line"/>
      <point x="335" y="-138" type="line"/>
      <point x="243" y="-138"/>
      <point x="216" y="-115"/>
      <point x="216" y="-69" type="curve" smooth="yes"/>
      <point x="216" y="-51"/>
      <point x="220" y="-29"/>
      <point x="229" y="4" type="curve" smooth="yes"/>
      <point x="263" y="130" type="line" smooth="yes"/>
      <point x="274" y="170"/>
      <point x="279" y="198"/>
      <point x="279" y="218" type="curve" smooth="yes"/>
      <point x="279" y="261"/>
      <point x="256" y="269"/>
      <point x="222" y="285" type="curve"/>
      <point x="276" y="310"/>
      <point x="311" y="310"/>
      <point x="338" y="410" type="curve" smooth="yes"/>
      <point x="372" y="537" type="line" smooth="yes"/>
      <point x="396" y="628"/>
      <point x="417" y="679"/>
      <point x="554" y="679" type="curve"/>
      <point x="565" y="721" type="line"/>
      <point x="539" y="721" type="line" smooth="yes"/>
      <point x="354" y="721"/>
      <point x="325" y="675"/>
      <point x="289" y="536" type="curve" smooth="yes"/>
      <point x="276" y="487"/>
      <point x="260" y="416"/>
      <point x="252" y="388" type="curve" smooth="yes"/>
      <point x="231" y="312"/>
      <point x="183" y="310"/>
      <point x="124" y="306" type="curve"/>
      <point x="114" y="265" type="line"/>
      <point x="161" y="262"/>
      <point x="202" y="259"/>
      <point x="202" y="214" type="curve" smooth="yes"/>
      <point x="202" y="205"/>
      <point x="200" y="195"/>
      <point x="197" y="183" type="curve" smooth="yes"/>
      <point x="187" y="143"/>
      <point x="164" y="71"/>
      <point x="146" y="4" type="curve" smooth="yes"/>
      <point x="135" y="-37"/>
      <point x="127" y="-72"/>
      <point x="127" y="-99" type="curve" smooth="yes"/>
      <point x="127" y="-158"/>
      <point x="167" y="-181"/>
    </contour>
  </outline>
</glyph>
<glyph name="braceright" format="2">
  <advance width="519"/>
  <unicode hex="007D"/>
  <outline>
    <contour>
      <point x="-27" y="-181" type="line"/>
      <point x="-1" y="-181" type="line" smooth="yes"/>
      <point x="172" y="-181"/>
      <point x="212" y="-144"/>
      <point x="250" y="4" type="curve" smooth="yes"/>
      <point x="263" y="53"/>
      <point x="277" y="121"/>
      <point x="286" y="152" type="curve" smooth="yes"/>
      <point x="306" y="219"/>
      <point x="339" y="230"/>
      <point x="414" y="235" type="curve"/>
      <point x="425" y="276" type="line"/>
      <point x="378" y="279"/>
      <point x="337" y="281"/>
      <point x="337" y="326" type="curve" smooth="yes"/>
      <point x="337" y="335"/>
      <point x="339" y="346"/>
      <point x="342" y="358" type="curve" smooth="yes"/>
      <point x="356" y="412"/>
      <point x="379" y="486"/>
      <point x="392" y="536" type="curve" smooth="yes"/>
      <point x="403" y="578"/>
      <point x="411" y="612"/>
      <point x="411" y="638" type="curve" smooth="yes"/>
      <point x="411" y="699"/>
      <point x="371" y="721"/>
      <point x="241" y="721" type="curve" smooth="yes"/>
      <point x="215" y="721" type="line"/>
      <point x="203" y="679" type="line"/>
      <point x="295" y="679"/>
      <point x="322" y="656"/>
      <point x="322" y="609" type="curve" smooth="yes"/>
      <point x="322" y="591"/>
      <point x="318" y="570"/>
      <point x="309" y="536" type="curve" smooth="yes"/>
      <point x="276" y="411" type="line" smooth="yes"/>
      <point x="265" y="370"/>
      <point x="260" y="342"/>
      <point x="260" y="322" type="curve" smooth="yes"/>
      <point x="260" y="279"/>
      <point x="282" y="272"/>
      <point x="317" y="255" type="curve"/>
      <point x="263" y="230"/>
      <point x="226" y="230"/>
      <point x="200" y="131" type="curve" smooth="yes"/>
      <point x="166" y="3" type="line" smooth="yes"/>
      <point x="142" y="-88"/>
      <point x="121" y="-138"/>
      <point x="-15" y="-138" type="curve"/>
    </contour>
  </outline>
</glyph>
<glyph name="asciitilde" format="2">
  <advance width="601"/>
  <unicode hex="007E"/>
  <note>
asciitilde
</note>
  <outline>
    <contour>
      <point x="90" y="163" type="line"/>
      <point x="115" y="222"/>
      <point x="148" y="239"/>
      <point x="186" y="239" type="curve" smooth="yes"/>
      <point x="265" y="239"/>
      <point x="335" y="168"/>
      <point x="416" y="168" type="curve" smooth="yes"/>
      <point x="474" y="168"/>
      <point x="512" y="204"/>
      <point x="550" y="261" type="curve"/>
      <point x="511" y="315" type="line"/>
      <point x="489" y="281"/>
      <point x="463" y="239"/>
      <point x="415" y="239" type="curve" smooth="yes"/>
      <point x="352" y="239"/>
      <point x="279" y="310"/>
      <point x="189" y="310" type="curve" smooth="yes"/>
      <point x="128" y="310"/>
      <point x="79" y="277"/>
      <point x="51" y="217" type="curve"/>
    </contour>
  </outline>
</glyph>
<glyph name="exclamdown" format="2">
  <advance width="296"/>
  <unicode hex="00A1"/>
  <outline>
    <contour>
      <point x="42" y="-267" type="curve" smooth="yes"/>
      <point x="85" y="-267"/>
      <point x="118" y="-235"/>
      <point x="118" y="-84" type="curve" smooth="yes"/>
      <point x="118" y="52"/>
      <point x="150" y="145"/>
      <point x="176" y="259" type="curve"/>
      <point x="137" y="269" type="line"/>
      <point x="120" y="203"/>
      <point x="101" y="137"/>
      <point x="85" y="80" type="curve" smooth="yes"/>
      <point x="50" y="-46"/>
      <point x="-18" y="-127"/>
      <point x="-18" y="-199" type="curve" smooth="yes"/>
      <point x="-18" y="-237"/>
      <point x="1" y="-267"/>
    </contour>
    <contour>
      <point x="195" y="354" type="curve" smooth="yes"/>
      <point x="229" y="354"/>
      <point x="259" y="379"/>
      <point x="259" y="417" type="curve" smooth="yes"/>
      <point x="259" y="455"/>
      <point x="229" y="482"/>
      <point x="195" y="482" type="curve" smooth="yes"/>
      <point x="160" y="482"/>
      <point x="131" y="455"/>
      <point x="131" y="417" type="curve" smooth="yes"/>
      <point x="131" y="379"/>
      <point x="160" y="354"/>
    </contour>
  </outline>
</glyph>
<glyph name="cent" format="2">
  <advance width="514"/>
  <unicode hex="00A2"/>
  <outline>
    <contour>
      <point x="198" y="32" type="line"/>
      <point x="231" y="32" type="line"/>
      <point x="255" y="122" type="line"/>
      <point x="337" y="125"/>
      <point x="404" y="206"/>
      <point x="445" y="257" type="curve"/>
      <point x="418" y="279" type="line"/>
      <point x="383" y="241"/>
      <point x="323" y="170"/>
      <point x="269" y="170" type="curve"/>
      <point x="378" y="578" type="line"/>
      <point x="387" y="577"/>
      <point x="394" y="574"/>
      <point x="394" y="562" type="curve" smooth="yes"/>
      <point x="394" y="552"/>
      <point x="390" y="545"/>
      <point x="390" y="533" type="curve" smooth="yes"/>
      <point x="390" y="511"/>
      <point x="405" y="484"/>
      <point x="436" y="484" type="curve" smooth="yes"/>
      <point x="464" y="484"/>
      <point x="485" y="505"/>
      <point x="485" y="536" type="curve" smooth="yes"/>
      <point x="485" y="575"/>
      <point x="450" y="618"/>
      <point x="390" y="618" type="curve" smooth="yes"/>
      <point x="389" y="618" type="line"/>
      <point x="408" y="688" type="line"/>
      <point x="373" y="688" type="line"/>
      <point x="354" y="614" type="line"/>
      <point x="304" y="603"/>
      <point x="261" y="569"/>
      <point x="223" y="524" type="curve" smooth="yes"/>
      <point x="161" y="451"/>
      <point x="123" y="362"/>
      <point x="123" y="284" type="curve" smooth="yes"/>
      <point x="123" y="203"/>
      <point x="164" y="143"/>
      <point x="223" y="125" type="curve"/>
    </contour>
    <contour>
      <point x="237" y="179" type="line"/>
      <point x="217" y="197"/>
      <point x="212" y="217"/>
      <point x="212" y="245" type="curve" smooth="yes"/>
      <point x="212" y="298"/>
      <point x="230" y="376"/>
      <point x="259" y="448" type="curve" smooth="yes"/>
      <point x="280" y="500"/>
      <point x="307" y="550"/>
      <point x="342" y="570" type="curve"/>
    </contour>
  </outline>
</glyph>
<glyph name="sterling" format="2">
  <advance width="514"/>
  <unicode hex="00A3"/>
  <outline>
    <contour>
      <point x="300" y="-25" type="curve" smooth="yes"/>
      <point x="389" y="-25"/>
      <point x="443" y="51"/>
      <point x="472" y="148" type="curve"/>
      <point x="435" y="148" type="line"/>
      <point x="413" y="76"/>
      <point x="379" y="58"/>
      <point x="338" y="58" type="curve" smooth="yes"/>
      <point x="293" y="58"/>
      <point x="243" y="80"/>
      <point x="203" y="98" type="curve"/>
      <point x="234" y="136"/>
      <point x="268" y="204"/>
      <point x="268" y="294" type="curve"/>
      <point x="421" y="294" type="line"/>
      <point x="432" y="333" type="line"/>
      <point x="268" y="333" type="line"/>
      <point x="266" y="456" type="line" smooth="yes"/>
      <point x="264" y="559"/>
      <point x="283" y="602"/>
      <point x="310" y="629" type="curve" smooth="yes"/>
      <point x="340" y="659"/>
      <point x="375" y="664"/>
      <point x="390" y="664" type="curve" smooth="yes"/>
      <point x="417" y="664"/>
      <point x="448" y="648"/>
      <point x="448" y="615" type="curve" smooth="yes"/>
      <point x="448" y="594"/>
      <point x="436" y="575"/>
      <point x="436" y="554" type="curve" smooth="yes"/>
      <point x="436" y="529"/>
      <point x="454" y="507"/>
      <point x="483" y="507" type="curve" smooth="yes"/>
      <point x="517" y="507"/>
      <point x="543" y="537"/>
      <point x="543" y="581" type="curve" smooth="yes"/>
      <point x="543" y="641"/>
      <point x="493" y="703"/>
      <point x="401" y="703" type="curve" smooth="yes"/>
      <point x="352" y="703"/>
      <point x="311" y="686"/>
      <point x="278" y="662" type="curve" smooth="yes"/>
      <point x="208" y="610"/>
      <point x="171" y="515"/>
      <point x="171" y="375" type="curve" smooth="yes"/>
      <point x="171" y="333" type="line"/>
      <point x="70" y="333" type="line"/>
      <point x="58" y="294" type="line"/>
      <point x="172" y="294" type="line"/>
      <point x="172" y="263" type="line" smooth="yes"/>
      <point x="172" y="195"/>
      <point x="164" y="160"/>
      <point x="156" y="119" type="curve"/>
      <point x="137" y="126"/>
      <point x="99" y="147"/>
      <point x="65" y="147" type="curve" smooth="yes"/>
      <point x="22" y="147"/>
      <point x="-23" y="113"/>
      <point x="-23" y="59" type="curve" smooth="yes"/>
      <point x="-23" y="6"/>
      <point x="21" y="-18"/>
      <point x="58" y="-18" type="curve" smooth="yes"/>
      <point x="107" y="-18"/>
      <point x="142" y="21"/>
      <point x="156" y="36" type="curve"/>
      <point x="183" y="15"/>
      <point x="235" y="-25"/>
    </contour>
    <contour>
      <point x="62" y="24" type="curve" smooth="yes"/>
      <point x="31" y="24"/>
      <point x="24" y="44"/>
      <point x="24" y="59" type="curve" smooth="yes"/>
      <point x="24" y="80"/>
      <point x="37" y="95"/>
      <point x="58" y="95" type="curve" smooth="yes"/>
      <point x="84" y="95"/>
      <point x="109" y="71"/>
      <point x="122" y="62" type="curve"/>
      <point x="112" y="46"/>
      <point x="94" y="24"/>
    </contour>
  </outline>
</glyph>
<glyph name="currency" format="2">
  <advance width="601"/>
  <unicode hex="00A4"/>
  <note>
currency
</note>
  <outline>
    <contour>
      <point x="76" y="103" type="line"/>
      <point x="134" y="164" type="line"/>
      <point x="179" y="126"/>
      <point x="239" y="105"/>
      <point x="300" y="105" type="curve" smooth="yes"/>
      <point x="364" y="105"/>
      <point x="422" y="128"/>
      <point x="468" y="164" type="curve"/>
      <point x="525" y="103" type="line"/>
      <point x="572" y="149" type="line"/>
      <point x="514" y="210" type="line"/>
      <point x="548" y="255"/>
      <point x="569" y="312"/>
      <point x="569" y="373" type="curve" smooth="yes"/>
      <point x="569" y="435"/>
      <point x="548" y="491"/>
      <point x="512" y="536" type="curve"/>
      <point x="572" y="597" type="line"/>
      <point x="523" y="645" type="line"/>
      <point x="464" y="586" type="line"/>
      <point x="418" y="621"/>
      <point x="361" y="641"/>
      <point x="301" y="641" type="curve" smooth="yes"/>
      <point x="239" y="641"/>
      <point x="182" y="619"/>
      <point x="136" y="585" type="curve"/>
      <point x="77" y="645" type="line"/>
      <point x="29" y="597" type="line"/>
      <point x="89" y="537" type="line"/>
      <point x="54" y="492"/>
      <point x="32" y="435"/>
      <point x="32" y="373" type="curve" smooth="yes"/>
      <point x="32" y="312"/>
      <point x="53" y="255"/>
      <point x="88" y="210" type="curve"/>
      <point x="29" y="149" type="line"/>
    </contour>
    <contour>
      <point x="300" y="170" type="curve" smooth="yes"/>
      <point x="189" y="170"/>
      <point x="104" y="265"/>
      <point x="104" y="373" type="curve" smooth="yes"/>
      <point x="104" y="481"/>
      <point x="189" y="576"/>
      <point x="300" y="576" type="curve" smooth="yes"/>
      <point x="409" y="576"/>
      <point x="497" y="484"/>
      <point x="497" y="373" type="curve" smooth="yes"/>
      <point x="497" y="262"/>
      <point x="409" y="170"/>
    </contour>
  </outline>
</glyph>
<glyph name="yen" format="2">
  <advance width="626"/>
  <unicode hex="00A5"/>
  <outline>
    <contour>
      <point x="83" y="0" type="line"/>
      <point x="387" y="0" type="line"/>
      <point x="397" y="40" type="line"/>
      <point x="318" y="40"/>
      <point x="302" y="53"/>
      <point x="302" y="74" type="curve" smooth="yes"/>
      <point x="302" y="85"/>
      <point x="306" y="107"/>
      <point x="308" y="114" type="curve" smooth="yes"/>
      <point x="347" y="257" type="line"/>
      <point x="536" y="257" type="line"/>
      <point x="548" y="317" type="line"/>
      <point x="371" y="317" type="line"/>
      <point x="443" y="403" type="line"/>
      <point x="565" y="403" type="line"/>
      <point x="576" y="463" type="line"/>
      <point x="493" y="463" type="line"/>
      <point x="595" y="584" type="line" smooth="yes"/>
      <point x="668" y="670"/>
      <point x="680" y="674"/>
      <point x="731" y="681" type="curve"/>
      <point x="741" y="721" type="line"/>
      <point x="509" y="721" type="line"/>
      <point x="498" y="681" type="line"/>
      <point x="564" y="681"/>
      <point x="573" y="666"/>
      <point x="573" y="651" type="curve" smooth="yes"/>
      <point x="573" y="626"/>
      <point x="542" y="594"/>
      <point x="532" y="582" type="curve" smooth="yes"/>
      <point x="337" y="346" type="line"/>
      <point x="277" y="599" type="line" smooth="yes"/>
      <point x="275" y="608"/>
      <point x="267" y="630"/>
      <point x="267" y="647" type="curve" smooth="yes"/>
      <point x="267" y="666"/>
      <point x="277" y="681"/>
      <point x="350" y="681" type="curve"/>
      <point x="360" y="721" type="line"/>
      <point x="94" y="721" type="line"/>
      <point x="83" y="681" type="line"/>
      <point x="130" y="681"/>
      <point x="159" y="671"/>
      <point x="172" y="618" type="curve" smooth="yes"/>
      <point x="211" y="463" type="line"/>
      <point x="108" y="463" type="line"/>
      <point x="97" y="403" type="line"/>
      <point x="225" y="403" type="line"/>
      <point x="246" y="317" type="line"/>
      <point x="80" y="317" type="line"/>
      <point x="68" y="257" type="line"/>
      <point x="246" y="257" type="line"/>
      <point x="208" y="114" type="line" smooth="yes"/>
      <point x="192" y="53"/>
      <point x="176" y="42"/>
      <point x="94" y="40" type="curve"/>
    </contour>
  </outline>
</glyph>
<glyph name="brokenbar" format="2">
  <advance width="541"/>
  <unicode hex="00A6"/>
  <outline>
    <contour>
      <point x="239" y="357" type="line"/>
      <point x="302" y="357" type="line"/>
      <point x="302" y="721" type="line"/>
      <point x="239" y="721" type="line"/>
    </contour>
    <contour>
      <point x="239" y="-181" type="line"/>
      <point x="302" y="-181" type="line"/>
      <point x="302" y="165" type="line"/>
      <point x="239" y="165" type="line"/>
    </contour>
  </outline>
</glyph>
<glyph name="section" format="2">
  <advance width="514"/>
  <unicode hex="00A7"/>
  <outline>
    <contour>
      <point x="141" y="-205" type="curve" smooth="yes"/>
      <point x="273" y="-205"/>
      <point x="376" y="-110"/>
      <point x="376" y="-9" type="curve" smooth="yes"/>
      <point x="376" y="50"/>
      <point x="341" y="95"/>
      <point x="305" y="128" type="curve"/>
      <point x="378" y="143"/>
      <point x="471" y="196"/>
      <point x="471" y="295" type="curve" smooth="yes"/>
      <point x="471" y="455"/>
      <point x="226" y="479"/>
      <point x="226" y="606" type="curve" smooth="yes"/>
      <point x="226" y="658"/>
      <point x="268" y="704"/>
      <point x="333" y="704" type="curve" smooth="yes"/>
      <point x="439" y="704"/>
      <point x="394" y="584"/>
      <point x="471" y="584" type="curve" smooth="yes"/>
      <point x="500" y="584"/>
      <point x="522" y="601"/>
      <point x="522" y="633" type="curve" smooth="yes"/>
      <point x="522" y="690"/>
      <point x="450" y="739"/>
      <point x="367" y="739" type="curve" smooth="yes"/>
      <point x="262" y="739"/>
      <point x="156" y="661"/>
      <point x="156" y="559" type="curve" smooth="yes"/>
      <point x="156" y="503"/>
      <point x="188" y="469"/>
      <point x="225" y="436" type="curve"/>
      <point x="171" y="427"/>
      <point x="57" y="374"/>
      <point x="57" y="267" type="curve" smooth="yes"/>
      <point x="57" y="109"/>
      <point x="302" y="90"/>
      <point x="302" y="-50" type="curve" smooth="yes"/>
      <point x="302" y="-120"/>
      <point x="242" y="-166"/>
      <point x="170" y="-166" type="curve" smooth="yes"/>
      <point x="44" y="-166"/>
      <point x="101" y="-28"/>
      <point x="19" y="-28" type="curve" smooth="yes"/>
      <point x="-17" y="-28"/>
      <point x="-38" y="-54"/>
      <point x="-38" y="-85" type="curve" smooth="yes"/>
      <point x="-38" y="-141"/>
      <point x="33" y="-205"/>
    </contour>
    <contour>
      <point x="305" y="158" type="curve" smooth="yes"/>
      <point x="242" y="158"/>
      <point x="128" y="238"/>
      <point x="128" y="313" type="curve" smooth="yes"/>
      <point x="128" y="361"/>
      <point x="174" y="405"/>
      <point x="223" y="405" type="curve" smooth="yes"/>
      <point x="290" y="405"/>
      <point x="401" y="321"/>
      <point x="401" y="249" type="curve" smooth="yes"/>
      <point x="401" y="201"/>
      <point x="351" y="158"/>
    </contour>
  </outline>
</glyph>
<glyph name="copyright" format="2">
  <advance width="836"/>
  <unicode hex="00A9"/>
  <outline>
    <contour>
      <point x="419" y="-14" type="curve" smooth="yes"/>
      <point x="624" y="-14"/>
      <point x="792" y="155"/>
      <point x="792" y="361" type="curve" smooth="yes"/>
      <point x="792" y="566"/>
      <point x="625" y="735"/>
      <point x="420" y="735" type="curve" smooth="yes"/>
      <point x="214" y="735"/>
      <point x="43" y="564"/>
      <point x="43" y="359" type="curve" smooth="yes"/>
      <point x="43" y="155"/>
      <point x="213" y="-14"/>
    </contour>
    <contour>
      <point x="419" y="22" type="curve" smooth="yes"/>
      <point x="235" y="22"/>
      <point x="83" y="174"/>
      <point x="83" y="359" type="curve" smooth="yes"/>
      <point x="83" y="546"/>
      <point x="237" y="699"/>
      <point x="420" y="699" type="curve" smooth="yes"/>
      <point x="603" y="699"/>
      <point x="752" y="547"/>
      <point x="752" y="361" type="curve" smooth="yes"/>
      <point x="752" y="174"/>
      <point x="602" y="22"/>
    </contour>
    <contour>
      <point x="410" y="150" type="curve" smooth="yes"/>
      <point x="482" y="150"/>
      <point x="547" y="191"/>
      <point x="578" y="271" type="curve"/>
      <point x="549" y="283" type="line"/>
      <point x="530" y="235"/>
      <point x="490" y="200"/>
      <point x="435" y="200" type="curve" smooth="yes"/>
      <point x="378" y="200"/>
      <point x="304" y="238"/>
      <point x="304" y="376" type="curve" smooth="yes"/>
      <point x="304" y="484"/>
      <point x="349" y="546"/>
      <point x="415" y="546" type="curve" smooth="yes"/>
      <point x="475" y="546"/>
      <point x="529" y="495"/>
      <point x="548" y="451" type="curve"/>
      <point x="578" y="463" type="line"/>
      <point x="539" y="575" type="line"/>
      <point x="528" y="571"/>
      <point x="507" y="562"/>
      <point x="494" y="562" type="curve" smooth="yes"/>
      <point x="479" y="562"/>
      <point x="457" y="577"/>
      <point x="417" y="577" type="curve" smooth="yes"/>
      <point x="299" y="577"/>
      <point x="232" y="450"/>
      <point x="232" y="342" type="curve" smooth="yes"/>
      <point x="232" y="224"/>
      <point x="313" y="150"/>
    </contour>
  </outline>
</glyph>
<glyph name="ordfeminine" format="2">
  <advance width="347"/>
  <unicode hex="00AA"/>
  <outline>
    <contour>
      <point x="175" y="402" type="curve" smooth="yes"/>
      <point x="213" y="402"/>
      <point x="245" y="432"/>
      <point x="265" y="456" type="curve"/>
      <point x="264" y="452"/>
      <point x="263" y="444"/>
      <point x="263" y="439" type="curve" smooth="yes"/>
      <point x="263" y="420"/>
      <point x="278" y="402"/>
      <point x="301" y="402" type="curve" smooth="yes"/>
      <point x="341" y="402"/>
      <point x="381" y="457"/>
      <point x="404" y="492" type="curve"/>
      <point x="382" y="507" type="line"/>
      <point x="365" y="486"/>
      <point x="337" y="446"/>
      <point x="326" y="446" type="curve" smooth="yes"/>
      <point x="323" y="446"/>
      <point x="321" y="449"/>
      <point x="321" y="452" type="curve" smooth="yes"/>
      <point x="321" y="471"/>
      <point x="402" y="682"/>
      <point x="410" y="702" type="curve"/>
      <point x="354" y="702" type="line"/>
      <point x="342" y="674" type="line"/>
      <point x="330" y="692"/>
      <point x="317" y="703"/>
      <point x="291" y="703" type="curve" smooth="yes"/>
      <point x="203" y="703"/>
      <point x="104" y="575"/>
      <point x="104" y="486" type="curve" smooth="yes"/>
      <point x="104" y="435"/>
      <point x="136" y="402"/>
    </contour>
    <contour>
      <point x="186" y="435" type="curve" smooth="yes"/>
      <point x="166" y="435"/>
      <point x="163" y="452"/>
      <point x="163" y="466" type="curve" smooth="yes"/>
      <point x="163" y="532"/>
      <point x="234" y="675"/>
      <point x="290" y="675" type="curve" smooth="yes"/>
      <point x="306" y="675"/>
      <point x="318" y="664"/>
      <point x="318" y="645" type="curve" smooth="yes"/>
      <point x="318" y="599"/>
      <point x="248" y="435"/>
    </contour>
  </outline>
</glyph>
<glyph name="registered" format="2">
  <advance width="836"/>
  <unicode hex="00AE"/>
  <outline>
    <contour>
      <point x="419" y="-14" type="curve" smooth="yes"/>
      <point x="624" y="-14"/>
      <point x="792" y="155"/>
      <point x="792" y="361" type="curve" smooth="yes"/>
      <point x="792" y="566"/>
      <point x="625" y="735"/>
      <point x="420" y="735" type="curve" smooth="yes"/>
      <point x="214" y="735"/>
      <point x="43" y="564"/>
      <point x="43" y="359" type="curve" smooth="yes"/>
      <point x="43" y="155"/>
      <point x="213" y="-14"/>
    </contour>
    <contour>
      <point x="419" y="22" type="curve" smooth="yes"/>
      <point x="235" y="22"/>
      <point x="83" y="174"/>
      <point x="83" y="359" type="curve" smooth="yes"/>
      <point x="83" y="546"/>
      <point x="237" y="699"/>
      <point x="420" y="699" type="curve" smooth="yes"/>
      <point x="603" y="699"/>
      <point x="752" y="547"/>
      <point x="752" y="361" type="curve" smooth="yes"/>
      <point x="752" y="174"/>
      <point x="602" y="22"/>
    </contour>
    <contour>
      <point x="243" y="159" type="line"/>
      <point x="416" y="159" type="line"/>
      <point x="416" y="189" type="line"/>
      <point x="406" y="189" type="line" smooth="yes"/>
      <point x="374" y="189"/>
      <point x="364" y="196"/>
      <point x="364" y="242" type="curve" smooth="yes"/>
      <point x="365" y="351" type="line"/>
      <point x="401" y="351" type="line"/>
      <point x="512" y="159" type="line"/>
      <point x="619" y="159" type="line"/>
      <point x="619" y="189" type="line"/>
      <point x="608" y="189" type="line" smooth="yes"/>
      <point x="570" y="189"/>
      <point x="561" y="199"/>
      <point x="536" y="243" type="curve" smooth="yes"/>
      <point x="470" y="359" type="line"/>
      <point x="545" y="366"/>
      <point x="581" y="415"/>
      <point x="581" y="465" type="curve" smooth="yes"/>
      <point x="581" y="516"/>
      <point x="544" y="544"/>
      <point x="506" y="557" type="curve" smooth="yes"/>
      <point x="483" y="565"/>
      <point x="451" y="570"/>
      <point x="400" y="570" type="curve" smooth="yes"/>
      <point x="243" y="570" type="line"/>
      <point x="243" y="539" type="line"/>
      <point x="257" y="539" type="line" smooth="yes"/>
      <point x="291" y="539"/>
      <point x="298" y="530"/>
      <point x="298" y="492" type="curve" smooth="yes"/>
      <point x="298" y="238" type="line" smooth="yes"/>
      <point x="298" y="191"/>
      <point x="289" y="189"/>
      <point x="256" y="189" type="curve" smooth="yes"/>
      <point x="243" y="189" type="line"/>
    </contour>
    <contour>
      <point x="365" y="383" type="line"/>
      <point x="365" y="503" type="line" smooth="yes"/>
      <point x="365" y="535"/>
      <point x="379" y="541"/>
      <point x="411" y="541" type="curve" smooth="yes"/>
      <point x="472" y="541"/>
      <point x="508" y="520"/>
      <point x="508" y="462" type="curve" smooth="yes"/>
      <point x="508" y="405"/>
      <point x="474" y="383"/>
      <point x="414" y="383" type="curve" smooth="yes"/>
    </contour>
  </outline>
</glyph>
<glyph name="degree" format="2">
  <advance width="324"/>
  <unicode hex="00B0"/>
  <outline>
    <contour>
      <point x="238" y="468" type="curve" smooth="yes"/>
      <point x="297" y="468"/>
      <point x="357" y="517"/>
      <point x="357" y="601" type="curve" smooth="yes"/>
      <point x="357" y="685"/>
      <point x="298" y="735"/>
      <point x="239" y="735" type="curve" smooth="yes"/>
      <point x="179" y="735"/>
      <point x="119" y="686"/>
      <point x="119" y="603" type="curve" smooth="yes"/>
      <point x="119" y="519"/>
      <point x="178" y="468"/>
    </contour>
    <contour>
      <point x="238" y="519" type="curve" smooth="yes"/>
      <point x="198" y="519"/>
      <point x="183" y="561"/>
      <point x="183" y="601" type="curve" smooth="yes"/>
      <point x="183" y="641"/>
      <point x="199" y="684"/>
      <point x="239" y="684" type="curve" smooth="yes"/>
      <point x="280" y="684"/>
      <point x="293" y="641"/>
      <point x="293" y="601" type="curve" smooth="yes"/>
      <point x="293" y="561"/>
      <point x="278" y="519"/>
    </contour>
  </outline>
</glyph>
<glyph name="plusminus" format="2">
  <advance width="601"/>
  <unicode hex="00B1"/>
  <note>
plusminus
</note>
  <outline>
    <contour>
      <point x="265" y="133" type="line"/>
      <point x="336" y="133" type="line"/>
      <point x="336" y="252" type="line"/>
      <point x="539" y="252" type="line"/>
      <point x="539" y="323" type="line"/>
      <point x="336" y="323" type="line"/>
      <point x="336" y="442" type="line"/>
      <point x="265" y="442" type="line"/>
      <point x="265" y="323" type="line"/>
      <point x="62" y="323" type="line"/>
      <point x="62" y="252" type="line"/>
      <point x="265" y="252" type="line"/>
    </contour>
    <contour>
      <point x="62" y="0" type="line"/>
      <point x="539" y="0" type="line"/>
      <point x="539" y="71" type="line"/>
      <point x="62" y="71" type="line"/>
    </contour>
  </outline>
</glyph>
<glyph name="twosuperior" format="2">
  <advance width="342"/>
  <unicode hex="00B2"/>
  <outline>
    <contour>
      <point x="54" y="324" type="line"/>
      <point x="323" y="324" type="line"/>
      <point x="366" y="432" type="line"/>
      <point x="340" y="447" type="line"/>
      <point x="306" y="393"/>
      <point x="300" y="380"/>
      <point x="236" y="380" type="curve" smooth="yes"/>
      <point x="119" y="380" type="line"/>
      <point x="169" y="431"/>
      <point x="219" y="462"/>
      <point x="272" y="498" type="curve" smooth="yes"/>
      <point x="340" y="544"/>
      <point x="401" y="584"/>
      <point x="401" y="648" type="curve" smooth="yes"/>
      <point x="401" y="708"/>
      <point x="348" y="746"/>
      <point x="282" y="746" type="curve" smooth="yes"/>
      <point x="206" y="746"/>
      <point x="137" y="695"/>
      <point x="137" y="646" type="curve" smooth="yes"/>
      <point x="137" y="619"/>
      <point x="159" y="607"/>
      <point x="178" y="607" type="curve" smooth="yes"/>
      <point x="199" y="607"/>
      <point x="217" y="622"/>
      <point x="217" y="665" type="curve" smooth="yes"/>
      <point x="217" y="693"/>
      <point x="235" y="713"/>
      <point x="276" y="713" type="curve" smooth="yes"/>
      <point x="311" y="713"/>
      <point x="331" y="698"/>
      <point x="331" y="662" type="curve" smooth="yes"/>
      <point x="331" y="604"/>
      <point x="277" y="560"/>
      <point x="213" y="510" type="curve" smooth="yes"/>
      <point x="153" y="463"/>
      <point x="100" y="422"/>
      <point x="64" y="364" type="curve"/>
    </contour>
  </outline>
</glyph>
<glyph name="threesuperior" format="2">
  <advance width="342"/>
  <unicode hex="00B3"/>
  <outline>
    <contour>
      <point x="210" y="313" type="curve" smooth="yes"/>
      <point x="296" y="313"/>
      <point x="365" y="374"/>
      <point x="365" y="449" type="curve" smooth="yes"/>
      <point x="365" y="486"/>
      <point x="348" y="519"/>
      <point x="299" y="536" type="curve"/>
      <point x="330" y="539"/>
      <point x="406" y="579"/>
      <point x="406" y="649" type="curve" smooth="yes"/>
      <point x="406" y="703"/>
      <point x="361" y="745"/>
      <point x="288" y="745" type="curve" smooth="yes"/>
      <point x="216" y="745"/>
      <point x="160" y="704"/>
      <point x="160" y="665" type="curve" smooth="yes"/>
      <point x="160" y="646"/>
      <point x="174" y="628"/>
      <point x="199" y="628" type="curve" smooth="yes"/>
      <point x="254" y="628"/>
      <point x="220" y="714"/>
      <point x="291" y="714" type="curve" smooth="yes"/>
      <point x="314" y="714"/>
      <point x="338" y="705"/>
      <point x="338" y="661" type="curve" smooth="yes"/>
      <point x="338" y="603"/>
      <point x="296" y="555"/>
      <point x="258" y="555" type="curve" smooth="yes"/>
      <point x="245" y="555"/>
      <point x="228" y="561"/>
      <point x="215" y="561" type="curve" smooth="yes"/>
      <point x="201" y="561"/>
      <point x="192" y="554"/>
      <point x="192" y="540" type="curve" smooth="yes"/>
      <point x="192" y="526"/>
      <point x="201" y="518"/>
      <point x="226" y="518" type="curve" smooth="yes"/>
      <point x="239" y="518"/>
      <point x="243" y="520"/>
      <point x="253" y="520" type="curve" smooth="yes"/>
      <point x="272" y="520"/>
      <point x="297" y="513"/>
      <point x="297" y="469" type="curve" smooth="yes"/>
      <point x="297" y="433"/>
      <point x="281" y="396"/>
      <point x="266" y="376" type="curve" smooth="yes"/>
      <point x="248" y="352"/>
      <point x="225" y="344"/>
      <point x="200" y="344" type="curve" smooth="yes"/>
      <point x="164" y="344"/>
      <point x="156" y="361"/>
      <point x="156" y="374" type="curve" smooth="yes"/>
      <point x="156" y="387"/>
      <point x="163" y="394"/>
      <point x="163" y="409" type="curve" smooth="yes"/>
      <point x="163" y="433"/>
      <point x="146" y="448"/>
      <point x="121" y="448" type="curve" smooth="yes"/>
      <point x="101" y="448"/>
      <point x="83" y="438"/>
      <point x="83" y="407" type="curve" smooth="yes"/>
      <point x="83" y="352"/>
      <point x="142" y="313"/>
    </contour>
  </outline>
</glyph>
<glyph name="micro" format="2">
  <advance width="572"/>
  <unicode hex="00B5"/>
  <outline>
    <contour>
      <point x="-5" y="-351" type="curve" smooth="yes"/>
      <point x="20" y="-351"/>
      <point x="53" y="-338"/>
      <point x="69" y="-270" type="curve" smooth="yes"/>
      <point x="84" y="-207"/>
      <point x="67" y="-168"/>
      <point x="92" y="-1" type="curve"/>
      <point x="103" y="-10"/>
      <point x="117" y="-14"/>
      <point x="130" y="-14" type="curve" smooth="yes"/>
      <point x="184" y="-14"/>
      <point x="243" y="58"/>
      <point x="277" y="105" type="curve" smooth="yes"/>
      <point x="305" y="143"/>
      <point x="350" y="217"/>
      <point x="383" y="274" type="curve"/>
      <point x="363" y="200"/>
      <point x="329" y="107"/>
      <point x="329" y="57" type="curve" smooth="yes"/>
      <point x="329" y="11"/>
      <point x="357" y="-12"/>
      <point x="384" y="-12" type="curve" smooth="yes"/>
      <point x="445" y="-12"/>
      <point x="516" y="104"/>
      <point x="551" y="157" type="curve"/>
      <point x="519" y="178" type="line"/>
      <point x="492" y="136"/>
      <point x="432" y="56"/>
      <point x="415" y="56" type="curve" smooth="yes"/>
      <point x="409" y="56"/>
      <point x="409" y="67"/>
      <point x="409" y="75" type="curve" smooth="yes"/>
      <point x="409" y="104"/>
      <point x="437" y="202"/>
      <point x="465" y="279" type="curve" smooth="yes"/>
      <point x="482" y="326"/>
      <point x="516" y="412"/>
      <point x="541" y="483" type="curve"/>
      <point x="453" y="483" type="line"/>
      <point x="399" y="378"/>
      <point x="332" y="250"/>
      <point x="271" y="164" type="curve" smooth="yes"/>
      <point x="249" y="133"/>
      <point x="197" y="54"/>
      <point x="165" y="54" type="curve" smooth="yes"/>
      <point x="155" y="54"/>
      <point x="149" y="62"/>
      <point x="149" y="74" type="curve" smooth="yes"/>
      <point x="149" y="94"/>
      <point x="167" y="142"/>
      <point x="201" y="241" type="curve" smooth="yes"/>
      <point x="233" y="334"/>
      <point x="253" y="391"/>
      <point x="253" y="420" type="curve" smooth="yes"/>
      <point x="253" y="454"/>
      <point x="226" y="483"/>
      <point x="192" y="483" type="curve" smooth="yes"/>
      <point x="148" y="483"/>
      <point x="101" y="434"/>
      <point x="31" y="328" type="curve"/>
      <point x="65" y="306" type="line"/>
      <point x="90" y="343"/>
      <point x="139" y="418"/>
      <point x="160" y="418" type="curve" smooth="yes"/>
      <point x="166" y="418"/>
      <point x="169" y="413"/>
      <point x="169" y="407" type="curve" smooth="yes"/>
      <point x="169" y="396"/>
      <point x="157" y="363"/>
      <point x="133" y="293" type="curve" smooth="yes"/>
      <point x="94" y="179"/>
      <point x="88" y="155"/>
      <point x="65" y="68" type="curve" smooth="yes"/>
      <point x="-24" y="-269"/>
      <point x="-30" y="-162"/>
      <point x="-51" y="-271" type="curve" smooth="yes"/>
      <point x="-53" y="-281"/>
      <point x="-54" y="-289"/>
      <point x="-54" y="-297" type="curve" smooth="yes"/>
      <point x="-54" y="-337"/>
      <point x="-30" y="-351"/>
    </contour>
  </outline>
</glyph>
<glyph name="paragraph" format="2">
  <advance width="549"/>
  <unicode hex="00B6"/>
  <outline>
    <contour>
      <point x="-4" y="-187" type="line"/>
      <point x="164" y="-187" type="line"/>
      <point x="397" y="679" type="line"/>
      <point x="486" y="679" type="line"/>
      <point x="255" y="-187" type="line"/>
      <point x="417" y="-187" type="line"/>
      <point x="428" y="-145" type="line"/>
      <point x="357" y="-145"/>
      <point x="347" y="-130"/>
      <point x="347" y="-109" type="curve" smooth="yes"/>
      <point x="347" y="-99"/>
      <point x="345" y="-106"/>
      <point x="355" y="-69" type="curve" smooth="yes"/>
      <point x="531" y="586" type="line" smooth="yes"/>
      <point x="554" y="672"/>
      <point x="566" y="681"/>
      <point x="649" y="679" type="curve"/>
      <point x="661" y="721" type="line"/>
      <point x="325" y="721" type="line" smooth="yes"/>
      <point x="269" y="721"/>
      <point x="221" y="701"/>
      <point x="183" y="665" type="curve" smooth="yes"/>
      <point x="124" y="610"/>
      <point x="91" y="516"/>
      <point x="91" y="443" type="curve" smooth="yes"/>
      <point x="91" y="382"/>
      <point x="114" y="332"/>
      <point x="236" y="332" type="curve"/>
      <point x="125" y="-74" type="line" smooth="yes"/>
      <point x="107" y="-142"/>
      <point x="84" y="-145"/>
      <point x="6" y="-145" type="curve"/>
    </contour>
  </outline>
</glyph>
<glyph name="onesuperior" format="2">
  <advance width="342"/>
  <unicode hex="00B9"/>
  <outline>
    <contour>
      <point x="90" y="324" type="line"/>
      <point x="321" y="324" type="line"/>
      <point x="330" y="356" type="line"/>
      <point x="257" y="359"/>
      <point x="247" y="361"/>
      <point x="247" y="375" type="curve" smooth="yes"/>
      <point x="247" y="380"/>
      <point x="248" y="386"/>
      <point x="252" y="401" type="curve" smooth="yes"/>
      <point x="348" y="761" type="line"/>
      <point x="284" y="731"/>
      <point x="247" y="724"/>
      <point x="176" y="716" type="curve"/>
      <point x="169" y="685" type="line"/>
      <point x="238" y="685"/>
      <point x="254" y="681"/>
      <point x="254" y="666" type="curve" smooth="yes"/>
      <point x="254" y="661"/>
      <point x="252" y="651"/>
      <point x="251" y="647" type="curve" smooth="yes"/>
      <point x="184" y="398" type="line" smooth="yes"/>
      <point x="174" y="360"/>
      <point x="169" y="362"/>
      <point x="98" y="356" type="curve"/>
    </contour>
  </outline>
</glyph>
<glyph name="ordmasculine" format="2">
  <advance width="312"/>
  <unicode hex="00BA"/>
  <outline>
    <contour>
      <point x="205" y="402" type="curve" smooth="yes"/>
      <point x="290" y="402"/>
      <point x="368" y="507"/>
      <point x="368" y="595" type="curve" smooth="yes"/>
      <point x="368" y="654"/>
      <point x="332" y="703"/>
      <point x="275" y="703" type="curve" smooth="yes"/>
      <point x="191" y="703"/>
      <point x="112" y="595"/>
      <point x="112" y="507" type="curve" smooth="yes"/>
      <point x="112" y="447"/>
      <point x="149" y="402"/>
    </contour>
    <contour>
      <point x="209" y="430" type="curve" smooth="yes"/>
      <point x="183" y="430"/>
      <point x="174" y="455"/>
      <point x="174" y="482" type="curve" smooth="yes"/>
      <point x="174" y="534"/>
      <point x="208" y="675"/>
      <point x="272" y="675" type="curve" smooth="yes"/>
      <point x="292" y="675"/>
      <point x="307" y="661"/>
      <point x="307" y="628" type="curve" smooth="yes"/>
      <point x="307" y="579"/>
      <point x="273" y="430"/>
    </contour>
  </outline>
</glyph>
<glyph name="questiondown" format="2">
  <advance width="441"/>
  <unicode hex="00BF"/>
  <outline>
    <contour>
      <point x="162" y="-267" type="curve" smooth="yes"/>
      <point x="225" y="-267"/>
      <point x="276" y="-232"/>
      <point x="276" y="-189" type="curve" smooth="yes"/>
      <point x="276" y="-162"/>
      <point x="256" y="-139"/>
      <point x="230" y="-139" type="curve" smooth="yes"/>
      <point x="183" y="-139"/>
      <point x="177" y="-213"/>
      <point x="126" y="-213" type="curve" smooth="yes"/>
      <point x="92" y="-213"/>
      <point x="57" y="-180"/>
      <point x="57" y="-106" type="curve" smooth="yes"/>
      <point x="57" y="-18"/>
      <point x="107" y="55"/>
      <point x="197" y="55" type="curve" smooth="yes"/>
      <point x="212" y="55"/>
      <point x="227" y="53"/>
      <point x="237" y="51" type="curve"/>
      <point x="293" y="262" type="line"/>
      <point x="248" y="272" type="line"/>
      <point x="211" y="141" type="line"/>
      <point x="201" y="142"/>
      <point x="189" y="143"/>
      <point x="177" y="143" type="curve" smooth="yes"/>
      <point x="71" y="143"/>
      <point x="-12" y="60"/>
      <point x="-12" y="-61" type="curve" smooth="yes"/>
      <point x="-12" y="-171"/>
      <point x="57" y="-267"/>
    </contour>
    <contour>
      <point x="303" y="354" type="curve" smooth="yes"/>
      <point x="337" y="354"/>
      <point x="368" y="379"/>
      <point x="368" y="417" type="curve" smooth="yes"/>
      <point x="368" y="455"/>
      <point x="337" y="482"/>
      <point x="303" y="482" type="curve" smooth="yes"/>
      <point x="268" y="482"/>
      <point x="239" y="455"/>
      <point x="239" y="417" type="curve" smooth="yes"/>
      <point x="239" y="379"/>
      <point x="268" y="354"/>
    </contour>
  </outline>
</glyph>
<glyph name="AE" format="2">
  <advance width="1075"/>
  <unicode hex="00C6"/>
  <anchor x="805" y="741" name="top"/>
  <outline>
    <contour>
      <point x="-70" y="0" type="line"/>
      <point x="181" y="0" type="line"/>
      <point x="190" y="40" type="line"/>
      <point x="149" y="46"/>
      <point x="118" y="56"/>
      <point x="118" y="83" type="curve" smooth="yes"/>
      <point x="118" y="98"/>
      <point x="128" y="110"/>
      <point x="151" y="138" type="curve" smooth="yes"/>
      <point x="240" y="246" type="line"/>
      <point x="524" y="246" type="line"/>
      <point x="489" y="114" type="line" smooth="yes"/>
      <point x="473" y="53"/>
      <point x="452" y="43"/>
      <point x="383" y="40" type="curve"/>
      <point x="372" y="0" type="line"/>
      <point x="933" y="0" type="line"/>
      <point x="1021" y="174" type="line"/>
      <point x="986" y="196" type="line"/>
      <point x="890" y="93"/>
      <point x="817" y="43"/>
      <point x="668" y="43" type="curve" smooth="yes"/>
      <point x="601" y="43"/>
      <point x="582" y="53"/>
      <point x="582" y="74" type="curve" smooth="yes"/>
      <point x="582" y="82"/>
      <point x="585" y="99"/>
      <point x="589" y="114" type="curve" smooth="yes"/>
      <point x="654" y="356" type="line"/>
      <point x="706" y="353"/>
      <point x="764" y="355"/>
      <point x="795" y="321" type="curve" smooth="yes"/>
      <point x="805" y="310"/>
      <point x="810" y="298"/>
      <point x="810" y="269" type="curve" smooth="yes"/>
      <point x="810" y="251"/>
      <point x="808" y="233"/>
      <point x="806" y="217" type="curve"/>
      <point x="843" y="217" type="line"/>
      <point x="919" y="502" type="line"/>
      <point x="882" y="502" type="line"/>
      <point x="830" y="401"/>
      <point x="797" y="395"/>
      <point x="665" y="395" type="curve"/>
      <point x="716" y="584" type="line" smooth="yes"/>
      <point x="736" y="659"/>
      <point x="742" y="679"/>
      <point x="818" y="679" type="curve" smooth="yes"/>
      <point x="918" y="679"/>
      <point x="965" y="645"/>
      <point x="1021" y="532" type="curve"/>
      <point x="1058" y="539" type="line"/>
      <point x="1028" y="721" type="line"/>
      <point x="462" y="721" type="line"/>
      <point x="444" y="682" type="line"/>
      <point x="508" y="682" type="line" smooth="yes"/>
      <point x="520" y="682"/>
      <point x="529" y="678"/>
      <point x="529" y="668" type="curve" smooth="yes"/>
      <point x="529" y="657"/>
      <point x="518" y="641"/>
      <point x="505" y="626" type="curve" smooth="yes"/>
      <point x="86" y="148" type="line" smooth="yes"/>
      <point x="46" y="103"/>
      <point x="9" y="58"/>
      <point x="-59" y="40" type="curve"/>
    </contour>
    <contour>
      <point x="278" y="293" type="line"/>
      <point x="581" y="641" type="line" smooth="yes"/>
      <point x="595" y="657"/>
      <point x="618" y="683"/>
      <point x="630" y="683" type="curve" smooth="yes"/>
      <point x="635" y="683"/>
      <point x="638" y="679"/>
      <point x="638" y="672" type="curve"/>
      <point x="536" y="293" type="line"/>
    </contour>
  </outline>
</glyph>
<glyph name="Eth" format="2">
  <advance width="716"/>
  <unicode hex="00D0"/>
  <outline>
    <contour>
      <point x="78" y="349" type="line"/>
      <point x="429" y="349" type="line"/>
      <point x="439" y="389" type="line"/>
      <point x="88" y="389" type="line"/>
    </contour>
    <component base="D"/>
  </outline>
</glyph>
<glyph name="multiply" format="2">
  <advance width="601"/>
  <unicode hex="00D7"/>
  <note>
multiply
</note>
  <outline>
    <contour>
      <point x="112" y="3" type="line"/>
      <point x="301" y="190" type="line"/>
      <point x="489" y="3" type="line"/>
      <point x="539" y="53" type="line"/>
      <point x="349" y="239" type="line"/>
      <point x="539" y="428" type="line"/>
      <point x="488" y="478" type="line"/>
      <point x="301" y="289" type="line"/>
      <point x="114" y="478" type="line"/>
      <point x="62" y="428" type="line"/>
      <point x="252" y="239" type="line"/>
      <point x="62" y="53" type="line"/>
    </contour>
  </outline>
</glyph>
<glyph name="Oslash" format="2">
  <advance width="706"/>
  <unicode hex="00D8"/>
  <anchor x="292" y="0" name="dotbelow"/>
  <anchor x="379" y="0" name="ogonek"/>
  <anchor x="492" y="741" name="top"/>
  <outline>
    <contour>
      <point x="320" y="-18" type="curve" smooth="yes"/>
      <point x="528" y="-18"/>
      <point x="707" y="235"/>
      <point x="707" y="441" type="curve" smooth="yes"/>
      <point x="707" y="515"/>
      <point x="684" y="587"/>
      <point x="641" y="643" type="curve"/>
      <point x="691" y="704" type="line"/>
      <point x="659" y="730" type="line"/>
      <point x="614" y="675" type="line"/>
      <point x="573" y="714"/>
      <point x="519" y="739"/>
      <point x="455" y="739" type="curve" smooth="yes"/>
      <point x="260" y="739"/>
      <point x="66" y="505"/>
      <point x="66" y="274" type="curve" smooth="yes"/>
      <point x="66" y="196"/>
      <point x="88" y="132"/>
      <point x="125" y="81" type="curve"/>
      <point x="75" y="19" type="line"/>
      <point x="107" y="-9" type="line"/>
      <point x="154" y="49" type="line"/>
      <point x="198" y="6"/>
      <point x="256" y="-18"/>
    </contour>
    <contour>
      <point x="316" y="22" type="curve" smooth="yes"/>
      <point x="255" y="22"/>
      <point x="215" y="52"/>
      <point x="191" y="95" type="curve"/>
      <point x="594" y="585" type="line"/>
      <point x="600" y="562"/>
      <point x="603" y="541"/>
      <point x="603" y="504" type="curve" smooth="yes"/>
      <point x="603" y="286"/>
      <point x="496" y="22"/>
    </contour>
    <contour>
      <point x="174" y="141" type="line"/>
      <point x="168" y="165"/>
      <point x="166" y="181"/>
      <point x="166" y="207" type="curve" smooth="yes"/>
      <point x="166" y="363"/>
      <point x="239" y="561"/>
      <point x="315" y="640" type="curve" smooth="yes"/>
      <point x="355" y="682"/>
      <point x="407" y="699"/>
      <point x="453" y="699" type="curve" smooth="yes"/>
      <point x="508" y="699"/>
      <point x="550" y="675"/>
      <point x="576" y="628" type="curve"/>
    </contour>
  </outline>
</glyph>
<glyph name="Thorn" format="2">
  <advance width="613"/>
  <unicode hex="00DE"/>
  <outline>
    <contour>
      <point x="-16" y="0" type="line"/>
      <point x="279" y="0" type="line"/>
      <point x="290" y="40" type="line"/>
      <point x="210" y="40"/>
      <point x="195" y="51"/>
      <point x="195" y="74" type="curve" smooth="yes"/>
      <point x="195" y="84"/>
      <point x="198" y="103"/>
      <point x="201" y="114" type="curve" smooth="yes"/>
      <point x="218" y="174" type="line"/>
      <point x="227" y="173"/>
      <point x="248" y="173"/>
      <point x="259" y="173" type="curve" smooth="yes"/>
      <point x="333" y="173"/>
      <point x="407" y="175"/>
      <point x="464" y="195" type="curve" smooth="yes"/>
      <point x="544" y="223"/>
      <point x="621" y="297"/>
      <point x="621" y="395" type="curve" smooth="yes"/>
      <point x="621" y="489"/>
      <point x="549" y="562"/>
      <point x="388" y="562" type="curve" smooth="yes"/>
      <point x="322" y="562" type="line"/>
      <point x="328" y="584" type="line" smooth="yes"/>
      <point x="351" y="669"/>
      <point x="361" y="677"/>
      <point x="440" y="681" type="curve"/>
      <point x="451" y="721" type="line"/>
      <point x="162" y="721" type="line"/>
      <point x="151" y="681" type="line"/>
      <point x="227" y="681"/>
      <point x="239" y="668"/>
      <point x="239" y="639" type="curve" smooth="yes"/>
      <point x="239" y="630"/>
      <point x="238" y="626"/>
      <point x="231" y="600" type="curve" smooth="yes"/>
      <point x="101" y="114" type="line" smooth="yes"/>
      <point x="85" y="53"/>
      <point x="64" y="43"/>
      <point x="-5" y="40" type="curve"/>
    </contour>
    <contour>
      <point x="229" y="216" type="curve"/>
      <point x="285" y="425" type="line" smooth="yes"/>
      <point x="306" y="504"/>
      <point x="311" y="522"/>
      <point x="382" y="522" type="curve" smooth="yes"/>
      <point x="488" y="522"/>
      <point x="514" y="482"/>
      <point x="514" y="422" type="curve" smooth="yes"/>
      <point x="514" y="348"/>
      <point x="474" y="272"/>
      <point x="432" y="243" type="curve" smooth="yes"/>
      <point x="397" y="219"/>
      <point x="343" y="216"/>
    </contour>
  </outline>
</glyph>
<glyph name="germandbls" format="2">
  <advance width="597"/>
  <unicode hex="00DF"/>
  <anchor x="391" y="0" name="attachcedilla"/>
  <anchor x="405" y="0" name="commaaccentbelow"/>
  <anchor x="405" y="0" name="dotbelow"/>
  <anchor x="349" y="741" name="top"/>
  <outline>
    <contour>
      <point x="-82" y="-188" type="curve" smooth="yes"/>
      <point x="-11" y="-188"/>
      <point x="50" y="-104"/>
      <point x="85" y="-36" type="curve" smooth="yes"/>
      <point x="156" y="100"/>
      <point x="199" y="320"/>
      <point x="237" y="468" type="curve" smooth="yes"/>
      <point x="270" y="598"/>
      <point x="298" y="659"/>
      <point x="359" y="659" type="curve" smooth="yes"/>
      <point x="397" y="659"/>
      <point x="435" y="636"/>
      <point x="435" y="585" type="curve" smooth="yes"/>
      <point x="435" y="482"/>
      <point x="280" y="451"/>
      <point x="280" y="341" type="curve" smooth="yes"/>
      <point x="280" y="222"/>
      <point x="462" y="200"/>
      <point x="462" y="106" type="curve" smooth="yes"/>
      <point x="462" y="62"/>
      <point x="421" y="30"/>
      <point x="372" y="30" type="curve" smooth="yes"/>
      <point x="338" y="30"/>
      <point x="323" y="45"/>
      <point x="316" y="63" type="curve" smooth="yes"/>
      <point x="308" y="83"/>
      <point x="299" y="133"/>
      <point x="258" y="133" type="curve" smooth="yes"/>
      <point x="232" y="133"/>
      <point x="209" y="114"/>
      <point x="209" y="82" type="curve" smooth="yes"/>
      <point x="209" y="31"/>
      <point x="270" y="-14"/>
      <point x="350" y="-14" type="curve" smooth="yes"/>
      <point x="453" y="-14"/>
      <point x="533" y="61"/>
      <point x="533" y="142" type="curve" smooth="yes"/>
      <point x="533" y="264"/>
      <point x="348" y="301"/>
      <point x="348" y="369" type="curve" smooth="yes"/>
      <point x="348" y="436"/>
      <point x="525" y="491"/>
      <point x="525" y="609" type="curve" smooth="yes"/>
      <point x="525" y="677"/>
      <point x="467" y="724"/>
      <point x="398" y="724" type="curve" smooth="yes"/>
      <point x="316" y="724"/>
      <point x="221" y="659"/>
      <point x="160" y="468" type="curve" smooth="yes"/>
      <point x="123" y="352"/>
      <point x="70" y="100"/>
      <point x="38" y="-31" type="curve" smooth="yes"/>
      <point x="30" y="-64"/>
      <point x="9" y="-99"/>
      <point x="-31" y="-97" type="curve" smooth="yes"/>
      <point x="-70" y="-95" type="line" smooth="yes"/>
      <point x="-89" y="-94"/>
      <point x="-126" y="-106"/>
      <point x="-126" y="-148" type="curve" smooth="yes"/>
      <point x="-126" y="-175"/>
      <point x="-110" y="-188"/>
    </contour>
  </outline>
</glyph>
